<svg width="526" height="626" viewBox="0 0 526 626" fill="none" xmlns="http://www.w3.org/2000/svg">
<g opacity="0.15">
<line opacity="0.5" x1="0.5" y1="2.18557e-08" x2="0.499972" y2="630" stroke="#D4FD01"/>
<line opacity="0.5" x1="35.5" y1="2.18557e-08" x2="35.5" y2="630" stroke="#D4FD01"/>
<line opacity="0.5" x1="70.5" y1="2.18557e-08" x2="70.5" y2="630" stroke="#D4FD01"/>
<line opacity="0.5" x1="102.5" y1="2.18557e-08" x2="102.5" y2="630" stroke="#D4FD01"/>
<line opacity="0.5" x1="140.5" y1="2.18557e-08" x2="140.5" y2="630" stroke="#D4FD01"/>
<line opacity="0.5" x1="175.5" y1="2.18557e-08" x2="175.5" y2="630" stroke="#D4FD01"/>
<line opacity="0.5" x1="210.5" y1="2.18557e-08" x2="210.5" y2="630" stroke="#D4FD01"/>
<line opacity="0.5" x1="245.5" y1="2.18557e-08" x2="245.5" y2="630" stroke="#D4FD01"/>
<line opacity="0.5" x1="280.5" y1="2.18557e-08" x2="280.5" y2="630" stroke="#D4FD01"/>
<line opacity="0.5" x1="315.5" y1="2.18557e-08" x2="315.5" y2="630" stroke="#D4FD01"/>
<line opacity="0.5" x1="350.5" y1="2.18557e-08" x2="350.5" y2="630" stroke="#D4FD01"/>
<line opacity="0.5" x1="385.5" y1="2.18557e-08" x2="385.5" y2="630" stroke="#D4FD01"/>
<line opacity="0.5" x1="420.5" y1="2.18557e-08" x2="420.5" y2="630" stroke="#D4FD01"/>
<line opacity="0.5" x1="455.5" y1="2.18557e-08" x2="455.5" y2="630" stroke="#D4FD01"/>
<line opacity="0.5" x1="490.5" y1="2.18557e-08" x2="490.5" y2="630" stroke="#D4FD01"/>
<line opacity="0.5" x1="525.5" y1="2.18557e-08" x2="525.5" y2="630" stroke="#D4FD01"/>
</g>
</svg>
