<svg width="1801" height="440" viewBox="0 0 1801 440" fill="none" xmlns="http://www.w3.org/2000/svg">
<line opacity="0.2" x1="1260.5" y1="2.18557e-08" x2="1260.5" y2="440" stroke="#F8F0F1"/>
<line opacity="0.5" x1="1200.5" y1="2.18557e-08" x2="1200.5" y2="440" stroke="#F8F0F1"/>
<line opacity="0.5" x1="1140.5" y1="2.18557e-08" x2="1140.5" y2="440" stroke="#F8F0F1"/>
<line opacity="0.5" x1="1080.5" y1="2.18557e-08" x2="1080.5" y2="440" stroke="#F8F0F1"/>
<line opacity="0.5" x1="1020.5" y1="2.18557e-08" x2="1020.5" y2="440" stroke="#F8F0F1"/>
<line opacity="0.5" x1="960.5" y1="2.18557e-08" x2="960.5" y2="440" stroke="#F8F0F1"/>
<line opacity="0.5" x1="900.5" y1="2.18557e-08" x2="900.5" y2="440" stroke="#F8F0F1"/>
<line opacity="0.5" x1="840.5" y1="2.18557e-08" x2="840.5" y2="440" stroke="#F8F0F1"/>
<line opacity="0.3" x1="780.5" y1="2.18557e-08" x2="780.5" y2="440" stroke="#F8F0F1"/>
<line opacity="0.1" x1="720.5" y1="2.18557e-08" x2="720.5" y2="440" stroke="#F8F0F1"/>
<line opacity="0.1" x1="660.5" y1="2.18557e-08" x2="660.5" y2="440" stroke="#F8F0F1"/>
<line opacity="0.1" x1="600.5" y1="2.18557e-08" x2="600.5" y2="440" stroke="#F8F0F1"/>
<line opacity="0.1" x1="540.5" y1="2.18557e-08" x2="540.5" y2="440" stroke="#F8F0F1"/>
<line opacity="0.1" x1="480.5" y1="2.18557e-08" x2="480.5" y2="440" stroke="#F8F0F1"/>
<line opacity="0.1" x1="420.5" y1="2.18557e-08" x2="420.5" y2="440" stroke="#F8F0F1"/>
<line opacity="0.1" x1="360.5" y1="2.18557e-08" x2="360.5" y2="440" stroke="#F8F0F1"/>
<line opacity="0.1" x1="300.5" y1="2.18557e-08" x2="300.5" y2="440" stroke="#F8F0F1"/>
<line opacity="0.1" x1="240.5" y1="2.18557e-08" x2="240.5" y2="440" stroke="#F8F0F1"/>
<line opacity="0.1" x1="180.5" y1="2.18557e-08" x2="180.5" y2="440" stroke="#F8F0F1"/>
<line opacity="0.1" x1="120.5" y1="2.18557e-08" x2="120.5" y2="440" stroke="#F8F0F1"/>
<line opacity="0.3" x1="60.5" y1="2.18557e-08" x2="60.5" y2="440" stroke="#F8F0F1"/>
<line opacity="0.5" x1="0.5" y1="2.18557e-08" x2="0.499981" y2="440" stroke="#F8F0F1"/>
<line opacity="0.2" x1="1320.5" y1="2.18557e-08" x2="1320.5" y2="440" stroke="#F8F0F1"/>
<line opacity="0.2" x1="1380.5" y1="2.18557e-08" x2="1380.5" y2="440" stroke="#F8F0F1"/>
<line opacity="0.2" x1="1440.5" y1="2.18557e-08" x2="1440.5" y2="440" stroke="#F8F0F1"/>
<line opacity="0.2" x1="1500.5" y1="2.18557e-08" x2="1500.5" y2="440" stroke="#F8F0F1"/>
<line opacity="0.2" x1="1560.5" y1="2.18557e-08" x2="1560.5" y2="440" stroke="#F8F0F1"/>
<line opacity="0.2" x1="1620.5" y1="2.18557e-08" x2="1620.5" y2="440" stroke="#F8F0F1"/>
<line opacity="0.5" x1="1680.5" y1="2.18557e-08" x2="1680.5" y2="440" stroke="#F8F0F1"/>
<line opacity="0.5" x1="1740.5" y1="2.18557e-08" x2="1740.5" y2="440" stroke="#F8F0F1"/>
<line opacity="0.5" x1="1800.5" y1="2.18557e-08" x2="1800.5" y2="440" stroke="#F8F0F1"/>
</svg>
