<svg width="479" height="326" viewBox="0 0 479 326" fill="none" xmlns="http://www.w3.org/2000/svg">
<g clip-path="url(#clip0)">
<g opacity="0.1">
<path opacity="0.1" d="M88.4589 82.0809C86.9902 81.6874 85.4241 81.8985 84.1049 82.6678C82.7857 83.4372 81.8216 84.7017 81.4246 86.1832C81.0277 87.6647 81.2304 89.2418 81.9881 90.5677C82.7459 91.8935 83.9967 92.8595 85.4653 93.253C86.9339 93.6465 88.5001 93.4354 89.8193 92.666C91.1385 91.8967 92.1026 90.6322 92.4996 89.1507C92.8965 87.6692 92.6938 86.092 91.9361 84.7662C91.1783 83.4403 89.9275 82.4744 88.4589 82.0809ZM119.105 96.2796C114.462 113.609 100.372 121.892 88.2671 118.648C85.4057 117.906 82.7787 116.45 80.6277 114.414C78.4768 112.378 76.871 109.827 75.9582 106.996L74.1621 113.699L48.6898 106.874L69.6447 28.6694L95.117 35.4947L87.0692 65.5294C89.2751 63.5343 91.9411 62.1281 94.822 61.4401C97.7029 60.7522 100.706 60.8047 103.555 61.5927C115.77 64.8379 123.852 78.9775 119.208 96.3073L119.105 96.2796Z" fill="#2CBFBF"/>
<path opacity="0.1" d="M165.888 74.981C165.186 74.8133 164.456 74.7912 163.744 74.916C163.032 75.0408 162.352 75.3099 161.744 75.707C161.137 76.1041 160.616 76.621 160.212 77.2263C159.808 77.8315 159.53 78.5126 159.395 79.2282C159.116 79.9173 158.985 80.6578 159.011 81.4004C159.037 82.143 159.22 82.8707 159.547 83.5354C159.874 84.2002 160.338 84.7866 160.908 85.2558C161.478 85.7251 162.141 86.0664 162.853 86.2572C163.565 86.448 164.31 86.4839 165.038 86.3625C165.766 86.241 166.461 85.9651 167.077 85.553C167.692 85.1408 168.214 84.6019 168.608 83.9719C169.002 83.342 169.259 82.6353 169.362 81.899C169.602 81.2136 169.702 80.4871 169.656 79.7631C169.61 79.0391 169.419 78.3326 169.094 77.6862C168.77 77.0398 168.318 76.4669 167.767 76.002C167.216 75.537 166.577 75.1897 165.888 74.981ZM156.608 109.614C138.322 104.715 128.624 87.7471 132.815 72.1062C137.006 56.4652 153.895 46.5937 172.181 51.4936C190.468 56.3935 200.159 73.387 195.968 89.0279C191.777 104.669 174.869 114.507 156.608 109.614Z" fill="#2CBFBF"/>
<path opacity="0.1" d="M225.652 146.995C223.446 148.99 220.78 150.396 217.899 151.084C215.019 151.772 212.015 151.72 209.166 150.932C198.632 148.109 192.588 137.495 196.333 123.517L205.293 90.0785L230.791 96.9107L223.62 123.672C223.415 124.196 223.318 124.757 223.337 125.32C223.355 125.883 223.488 126.435 223.727 126.943C223.966 127.451 224.307 127.904 224.727 128.273C225.147 128.642 225.639 128.92 226.171 129.089C227.463 129.137 228.73 128.711 229.737 127.89C230.744 127.069 231.422 125.909 231.646 124.625L238.518 98.9811L263.99 105.806L249.328 160.524L223.856 153.698L225.652 146.995Z" fill="#2CBFBF"/>
<path opacity="0.1" d="M292.257 148.356C294.463 146.361 297.129 144.955 300.009 144.267C302.89 143.579 305.894 143.632 308.743 144.42C319.277 147.242 325.347 157.863 321.609 171.815L312.628 205.332L287.13 198.5L294.321 171.66C294.539 171.124 294.642 170.547 294.624 169.968C294.605 169.389 294.465 168.821 294.214 168.302C293.962 167.782 293.604 167.323 293.163 166.953C292.722 166.583 292.209 166.312 291.655 166.156C290.367 166.133 289.113 166.581 288.123 167.416C287.133 168.251 286.474 169.418 286.27 170.7L279.377 196.422L253.905 189.597L268.567 134.88L294.039 141.705L292.257 148.356Z" fill="#2CBFBF"/>
<path opacity="0.1" d="M367.936 169.526C369.6 169.863 371.319 169.841 372.977 169.459C374.635 169.078 376.196 168.346 377.555 167.313L388.342 186.912C384.233 189.847 379.523 191.81 374.564 192.656C369.605 193.502 364.525 193.209 359.705 191.798C341.444 186.905 331.746 169.937 335.937 154.296C340.128 138.655 357.017 128.784 375.278 133.677C380.161 134.867 384.708 137.156 388.578 140.373C392.449 143.59 395.544 147.652 397.629 152.253L378.488 163.832C377.837 162.277 376.869 160.878 375.647 159.726C374.425 158.573 372.976 157.693 371.392 157.141C370.546 156.748 369.624 156.547 368.691 156.552C367.758 156.557 366.836 156.767 365.99 157.167C365.145 157.568 364.395 158.15 363.794 158.872C363.194 159.594 362.756 160.439 362.513 161.347C362.269 162.256 362.226 163.207 362.385 164.132C362.544 165.058 362.902 165.937 363.434 166.706C363.967 167.476 364.66 168.119 365.466 168.59C366.271 169.06 367.17 169.347 368.099 169.43L367.936 169.526Z" fill="#2CBFBF"/>
<path opacity="0.1" d="M430.809 145.354L441.884 148.321C442.281 146.84 442.079 145.263 441.321 143.937C440.563 142.611 439.312 141.645 437.844 141.252C436.375 140.858 434.809 141.069 433.49 141.838C432.171 142.608 431.206 143.872 430.809 145.354ZM430.031 157.119C430.031 157.119 430.628 161.484 437.84 163.417C441.192 164.169 444.68 164.071 447.992 163.13L452.355 182.288C444.396 184.58 435.97 184.598 428.021 182.339C409.735 177.44 400.037 160.472 404.228 144.831C408.572 128.619 424.741 119.167 442.487 123.922C460.233 128.677 469.51 144.947 465.465 160.042C464.97 162.16 464.032 164.149 462.715 165.877L430.031 157.119Z" fill="#2CBFBF"/>
</g>
<g opacity="0.23">
<path opacity="0.23" d="M86.6142 78.6626C85.1456 78.2691 83.5794 78.4802 82.2602 79.2496C80.941 80.0189 79.9769 81.2834 79.5799 82.7649C79.183 84.2464 79.3857 85.8236 80.1434 87.1494C80.9012 88.4753 82.152 89.4412 83.6206 89.8347C85.0893 90.2282 86.6554 90.0171 87.9746 89.2478C89.2938 88.4785 90.2579 87.2139 90.6549 85.7324C91.0518 84.2509 90.8491 82.6738 90.0914 81.3479C89.3336 80.0221 88.0828 79.0561 86.6142 78.6626ZM117.26 92.8614C112.617 110.191 98.5276 118.474 86.4224 115.23C83.561 114.488 80.934 113.032 78.783 110.996C76.6321 108.959 75.0263 106.409 74.1136 103.578L72.3522 110.151L46.8799 103.326L67.8348 25.1212L93.3071 31.9465L85.2245 62.1111C87.4304 60.116 90.0964 58.7098 92.9773 58.0219C95.8582 57.3339 98.8614 57.3864 101.71 58.1744C113.926 61.4196 122.007 75.5592 117.363 92.889L117.26 92.8614Z" fill="#35ACC0"/>
<path opacity="0.23" d="M164.043 71.5627C163.341 71.395 162.612 71.3729 161.9 71.4977C161.187 71.6225 160.507 71.8916 159.9 72.2888C159.293 72.6859 158.771 73.2028 158.367 73.808C157.964 74.4133 157.685 75.0944 157.55 75.8099C157.271 76.4991 157.14 77.2395 157.166 77.9821C157.193 78.7247 157.375 79.4525 157.702 80.1172C158.029 80.7819 158.493 81.3683 159.063 81.8376C159.633 82.3068 160.296 82.6482 161.008 82.8389C161.72 83.0297 162.465 83.0656 163.193 82.9442C163.921 82.8228 164.616 82.5469 165.232 82.1347C165.847 81.7226 166.37 81.1836 166.764 80.5537C167.158 79.9237 167.415 79.2171 167.517 78.4807C167.757 77.7954 167.857 77.0688 167.811 76.3448C167.765 75.6208 167.574 74.9143 167.25 74.2679C166.925 73.6215 166.474 73.0486 165.922 72.5837C165.371 72.1188 164.732 71.7715 164.043 71.5627ZM154.763 106.196C136.477 101.296 126.779 84.3288 130.97 68.6879C135.161 53.047 152.043 43.2015 170.33 48.1013C188.616 53.0012 198.314 69.9687 194.123 85.6097C189.932 101.251 173.024 111.089 154.763 106.196Z" fill="#35ACC0"/>
<path opacity="0.23" d="M223.808 143.577C221.602 145.572 218.936 146.978 216.055 147.666C213.174 148.354 210.171 148.302 207.322 147.514C196.788 144.691 190.743 134.077 194.481 120.125L203.462 86.6083L228.96 93.4405L221.769 120.28C221.546 120.808 221.435 121.377 221.443 121.95C221.451 122.524 221.578 123.088 221.815 123.608C222.053 124.128 222.396 124.592 222.822 124.969C223.249 125.347 223.749 125.63 224.292 125.801C225.603 125.852 226.889 125.415 227.905 124.572C228.92 123.729 229.593 122.54 229.795 121.233L236.687 95.5109L262.159 102.336L247.491 157.079L222.018 150.254L223.808 143.577Z" fill="#35ACC0"/>
<path opacity="0.23" d="M290.412 144.938C292.618 142.943 295.284 141.537 298.165 140.849C301.046 140.161 304.049 140.213 306.898 141.001C317.432 143.824 323.502 154.445 319.764 168.397L310.79 201.887L285.292 195.055L292.47 168.268C292.67 167.734 292.759 167.164 292.731 166.595C292.702 166.025 292.557 165.468 292.305 164.959C292.053 164.449 291.699 163.998 291.265 163.634C290.831 163.27 290.326 163 289.783 162.842C288.109 162.394 285.288 164.06 284.39 167.412L277.54 192.978L252.067 186.153L266.736 131.409L292.208 138.235L290.412 144.938Z" fill="#35ACC0"/>
<path opacity="0.23" d="M366.084 166.133C367.749 166.471 369.467 166.448 371.125 166.067C372.784 165.685 374.344 164.954 375.704 163.921L386.491 183.52C382.382 186.454 377.672 188.418 372.713 189.264C367.754 190.11 362.674 189.816 357.853 188.405C339.592 183.512 329.895 166.545 334.086 150.904C338.277 135.263 355.159 125.417 373.419 130.31C378.3 131.499 382.846 133.784 386.718 136.997C390.589 140.209 393.687 144.264 395.778 148.86L376.637 160.44C375.989 158.881 375.024 157.477 373.803 156.32C372.582 155.163 371.132 154.278 369.548 153.723C368.703 153.344 367.786 153.155 366.859 153.168C365.933 153.181 365.02 153.397 364.183 153.8C363.346 154.203 362.605 154.784 362.011 155.503C361.417 156.222 360.984 157.061 360.742 157.963C360.5 158.865 360.456 159.808 360.611 160.728C360.766 161.647 361.117 162.521 361.641 163.288C362.164 164.056 362.847 164.699 363.642 165.174C364.438 165.649 365.327 165.943 366.248 166.038L366.084 166.133Z" fill="#35ACC0"/>
<path opacity="0.23" d="M428.965 141.936L440.04 144.903C440.437 143.422 440.234 141.844 439.476 140.519C438.718 139.193 437.468 138.227 435.999 137.833C434.53 137.44 432.964 137.651 431.645 138.42C430.326 139.19 429.362 140.454 428.965 141.936ZM428.179 153.727C428.179 153.727 428.783 158.066 435.995 159.998C439.343 160.753 442.828 160.663 446.141 159.737L450.51 178.869C442.551 181.161 434.126 181.179 426.177 178.921C407.89 174.021 398.192 157.054 402.383 141.413C406.727 125.2 422.89 115.775 440.636 120.529C458.381 125.284 467.665 141.529 463.648 156.52C463.152 158.647 462.212 160.645 460.891 162.381L428.179 153.727Z" fill="#35ACC0"/>
</g>
<g opacity="0.36">
<path opacity="0.36" d="M84.7697 75.2445C83.3011 74.851 81.7349 75.0621 80.4157 75.8314C79.0965 76.6007 78.1324 77.8652 77.7355 79.3468C77.3385 80.8283 77.5412 82.4054 78.299 83.7313C79.0567 85.0571 80.3075 86.0231 81.7761 86.4166C83.2448 86.8101 84.8109 86.599 86.1301 85.8296C87.4493 85.0603 88.4134 83.7958 88.8104 82.3143C89.2074 80.8328 89.0047 79.2556 88.2469 77.9298C87.4891 76.6039 86.2383 75.638 84.7697 75.2445ZM115.416 89.4432C110.772 106.773 96.6831 115.055 84.578 111.812C81.7166 111.07 79.0895 109.614 76.9386 107.577C74.7876 105.541 73.1819 102.99 72.2691 100.16L70.4729 106.863L45.0006 100.038L65.9903 21.703L91.4626 28.5283L83.38 58.693C85.5859 56.6979 88.252 55.2916 91.1328 54.6037C94.0137 53.9158 97.0169 53.9683 99.866 54.7563C112.081 58.0015 120.156 72.1671 115.519 89.4708L115.416 89.4432Z" fill="#3F9AC2"/>
<path opacity="0.36" d="M162.199 68.1446C161.497 67.9769 160.767 67.9548 160.055 68.0796C159.343 68.2044 158.662 68.4735 158.055 68.8706C157.448 69.2677 156.927 69.7846 156.523 70.3899C156.119 70.9951 155.841 71.6762 155.706 72.3918C155.426 73.0809 155.296 73.8214 155.322 74.564C155.348 75.3066 155.531 76.0343 155.858 76.699C156.185 77.3638 156.649 77.9502 157.219 78.4194C157.789 78.8887 158.452 79.23 159.164 79.4208C159.876 79.6116 160.621 79.6475 161.349 79.5261C162.077 79.4046 162.772 79.1287 163.387 78.7166C164.003 78.3044 164.525 77.7655 164.919 77.1355C165.313 76.5056 165.57 75.7989 165.673 75.0626C165.913 74.3772 166.013 73.6507 165.967 72.9267C165.921 72.2027 165.73 71.4962 165.405 70.8498C165.08 70.2034 164.629 69.6305 164.078 69.1656C163.527 68.7006 162.888 68.3533 162.199 68.1446ZM152.912 102.804C134.625 97.9042 124.935 80.9107 129.126 65.2697C133.317 49.6288 150.199 39.7833 168.485 44.6832C186.772 49.583 196.47 66.5506 192.279 82.1915C188.088 97.8325 171.173 107.697 152.912 102.804Z" fill="#3F9AC2"/>
<path opacity="0.36" d="M221.963 140.159C219.757 142.154 217.091 143.56 214.21 144.248C211.329 144.936 208.326 144.883 205.477 144.095C194.943 141.273 188.891 130.685 192.637 116.706L201.617 83.1902L227.116 90.0223L219.924 116.861C219.706 117.398 219.603 117.975 219.622 118.554C219.64 119.133 219.78 119.7 220.032 120.22C220.284 120.74 220.641 121.199 221.082 121.569C221.523 121.939 222.037 122.21 222.59 122.365C223.875 122.382 225.124 121.931 226.109 121.095C227.094 120.258 227.747 119.094 227.95 117.815L234.842 92.0927L260.315 98.918L245.611 153.791L220.139 146.966L221.963 140.159Z" fill="#3F9AC2"/>
<path opacity="0.36" d="M288.568 141.52C290.773 139.525 293.439 138.119 296.32 137.431C299.201 136.743 302.204 136.795 305.054 137.583C315.588 140.406 321.658 151.027 317.913 165.005L308.911 198.599L283.413 191.767L290.625 164.85C290.843 164.313 290.946 163.736 290.927 163.158C290.909 162.579 290.769 162.011 290.518 161.491C290.266 160.972 289.908 160.512 289.467 160.142C289.026 159.773 288.512 159.501 287.959 159.346C286.671 159.323 285.416 159.771 284.426 160.606C283.437 161.441 282.778 162.607 282.574 163.89L275.66 189.69L250.188 182.864L264.891 127.991L290.364 134.817L288.568 141.52Z" fill="#3F9AC2"/>
<path opacity="0.36" d="M364.24 162.715C365.904 163.053 367.623 163.03 369.281 162.649C370.939 162.267 372.5 161.536 373.859 160.503L384.646 180.102C380.539 183.043 375.829 185.013 370.868 185.864C365.908 186.714 360.825 186.424 356.002 185.013C337.741 180.12 328.05 163.127 332.241 147.486C336.432 131.845 353.314 121.999 371.575 126.892C376.458 128.082 381.005 130.372 384.875 133.589C388.746 136.806 391.841 140.867 393.926 145.468L374.785 157.047C374.134 155.493 373.166 154.094 371.944 152.941C370.722 151.789 369.273 150.908 367.689 150.356C366.843 149.964 365.921 149.763 364.988 149.768C364.055 149.772 363.133 149.982 362.287 150.383C361.442 150.783 360.692 151.365 360.091 152.087C359.491 152.809 359.053 153.654 358.81 154.563C358.566 155.472 358.523 156.422 358.682 157.348C358.841 158.273 359.199 159.152 359.731 159.922C360.264 160.692 360.957 161.335 361.763 161.805C362.568 162.276 363.467 162.563 364.396 162.646L364.24 162.715Z" fill="#3F9AC2"/>
<path opacity="0.36" d="M427.113 138.543L438.188 141.511C438.585 140.029 438.382 138.452 437.625 137.126C436.867 135.801 435.616 134.835 434.147 134.441C432.679 134.048 431.113 134.259 429.794 135.028C428.474 135.797 427.51 137.062 427.113 138.543ZM426.335 150.309C426.335 150.309 426.939 154.648 434.15 156.58C437.499 157.335 440.983 157.245 444.296 156.319L448.666 175.451C440.708 177.76 432.278 177.787 424.325 175.529C406.039 170.629 396.348 153.636 400.539 137.995C404.876 121.808 421.045 112.356 438.791 117.111C456.537 121.866 465.814 138.136 461.769 153.232C461.272 155.359 460.332 157.356 459.012 159.093L426.335 150.309Z" fill="#3F9AC2"/>
</g>
<g opacity="0.49">
<path opacity="0.49" d="M82.925 71.8264C81.4924 71.5462 80.0053 71.825 78.7643 72.6065C77.5233 73.3879 76.621 74.6138 76.2399 76.0361C75.8588 77.4585 76.0272 78.9712 76.7112 80.2685C77.3952 81.5658 78.5437 82.5508 79.9245 83.0244C81.3571 83.3047 82.8443 83.0258 84.0853 82.2443C85.3263 81.4629 86.2286 80.237 86.6097 78.8147C86.9908 77.3924 86.8223 75.8796 86.1383 74.5823C85.4543 73.2851 84.3058 72.3 82.925 71.8264ZM113.571 86.0251C108.928 103.355 94.8385 111.637 82.7333 108.394C79.8719 107.652 77.2448 106.196 75.0939 104.159C72.9429 102.123 71.3372 99.5723 70.4244 96.7416L68.6283 103.445L43.1559 96.6195L64.1456 18.2849L89.618 25.1102L81.5284 55.3009C83.7343 53.3058 86.4003 51.8995 89.2812 51.2116C92.1621 50.5237 95.1653 50.5761 98.0143 51.3642C110.229 54.6094 118.311 68.749 113.674 86.0527L113.571 86.0251Z" fill="#4887C3"/>
<path opacity="0.49" d="M160.354 64.7264C159.652 64.5587 158.923 64.5366 158.21 64.6614C157.498 64.7862 156.818 65.0553 156.211 65.4524C155.604 65.8495 155.082 66.3664 154.678 66.9717C154.274 67.5769 153.996 68.258 153.861 68.9736C153.582 69.6627 153.451 70.4031 153.477 71.1457C153.504 71.8883 153.686 72.6161 154.013 73.2808C154.34 73.9455 154.804 74.5319 155.374 75.0012C155.944 75.4704 156.607 75.8118 157.319 76.0026C158.031 76.1934 158.776 76.2292 159.504 76.1078C160.232 75.9864 160.927 75.7105 161.543 75.2983C162.158 74.8862 162.68 74.3473 163.074 73.7173C163.469 73.0873 163.725 72.3807 163.828 71.6443C164.068 70.959 164.168 70.2325 164.122 69.5085C164.076 68.7844 163.885 68.078 163.56 67.4316C163.236 66.7852 162.784 66.2122 162.233 65.7473C161.682 65.2824 161.043 64.9351 160.354 64.7264ZM151.067 99.3858C132.781 94.486 123.083 77.5184 127.281 61.8515C131.479 46.1846 148.354 36.3651 166.641 41.265C184.927 46.1648 194.625 63.1324 190.434 78.7733C186.243 94.4142 169.328 104.279 151.067 99.3858Z" fill="#4887C3"/>
<path opacity="0.49" d="M220.118 136.74C217.912 138.736 215.246 140.142 212.366 140.83C209.485 141.518 206.482 141.465 203.632 140.677C193.098 137.855 187.047 127.266 190.792 113.288L199.766 79.7979L225.264 86.6301L218.079 113.443C217.862 113.98 217.759 114.557 217.777 115.136C217.796 115.714 217.936 116.282 218.187 116.802C218.439 117.321 218.797 117.781 219.238 118.151C219.679 118.52 220.192 118.792 220.745 118.947C222.03 118.964 223.28 118.512 224.264 117.676C225.249 116.84 225.903 115.676 226.105 114.396L232.991 88.7004L258.463 95.5257L243.795 150.269L218.322 143.444L220.118 136.74Z" fill="#4887C3"/>
<path opacity="0.49" d="M286.716 138.128C288.922 136.133 291.588 134.726 294.469 134.038C297.35 133.351 300.353 133.403 303.202 134.191C313.736 137.014 319.813 147.609 316.068 161.587L307.087 195.103L281.589 188.271L288.781 161.432C288.998 160.895 289.101 160.318 289.083 159.739C289.064 159.161 288.925 158.593 288.673 158.073C288.421 157.554 288.063 157.094 287.622 156.724C287.182 156.355 286.668 156.083 286.115 155.928C284.837 155.906 283.591 156.348 282.605 157.172C281.619 157.997 280.958 159.149 280.743 160.42L273.858 186.116L248.385 179.29L263.04 124.599L288.512 131.424L286.716 138.128Z" fill="#4887C3"/>
<path opacity="0.49" d="M362.395 159.297C364.065 159.629 365.788 159.599 367.449 159.209C369.11 158.819 370.671 158.077 372.029 157.033L382.816 176.631C378.709 179.573 373.998 181.543 369.038 182.394C364.077 183.244 358.994 182.953 354.171 181.543C335.91 176.65 326.212 159.682 330.41 144.016C334.608 128.349 351.483 118.529 369.744 123.422C374.627 124.612 379.174 126.902 383.045 130.119C386.916 133.336 390.01 137.397 392.096 141.998L372.955 153.577C372.275 152.023 371.277 150.633 370.026 149.496C368.775 148.36 367.299 147.503 365.695 146.982C364.849 146.589 363.927 146.388 362.994 146.393C362.061 146.397 361.139 146.607 360.293 147.008C359.447 147.409 358.698 147.99 358.097 148.713C357.496 149.435 357.059 150.28 356.815 151.188C356.572 152.097 356.528 153.047 356.687 153.973C356.847 154.899 357.205 155.777 357.737 156.547C358.269 157.317 358.962 157.96 359.768 158.43C360.574 158.901 361.473 159.188 362.402 159.271L362.395 159.297Z" fill="#4887C3"/>
<path opacity="0.49" d="M425.276 135.099L436.35 138.067C436.747 136.585 436.545 135.008 435.787 133.682C435.029 132.356 433.778 131.39 432.31 130.997C430.841 130.603 429.275 130.815 427.956 131.584C426.637 132.353 425.673 133.618 425.276 135.099ZM424.497 146.865C424.497 146.865 425.094 151.23 432.306 153.162C435.658 153.915 439.146 153.816 442.458 152.875L446.828 172.007C438.87 174.316 430.44 174.343 422.487 172.085C404.201 167.185 394.503 150.217 398.701 134.551C403.038 118.364 419.208 108.912 436.953 113.667C454.699 118.422 463.941 134.822 459.938 149.762C459.442 151.888 458.502 153.886 457.181 155.622L424.497 146.865Z" fill="#4887C3"/>
</g>
<g opacity="0.61">
<path opacity="0.61" d="M81.0736 68.4341C80.3473 68.1767 79.5736 68.0812 78.8058 68.1541C78.0379 68.227 77.2941 68.4667 76.6256 68.8565C75.9571 69.2464 75.3797 69.7772 74.9332 70.4125C74.4868 71.0478 74.1818 71.7724 74.0394 72.5364C73.7807 73.2693 73.6825 74.0493 73.7515 74.8227C73.8206 75.5961 74.0551 76.3445 74.4392 77.0164C74.8232 77.6883 75.3475 78.2677 75.976 78.7148C76.6045 79.1619 77.3224 79.466 78.08 79.6062C78.8063 79.8636 79.58 79.9592 80.3479 79.8863C81.1158 79.8133 81.8595 79.5737 82.5281 79.1838C83.1966 78.7939 83.7739 78.2631 84.2204 77.6279C84.6669 76.9926 84.9718 76.268 85.1143 75.5039C85.3729 74.771 85.4711 73.991 85.4021 73.2176C85.3331 72.4442 85.0985 71.6958 84.7145 71.024C84.3305 70.3521 83.8061 69.7726 83.1776 69.3255C82.5491 68.8785 81.8313 68.5743 81.0736 68.4341ZM111.72 82.6329C107.083 99.9366 92.987 108.245 80.8819 105.002C78.0194 104.262 75.3912 102.806 73.2399 100.77C71.0886 98.7334 69.4836 96.1813 68.573 93.3493L66.7699 100.079L41.2975 93.2533L62.2942 14.8927L87.7665 21.718L79.6839 51.8827C81.8898 49.8875 84.5559 48.4813 87.4367 47.7934C90.3176 47.1054 93.3208 47.1579 96.1699 47.9459C108.385 51.1911 116.466 65.3307 111.823 82.6605L111.72 82.6329Z" fill="#5174C4"/>
<path opacity="0.61" d="M158.503 61.3342C157.801 61.1665 157.071 61.1443 156.359 61.2692C155.647 61.394 154.966 61.6631 154.359 62.0602C153.752 62.4573 153.231 62.9742 152.827 63.5794C152.423 64.1847 152.145 64.8658 152.009 65.5814C151.73 66.2705 151.6 67.0109 151.626 67.7535C151.652 68.4961 151.835 69.2239 152.162 69.8886C152.489 70.5533 152.953 71.1398 153.523 71.609C154.093 72.0782 154.756 72.4196 155.468 72.6104C156.18 72.8012 156.924 72.837 157.653 72.7156C158.381 72.5942 159.076 72.3183 159.691 71.9061C160.307 71.494 160.829 70.9551 161.223 70.3251C161.617 69.6951 161.874 68.9885 161.977 68.2521C162.217 67.5668 162.317 66.8403 162.271 66.1163C162.225 65.3922 162.034 64.6858 161.709 64.0394C161.384 63.393 160.933 62.82 160.382 62.3551C159.831 61.8902 159.192 61.5429 158.503 61.3342ZM149.223 95.9677C130.936 91.0678 121.239 74.1003 125.43 58.4593C129.621 42.8184 146.51 32.9469 164.796 37.8468C183.083 42.7466 192.78 59.7142 188.582 75.3811C184.385 91.048 167.484 100.861 149.223 95.9677Z" fill="#5174C4"/>
<path opacity="0.61" d="M218.274 133.322C216.069 135.32 213.403 136.727 210.522 137.415C207.641 138.103 204.637 138.05 201.788 137.259C191.254 134.436 185.209 123.822 188.955 109.844L197.921 76.3797L223.419 83.2119L216.235 110.025C216.017 110.562 215.914 111.139 215.933 111.717C215.951 112.296 216.091 112.864 216.343 113.384C216.594 113.903 216.952 114.363 217.393 114.733C217.834 115.102 218.348 115.374 218.901 115.529C220.186 115.545 221.435 115.094 222.42 114.258C223.404 113.422 224.058 112.257 224.261 110.978L231.146 85.2823L256.619 92.1075L241.943 146.877L216.471 140.052L218.274 133.322Z" fill="#5174C4"/>
<path opacity="0.61" d="M284.871 134.709C287.077 132.714 289.743 131.308 292.624 130.62C295.505 129.932 298.508 129.985 301.357 130.773C311.891 133.595 317.969 144.19 314.223 158.169L305.243 191.685L279.745 184.853L286.936 158.014C287.154 157.477 287.257 156.9 287.238 156.321C287.22 155.742 287.08 155.175 286.828 154.655C286.577 154.135 286.219 153.676 285.778 153.306C285.337 152.936 284.823 152.665 284.27 152.51C282.967 152.484 281.698 152.94 280.702 153.792C279.706 154.643 279.052 155.831 278.863 157.132L271.971 182.853L246.499 176.028L261.195 121.181L286.668 128.006L284.871 134.709Z" fill="#5174C4"/>
<path opacity="0.61" d="M360.551 155.879C362.206 156.224 363.918 156.213 365.572 155.845C367.226 155.477 368.786 154.761 370.149 153.745L380.936 173.343C376.829 176.285 372.119 178.255 367.158 179.105C362.198 179.956 357.115 179.665 352.291 178.255C334.031 173.362 324.333 156.394 328.524 140.753C332.715 125.112 349.604 115.241 367.865 120.134C372.747 121.324 377.294 123.613 381.165 126.83C385.036 130.047 388.13 134.109 390.216 138.71L371.075 150.289C370.395 148.735 369.398 147.345 368.147 146.208C366.896 145.072 365.42 144.215 363.816 143.693C362.964 143.353 362.051 143.194 361.133 143.224C360.216 143.255 359.314 143.475 358.483 143.871C357.652 144.267 356.91 144.831 356.303 145.527C355.696 146.224 355.237 147.038 354.954 147.919C354.778 148.816 354.785 149.74 354.974 150.633C355.163 151.526 355.53 152.371 356.053 153.115C356.577 153.859 357.245 154.488 358.018 154.963C358.791 155.438 359.653 155.75 360.551 155.879Z" fill="#5174C4"/>
<path opacity="0.61" d="M423.396 131.811L434.471 134.778C434.868 133.297 434.666 131.72 433.908 130.394C433.15 129.068 431.899 128.102 430.431 127.709C428.962 127.315 427.396 127.526 426.077 128.296C424.757 129.065 423.793 130.329 423.396 131.811ZM422.618 143.576C422.618 143.576 423.215 147.941 430.427 149.874C433.778 150.626 437.267 150.528 440.579 149.587L444.949 168.719C436.991 171.028 428.561 171.055 420.608 168.796C402.322 163.897 392.624 146.929 396.815 131.288C401.159 115.076 417.328 105.624 435.074 110.379C452.82 115.134 462.097 131.404 458.052 146.499C457.556 148.617 456.619 150.606 455.302 152.334L422.618 143.576Z" fill="#5174C4"/>
</g>
<g opacity="0.74">
<path opacity="0.74" d="M79.2289 65.0158C78.5027 64.7584 77.729 64.6629 76.9611 64.7358C76.1932 64.8087 75.4494 65.0484 74.7809 65.4382C74.1124 65.8281 73.535 66.3589 73.0886 66.9942C72.6421 67.6295 72.3372 68.3541 72.1947 69.1181C71.936 69.851 71.8378 70.631 71.9069 71.4044C71.9759 72.1778 72.2105 72.9262 72.5945 73.5981C72.9785 74.27 73.5028 74.8494 74.1314 75.2965C74.7599 75.7436 75.4777 76.0477 76.2354 76.1879C76.9617 76.4453 77.7354 76.5409 78.5032 76.4679C79.2711 76.395 80.0149 76.1554 80.6834 75.7655C81.3519 75.3756 81.9293 74.8448 82.3757 74.2095C82.8222 73.5743 83.1271 72.8497 83.2696 72.0856C83.5283 71.3527 83.6265 70.5727 83.5574 69.7993C83.4884 69.0259 83.2538 68.2775 82.8698 67.6056C82.4858 66.9337 81.9615 66.3543 81.333 65.9072C80.7044 65.4602 79.9866 65.156 79.2289 65.0158ZM109.875 79.2146C105.232 96.5443 91.1423 104.827 79.0372 101.583C76.1758 100.841 73.5487 99.385 71.3978 97.3488C69.2468 95.3126 67.6411 92.7618 66.7283 89.931L64.9322 96.6343L39.4598 89.809L60.4495 11.4744L85.9219 18.2997L77.8393 48.4643C80.0451 46.4692 82.7112 45.063 85.5921 44.3751C88.4729 43.6871 91.4761 43.7396 94.3252 44.5276C106.54 47.7728 114.622 61.9124 109.978 79.2422L109.875 79.2146Z" fill="#5A61C5"/>
<path opacity="0.74" d="M156.658 57.9159C155.956 57.7482 155.227 57.7261 154.514 57.8509C153.802 57.9757 153.122 58.2448 152.515 58.642C151.907 59.0391 151.386 59.556 150.982 60.1612C150.578 60.7665 150.3 61.4476 150.165 62.1631C149.886 62.8523 149.755 63.5927 149.781 64.3353C149.807 65.0779 149.99 65.8057 150.317 66.4704C150.644 67.1351 151.108 67.7215 151.678 68.1908C152.248 68.66 152.911 69.0014 153.623 69.1921C154.335 69.3829 155.08 69.4188 155.808 69.2974C156.536 69.176 157.231 68.9001 157.847 68.4879C158.462 68.0758 158.984 67.5368 159.378 66.9069C159.772 66.2769 160.029 65.5703 160.132 64.8339C160.372 64.1486 160.472 63.422 160.426 62.698C160.38 61.974 160.189 61.2675 159.864 60.6211C159.54 59.9747 159.088 59.4018 158.537 58.9369C157.986 58.472 157.347 58.1247 156.658 57.9159ZM147.378 92.5494C129.092 87.6496 119.394 70.682 123.585 55.0411C127.776 39.4002 144.658 29.5547 162.945 34.4545C181.231 39.3544 190.929 56.3219 186.738 71.9629C182.547 87.6038 165.639 97.4424 147.378 92.5494Z" fill="#5A61C5"/>
<path opacity="0.74" d="M216.422 129.93C214.216 131.925 211.55 133.331 208.669 134.019C205.789 134.707 202.785 134.655 199.936 133.867C189.402 131.044 183.358 120.43 187.103 106.452L196.077 72.9615L221.575 79.7937L214.39 106.607C214.173 107.144 214.07 107.72 214.088 108.299C214.107 108.878 214.246 109.446 214.498 109.965C214.75 110.485 215.108 110.945 215.549 111.314C215.989 111.684 216.503 111.955 217.056 112.111C218.341 112.127 219.59 111.676 220.575 110.84C221.56 110.004 222.214 108.839 222.416 107.56L229.302 81.8641L254.774 88.6894L240.098 143.459L214.626 136.633L216.422 129.93Z" fill="#5A61C5"/>
<path opacity="0.74" d="M283.027 131.291C285.233 129.296 287.899 127.89 290.78 127.202C293.66 126.514 296.664 126.566 299.513 127.355C310.047 130.177 316.117 140.798 312.379 154.75L303.398 188.267L277.9 181.434L285.091 154.595C285.309 154.059 285.412 153.482 285.394 152.903C285.375 152.324 285.235 151.756 284.984 151.237C284.732 150.717 284.374 150.258 283.933 149.888C283.492 149.518 282.979 149.247 282.426 149.091C281.137 149.068 279.883 149.516 278.893 150.351C277.903 151.186 277.245 152.353 277.04 153.635L270.148 179.357L244.675 172.532L259.351 117.763L284.823 124.588L283.027 131.291Z" fill="#5A61C5"/>
<path opacity="0.74" d="M358.706 152.461C360.371 152.798 362.089 152.775 363.747 152.394C365.405 152.013 366.966 151.281 368.326 150.248L379.113 169.847C375.004 172.781 370.293 174.745 365.334 175.591C360.375 176.437 355.296 176.144 350.475 174.732C332.214 169.84 322.516 152.872 326.707 137.231C330.898 121.59 347.78 111.745 366.041 116.638C370.922 117.826 375.468 120.112 379.339 123.324C383.211 126.536 386.308 130.592 388.399 135.187L369.258 146.767C368.607 145.212 367.64 143.813 366.417 142.661C365.195 141.508 363.746 140.628 362.163 140.076C361.311 139.736 360.398 139.576 359.48 139.607C358.563 139.637 357.661 139.857 356.83 140.254C355.999 140.65 355.257 141.214 354.65 141.91C354.043 142.606 353.584 143.42 353.301 144.301C353.094 145.199 353.071 146.129 353.234 147.034C353.397 147.94 353.742 148.801 354.248 149.566C354.755 150.33 355.411 150.981 356.178 151.479C356.945 151.977 357.805 152.311 358.706 152.461Z" fill="#5A61C5"/>
<path opacity="0.74" d="M421.58 128.289L432.654 131.256C433.051 129.775 432.849 128.198 432.091 126.872C431.333 125.546 430.082 124.58 428.614 124.186C427.145 123.793 425.579 124.004 424.26 124.773C422.941 125.543 421.976 126.807 421.58 128.289ZM420.801 140.054C420.801 140.054 421.398 144.419 428.61 146.352C431.962 147.104 435.45 147.006 438.762 146.065L443.125 165.223C435.166 167.515 426.74 167.532 418.791 165.274C400.505 160.375 390.807 143.407 394.998 127.766C399.342 111.554 415.505 102.128 433.25 106.883C450.996 111.638 460.308 127.778 456.235 142.977C455.74 145.095 454.802 147.084 453.485 148.812L420.801 140.054Z" fill="#5A61C5"/>
</g>
<g opacity="0.87">
<path opacity="0.87" d="M77.3844 61.5977C76.6581 61.3403 75.8844 61.2447 75.1165 61.3177C74.3487 61.3906 73.6049 61.6302 72.9364 62.0201C72.2679 62.41 71.6905 62.9408 71.244 63.5761C70.7976 64.2113 70.4926 64.9359 70.3501 65.7C70.0915 66.4329 69.9933 67.2129 70.0623 67.9863C70.1313 68.7597 70.3659 69.5081 70.7499 70.18C71.134 70.8518 71.6583 71.4313 72.2868 71.8784C72.9153 72.3254 73.6332 72.6296 74.3908 72.7698C75.1171 73.0272 75.8908 73.1227 76.6587 73.0498C77.4265 72.9769 78.1703 72.7372 78.8388 72.3474C79.5074 71.9575 80.0847 71.4267 80.5312 70.7914C80.9776 70.1561 81.2826 69.4315 81.4251 68.6675C81.6837 67.9346 81.7819 67.1546 81.7129 66.3812C81.6439 65.6078 81.4093 64.8594 81.0253 64.1875C80.6413 63.5156 80.1169 62.9362 79.4884 62.4891C78.8599 62.042 78.1421 61.7379 77.3844 61.5977ZM108.031 75.7964C103.387 93.1262 89.2978 101.409 77.1926 98.1651C74.3312 97.423 71.7042 95.9669 69.5532 93.9307C67.4023 91.8945 65.7965 89.3436 64.8838 86.5129L63.0876 93.2161L37.6153 86.3908L58.605 8.05624L84.0773 14.8815L75.9947 45.0462C78.2006 43.0511 80.8666 41.6449 83.7475 40.9569C86.6284 40.269 89.6316 40.3215 92.4807 41.1095C104.696 44.3547 112.777 58.4943 108.134 75.824L108.031 75.7964Z" fill="#644FC7"/>
<path opacity="0.87" d="M154.814 54.4978C154.111 54.3301 153.382 54.308 152.67 54.4328C151.957 54.5576 151.277 54.8267 150.67 55.2238C150.063 55.6209 149.542 56.1378 149.138 56.7431C148.734 57.3483 148.456 58.0294 148.32 58.745C148.041 59.4341 147.91 60.1746 147.937 60.9172C147.963 61.6598 148.146 62.3875 148.473 63.0523C148.8 63.717 149.263 64.3034 149.833 64.7726C150.403 65.2419 151.066 65.5832 151.778 65.774C152.49 65.9648 153.235 66.0007 153.963 65.8793C154.692 65.7578 155.387 65.4819 156.002 65.0698C156.618 64.6576 157.14 64.1187 157.534 63.4887C157.928 62.8588 158.185 62.1521 158.288 61.4158C158.528 60.7305 158.628 60.0039 158.581 59.2799C158.535 58.5559 158.344 57.8494 158.02 57.203C157.695 56.5566 157.244 55.9837 156.693 55.5188C156.142 55.0538 155.502 54.7065 154.814 54.4978ZM145.534 89.1313C127.247 84.2314 117.549 67.2639 121.74 51.623C125.931 35.982 142.814 26.1365 161.1 31.0364C179.387 35.9362 189.084 52.9038 184.893 68.5447C180.702 84.1857 163.794 94.0242 145.534 89.1313Z" fill="#644FC7"/>
<path opacity="0.87" d="M214.578 126.512C212.372 128.507 209.706 129.913 206.825 130.601C203.944 131.289 200.941 131.237 198.092 130.449C187.558 127.626 181.513 117.012 185.252 103.06L194.232 69.5434L219.73 76.3756L212.553 103.163C212.335 103.7 212.232 104.276 212.251 104.855C212.269 105.434 212.409 106.002 212.66 106.521C212.912 107.041 213.27 107.501 213.711 107.87C214.152 108.24 214.666 108.511 215.219 108.667C216.493 108.682 217.733 108.236 218.714 107.411C219.695 106.586 220.351 105.435 220.565 104.168L227.457 78.4459L252.929 85.2712L238.254 140.04L212.782 133.215L214.578 126.512Z" fill="#644FC7"/>
<path opacity="0.87" d="M281.182 127.873C283.388 125.878 286.054 124.472 288.935 123.784C291.816 123.096 294.819 123.148 297.668 123.936C308.202 126.759 314.273 137.38 310.527 151.358L301.547 184.875L276.049 178.042L283.24 151.203C283.458 150.666 283.561 150.09 283.542 149.511C283.524 148.932 283.384 148.364 283.132 147.845C282.881 147.325 282.523 146.865 282.082 146.496C281.641 146.126 281.127 145.855 280.574 145.699C279.286 145.676 278.031 146.124 277.041 146.959C276.051 147.794 275.393 148.961 275.188 150.243L268.303 175.939L242.831 169.114L257.506 114.345L282.978 121.17L281.182 127.873Z" fill="#644FC7"/>
<path opacity="0.87" d="M356.854 149.068C358.519 149.406 360.237 149.383 361.895 149.002C363.554 148.62 365.114 147.889 366.474 146.856L377.261 166.455C373.152 169.389 368.442 171.353 363.483 172.199C358.524 173.045 353.444 172.751 348.623 171.34C330.362 166.447 320.665 149.48 324.856 133.839C329.047 118.198 345.929 108.352 364.19 113.245C369.07 114.434 373.616 116.719 377.488 119.932C381.359 123.144 384.457 127.199 386.548 131.795L367.407 143.375C366.756 141.82 365.788 140.421 364.566 139.268C363.344 138.116 361.894 137.235 360.311 136.684C359.461 136.344 358.55 136.184 357.635 136.214C356.72 136.243 355.819 136.461 354.989 136.855C354.159 137.248 353.418 137.809 352.81 138.502C352.202 139.195 351.742 140.005 351.456 140.883C351.245 141.782 351.219 142.714 351.379 143.622C351.54 144.53 351.884 145.395 352.39 146.162C352.896 146.929 353.553 147.583 354.321 148.083C355.089 148.583 355.951 148.918 356.854 149.068Z" fill="#644FC7"/>
<path opacity="0.87" d="M419.728 124.897L430.803 127.864C431.2 126.383 430.997 124.805 430.239 123.48C429.482 122.154 428.231 121.188 426.762 120.794C425.294 120.401 423.727 120.612 422.408 121.381C421.089 122.151 420.125 123.415 419.728 124.897ZM418.949 136.662C418.949 136.662 419.553 141.001 426.765 142.933C430.113 143.688 433.598 143.598 436.911 142.672L441.28 161.804C433.321 164.096 424.896 164.114 416.947 161.856C398.66 156.956 388.962 139.989 393.153 124.348C397.498 108.135 413.66 98.7096 431.406 103.465C449.151 108.219 458.428 124.49 454.391 139.559C453.894 141.686 452.954 143.684 451.633 145.42L418.949 136.662Z" fill="#644FC7"/>
</g>
<path d="M75.5607 58.1015C74.8344 57.8441 74.0607 57.7486 73.2928 57.8215C72.525 57.8944 71.7812 58.1341 71.1127 58.5239C70.4441 58.9138 69.8668 59.4446 69.4203 60.0799C68.9739 60.7152 68.6689 61.4398 68.5264 62.2038C68.2542 62.9397 68.1448 63.7261 68.2059 64.5077C68.2671 65.2892 68.4972 66.0471 68.8802 66.7282C69.2632 67.4093 69.7899 67.997 70.4232 68.4502C71.0565 68.9033 71.7811 69.211 72.5462 69.3516C73.2725 69.609 74.0462 69.7045 74.8141 69.6316C75.5819 69.5587 76.3257 69.319 76.9942 68.9292C77.6628 68.5393 78.2401 68.0084 78.6866 67.3732C79.133 66.7379 79.438 66.0133 79.5805 65.2493C79.8527 64.5133 79.9621 63.727 79.901 62.9454C79.8398 62.1638 79.6097 61.4059 79.2267 60.7249C78.8437 60.0438 78.317 59.4561 77.6837 59.0029C77.0504 58.5497 76.3258 58.2421 75.5607 58.1015ZM106.207 72.3003C101.563 89.63 87.4741 97.9125 75.3689 94.669C72.5075 93.9269 69.8805 92.4707 67.7295 90.4345C65.5786 88.3983 63.9728 85.8475 63.06 83.0167L61.2639 89.72L35.7916 82.8947L56.7604 4.63803L82.2327 11.4633L74.1432 41.654C76.3477 39.6567 79.0138 38.2491 81.8951 37.561C84.7764 36.873 87.7802 36.9267 90.6291 37.7173C102.851 40.9365 110.926 55.1021 106.289 72.4058L106.207 72.3003Z" fill="#6D3CC8"/>
<path d="M152.99 51.0016C152.288 50.8339 151.558 50.8118 150.846 50.9366C150.134 51.0614 149.453 51.3305 148.846 51.7277C148.239 52.1248 147.718 52.6417 147.314 53.2469C146.91 53.8522 146.632 54.5333 146.496 55.2488C146.217 55.938 146.087 56.6784 146.113 57.421C146.139 58.1636 146.322 58.8914 146.649 59.5561C146.976 60.2208 147.44 60.8072 148.01 61.2765C148.58 61.7457 149.243 62.0871 149.955 62.2778C150.667 62.4686 151.411 62.5045 152.14 62.3831C152.868 62.2617 153.563 61.9858 154.178 61.5736C154.794 61.1615 155.316 60.6225 155.71 59.9926C156.104 59.3626 156.361 58.656 156.464 57.9196C156.704 57.2343 156.804 56.5077 156.758 55.7837C156.712 55.0597 156.521 54.3532 156.196 53.7068C155.871 53.0604 155.42 52.4875 154.869 52.0226C154.318 51.5577 153.679 51.2104 152.99 51.0016ZM143.703 85.6611C125.416 80.7613 115.719 63.7937 119.917 48.1268C124.115 32.4599 140.969 22.7183 159.255 27.6182C177.542 32.518 187.24 49.4856 183.049 65.1265C178.858 80.7674 161.943 90.632 143.682 85.7391L143.703 85.6611Z" fill="#6D3CC8"/>
<path d="M212.733 123.094C210.527 125.089 207.861 126.495 204.98 127.183C202.099 127.871 199.096 127.818 196.247 127.03C185.713 124.208 179.661 113.62 183.407 99.6414L192.381 66.1511L217.879 72.9833L210.673 99.8743C210.456 100.411 210.353 100.988 210.371 101.567C210.39 102.146 210.529 102.713 210.781 103.233C211.033 103.752 211.391 104.212 211.832 104.582C212.272 104.952 212.786 105.223 213.339 105.378C214.639 105.397 215.903 104.937 216.894 104.085C217.884 103.233 218.534 102.047 218.72 100.749L225.605 75.0536L251.078 81.8789L236.409 136.622L210.937 129.797L212.733 123.094Z" fill="#6D3CC8"/>
<path d="M279.331 124.481C281.535 122.484 284.201 121.076 287.083 120.388C289.964 119.7 292.968 119.754 295.817 120.544C306.351 123.367 312.421 133.988 308.676 147.966L299.695 181.482L274.197 174.65L281.395 147.785C281.613 147.248 281.716 146.671 281.698 146.093C281.679 145.514 281.539 144.946 281.288 144.427C281.036 143.907 280.678 143.447 280.237 143.078C279.796 142.708 279.283 142.436 278.729 142.281C277.441 142.258 276.187 142.706 275.197 143.541C274.207 144.376 273.548 145.543 273.344 146.825L266.458 172.521L240.986 165.696L255.655 110.952L281.127 117.778L279.331 124.481Z" fill="#6D3CC8"/>
<path d="M355.01 145.65C356.674 145.988 358.393 145.965 360.051 145.584C361.709 145.202 363.27 144.471 364.629 143.438L375.416 163.037C371.31 165.978 366.599 167.948 361.638 168.799C356.678 169.649 351.595 169.358 346.772 167.948C328.511 163.055 318.813 146.088 323.011 130.421C327.209 114.754 343.942 104.952 362.202 109.845C367.085 111.035 371.632 113.324 375.503 116.541C379.374 119.758 382.468 123.819 384.554 128.42L365.413 140C364.762 138.445 363.794 137.046 362.572 135.894C361.349 134.741 359.9 133.861 358.317 133.309C357.467 132.969 356.556 132.809 355.641 132.839C354.725 132.868 353.825 133.087 352.995 133.48C352.165 133.874 351.424 134.434 350.816 135.127C350.208 135.82 349.748 136.63 349.462 137.508C349.258 138.415 349.242 139.354 349.415 140.266C349.588 141.177 349.946 142.043 350.467 142.807C350.988 143.571 351.66 144.218 352.442 144.708C353.224 145.197 354.098 145.518 355.01 145.65Z" fill="#6D3CC8"/>
<path d="M417.883 121.478L428.958 124.446C429.355 122.964 429.152 121.387 428.395 120.061C427.637 118.735 426.386 117.77 424.918 117.376C423.449 116.983 421.883 117.194 420.564 117.963C419.244 118.732 418.28 119.997 417.883 121.478ZM417.105 133.244C417.105 133.244 417.709 137.583 424.92 139.515C428.269 140.27 431.753 140.18 435.066 139.254L439.436 158.386C431.478 160.695 423.048 160.722 415.095 158.464C396.809 153.564 387.111 136.597 391.309 120.93C395.611 104.873 411.815 95.2914 429.561 100.046C447.307 104.801 456.549 121.201 452.546 136.141C452.049 138.268 451.109 140.265 449.789 142.002L417.105 133.244Z" fill="#6D3CC8"/>
<g opacity="0.1">
<path opacity="0.1" d="M65.673 167.119C64.2044 166.725 62.6382 166.936 61.3191 167.706C59.9999 168.475 59.0358 169.739 58.6388 171.221C58.2418 172.703 58.4445 174.28 59.2023 175.606C59.9601 176.931 61.2108 177.897 62.6795 178.291C64.1481 178.684 65.7143 178.473 67.0334 177.704C68.3526 176.935 69.3167 175.67 69.7137 174.189C70.1107 172.707 69.908 171.13 69.1502 169.804C68.3924 168.478 67.1417 167.512 65.673 167.119ZM96.3193 181.317C91.6758 198.647 77.5864 206.93 65.4813 203.686C62.6199 202.944 59.9928 201.488 57.8419 199.452C55.6909 197.416 54.0852 194.865 53.1724 192.034L51.3763 198.737L25.9039 191.912L46.8936 113.577L72.366 120.403L64.2834 150.567C66.4892 148.572 69.1553 147.166 72.0362 146.478C74.917 145.79 77.9202 145.842 80.7693 146.631C92.9844 149.876 101.066 164.015 96.4223 181.345L96.3193 181.317Z" fill="#2CBFBF"/>
<path opacity="0.1" d="M143.102 160.019C142.016 159.598 140.827 159.52 139.692 159.794C138.557 160.069 137.531 160.683 136.747 161.557C135.964 162.43 135.461 163.521 135.304 164.685C135.147 165.85 135.345 167.034 135.87 168.08C136.396 169.126 137.224 169.986 138.247 170.545C139.269 171.105 140.437 171.338 141.597 171.214C142.757 171.091 143.854 170.616 144.743 169.852C145.632 169.088 146.271 168.072 146.576 166.937C146.816 166.251 146.916 165.525 146.87 164.801C146.824 164.077 146.633 163.37 146.308 162.724C145.984 162.078 145.532 161.505 144.981 161.04C144.43 160.575 143.791 160.228 143.102 160.019ZM133.822 194.652C115.536 189.752 105.838 172.785 110.029 157.144C114.22 141.503 131.102 131.658 149.389 136.557C167.675 141.457 177.373 158.425 173.182 174.066C168.991 189.707 152.083 199.545 133.822 194.652Z" fill="#2CBFBF"/>
<path opacity="0.1" d="M202.866 232.033C200.661 234.028 197.994 235.434 195.114 236.122C192.233 236.81 189.23 236.758 186.38 235.97C175.846 233.147 169.802 222.533 173.54 208.581L182.521 175.064L208.019 181.897L200.855 208.632C200.638 209.169 200.535 209.745 200.553 210.324C200.572 210.903 200.711 211.471 200.963 211.99C201.215 212.51 201.573 212.97 202.014 213.339C202.454 213.709 202.968 213.98 203.521 214.136C204.786 214.149 206.017 213.71 206.993 212.895C207.97 212.081 208.629 210.944 208.853 209.689L215.746 183.967L241.218 190.792L226.543 245.561L201.07 238.736L202.866 232.033Z" fill="#2CBFBF"/>
<path opacity="0.1" d="M269.471 233.394C271.677 231.399 274.343 229.993 277.224 229.305C280.105 228.617 283.108 228.669 285.957 229.457C296.491 232.28 302.561 242.901 298.816 256.879L289.835 290.396L264.337 283.563L271.529 256.724C271.746 256.187 271.849 255.611 271.831 255.032C271.812 254.453 271.673 253.885 271.421 253.366C271.169 252.846 270.811 252.386 270.37 252.017C269.93 251.647 269.416 251.376 268.863 251.22C267.575 251.197 266.32 251.645 265.33 252.48C264.34 253.315 263.682 254.482 263.477 255.764L256.592 281.46L231.119 274.635L245.795 219.866L271.267 226.691L269.471 233.394Z" fill="#2CBFBF"/>
<path opacity="0.1" d="M345.143 254.589C346.808 254.927 348.526 254.904 350.184 254.523C351.842 254.142 353.403 253.41 354.763 252.377L365.55 271.976C361.441 274.91 356.731 276.874 351.771 277.72C346.812 278.566 341.733 278.272 336.912 276.861C318.651 271.968 308.953 255.001 313.144 239.36C317.335 223.719 334.218 213.873 352.478 218.766C357.359 219.955 361.905 222.241 365.776 225.453C369.648 228.665 372.745 232.72 374.837 237.316L355.695 248.896C355.044 247.341 354.077 245.942 352.854 244.789C351.632 243.637 350.183 242.756 348.6 242.205C347.753 241.812 346.831 241.611 345.898 241.616C344.965 241.62 344.044 241.83 343.198 242.231C342.352 242.632 341.602 243.213 341.002 243.935C340.401 244.658 339.963 245.502 339.72 246.411C339.477 247.32 339.433 248.27 339.592 249.196C339.751 250.122 340.109 251 340.642 251.77C341.174 252.54 341.867 253.183 342.673 253.653C343.479 254.124 344.378 254.411 345.307 254.494L345.143 254.589Z" fill="#2CBFBF"/>
<path opacity="0.1" d="M408.017 230.418L419.092 233.385C419.489 231.904 419.286 230.326 418.528 229.001C417.77 227.675 416.519 226.709 415.051 226.315C413.582 225.922 412.016 226.133 410.697 226.902C409.378 227.672 408.414 228.936 408.017 230.418ZM407.238 242.183C407.238 242.183 407.842 246.522 415.054 248.454C418.402 249.209 421.887 249.119 425.199 248.193L429.569 267.326C421.61 269.617 413.184 269.635 405.235 267.377C386.949 262.477 377.251 245.51 381.442 229.869C385.786 213.656 401.949 204.231 419.694 208.986C437.44 213.741 446.731 229.959 442.679 245.08C442.183 247.207 441.243 249.205 439.922 250.941L407.238 242.183Z" fill="#2CBFBF"/>
</g>
<g opacity="0.23">
<path opacity="0.23" d="M63.8284 163.7C63.1012 163.506 62.3424 163.457 61.5954 163.558C60.8483 163.659 60.1276 163.907 59.4744 164.287C58.8213 164.668 58.2484 165.175 57.7885 165.778C57.3286 166.381 56.9907 167.069 56.7942 167.803C56.5976 168.536 56.5462 169.301 56.6429 170.053C56.7396 170.806 56.9825 171.531 57.3577 172.187C57.7329 172.844 58.2331 173.419 58.8297 173.88C59.4263 174.34 60.1077 174.678 60.8349 174.873C62.3035 175.266 63.8697 175.055 65.1888 174.286C66.508 173.516 67.4721 172.252 67.8691 170.77C68.2661 169.289 68.0634 167.712 67.3056 166.386C66.5478 165.06 65.297 164.094 63.8284 163.7ZM94.5777 177.927C89.9342 195.257 75.8449 203.539 63.7397 200.296C60.8783 199.553 58.2512 198.097 56.1003 196.061C53.9493 194.025 52.3436 191.474 51.4308 188.643L49.6347 195.347L24.0593 188.494L45.049 110.159L70.5214 116.984L62.4318 147.175C64.6364 145.178 67.3024 143.77 70.1837 143.082C73.0651 142.394 76.0688 142.448 78.9177 143.238C91.1398 146.457 99.2142 160.623 94.5777 177.927Z" fill="#35ACC0"/>
<path opacity="0.23" d="M141.258 156.601C140.171 156.18 138.982 156.102 137.847 156.376C136.713 156.651 135.686 157.265 134.903 158.138C134.119 159.012 133.616 160.103 133.459 161.267C133.303 162.432 133.5 163.615 134.026 164.662C134.551 165.708 135.38 166.567 136.402 167.127C137.425 167.687 138.593 167.92 139.753 167.796C140.912 167.672 142.009 167.197 142.898 166.434C143.787 165.67 144.426 164.653 144.732 163.519C144.972 162.833 145.072 162.107 145.025 161.383C144.979 160.659 144.788 159.952 144.464 159.306C144.139 158.659 143.688 158.086 143.137 157.622C142.586 157.157 141.947 156.809 141.258 156.601ZM131.971 191.26C113.684 186.36 103.986 169.393 108.184 153.726C112.382 138.059 129.271 128.187 147.558 133.087C165.845 137.987 175.528 155.007 171.337 170.647C167.146 186.288 150.231 196.153 131.971 191.26Z" fill="#35ACC0"/>
<path opacity="0.23" d="M201.022 228.615C198.816 230.61 196.15 232.016 193.269 232.704C190.388 233.392 187.385 233.339 184.536 232.551C174.002 229.729 167.95 219.14 171.696 205.162L180.676 171.646L206.174 178.478L198.976 205.343C198.758 205.88 198.655 206.457 198.674 207.036C198.692 207.614 198.832 208.182 199.084 208.702C199.335 209.221 199.693 209.681 200.134 210.051C200.575 210.421 201.089 210.692 201.642 210.847C202.931 210.864 204.186 210.41 205.172 209.569C206.159 208.727 206.812 207.556 207.009 206.27L213.901 180.549L239.373 187.374L224.698 242.143L199.226 235.318L201.022 228.615Z" fill="#35ACC0"/>
<path opacity="0.23" d="M267.619 230.002C269.824 228.005 272.49 226.597 275.371 225.909C278.253 225.221 281.256 225.275 284.105 226.065C294.639 228.888 300.71 239.509 296.964 253.487L287.984 287.003L262.486 280.171L269.684 253.306C269.902 252.769 270.005 252.192 269.986 251.614C269.968 251.035 269.828 250.467 269.576 249.947C269.325 249.428 268.967 248.968 268.526 248.598C268.085 248.229 267.571 247.957 267.018 247.802C265.73 247.779 264.475 248.226 263.485 249.062C262.495 249.897 261.837 251.063 261.632 252.346L254.747 278.042L229.275 271.217L243.95 216.447L269.422 223.273L267.619 230.002Z" fill="#35ACC0"/>
<path opacity="0.23" d="M343.299 251.171C344.963 251.509 346.681 251.486 348.339 251.105C349.998 250.723 351.558 249.992 352.918 248.959L363.705 268.558C359.598 271.499 354.888 273.469 349.927 274.32C344.966 275.17 339.884 274.88 335.06 273.469C316.799 268.576 307.102 251.609 311.3 235.942C315.498 220.275 332.244 210.421 350.505 215.314C355.387 216.504 359.934 218.793 363.805 222.01C367.676 225.227 370.77 229.289 372.856 233.89L353.715 245.469C353.064 243.914 352.096 242.515 350.874 241.363C349.652 240.21 348.203 239.33 346.619 238.778C345.773 238.385 344.851 238.184 343.918 238.189C342.985 238.194 342.063 238.404 341.217 238.804C340.371 239.205 339.622 239.787 339.021 240.509C338.421 241.231 337.983 242.076 337.74 242.984C337.496 243.893 337.453 244.844 337.612 245.769C337.771 246.695 338.129 247.574 338.661 248.343C339.193 249.113 339.887 249.756 340.693 250.227C341.498 250.697 342.397 250.984 343.326 251.067L343.299 251.171Z" fill="#35ACC0"/>
<path opacity="0.23" d="M406.172 226.999L417.247 229.967C417.644 228.485 417.441 226.908 416.683 225.582C415.926 224.257 414.675 223.291 413.206 222.897C411.738 222.504 410.171 222.715 408.852 223.484C407.533 224.253 406.569 225.518 406.172 226.999ZM405.393 238.765C405.393 238.765 405.998 243.104 413.209 245.036C416.557 245.791 420.042 245.701 423.355 244.775L427.738 263.855C419.78 266.164 411.35 266.191 403.398 263.933C385.111 259.033 375.414 242.066 379.611 226.399C383.914 210.342 400.118 200.76 417.864 205.515C435.609 210.27 444.852 226.67 440.835 241.662C440.338 243.789 439.398 245.786 438.077 247.523L405.393 238.765Z" fill="#35ACC0"/>
</g>
<g opacity="0.36">
<path opacity="0.36" d="M61.9839 160.282C60.5513 160.002 59.0641 160.281 57.8231 161.062C56.5821 161.844 55.6798 163.07 55.2987 164.492C54.9176 165.914 55.0861 167.427 55.7701 168.724C56.4541 170.022 57.6026 171.007 58.9834 171.48C60.416 171.761 61.9031 171.482 63.1441 170.7C64.3851 169.919 65.2874 168.693 65.6685 167.271C66.0496 165.848 65.8812 164.336 65.1972 163.038C64.5132 161.741 63.3647 160.756 61.9839 160.282ZM92.6232 174.507C87.9867 191.811 73.8903 200.119 61.7852 196.876C58.9238 196.134 56.2967 194.678 54.1458 192.641C51.9948 190.605 50.3891 188.054 49.4763 185.224L47.6802 191.927L22.2078 185.101L43.2045 106.741L68.6768 113.566L60.5873 143.757C62.7931 141.762 65.4592 140.355 68.3401 139.668C71.2209 138.98 74.2241 139.032 77.0732 139.82C89.2883 143.065 97.3697 157.205 92.7262 174.535L92.6232 174.507Z" fill="#3F9AC2"/>
<path opacity="0.36" d="M139.413 153.182C138.322 152.755 137.127 152.672 135.986 152.943C134.844 153.215 133.809 153.829 133.019 154.705C132.228 155.58 131.719 156.676 131.559 157.846C131.398 159.016 131.594 160.207 132.119 161.26C132.645 162.313 133.476 163.179 134.503 163.744C135.53 164.308 136.705 164.545 137.871 164.422C139.037 164.299 140.14 163.823 141.035 163.056C141.929 162.289 142.573 161.267 142.88 160.126C143.124 159.44 143.228 158.711 143.184 157.985C143.141 157.258 142.951 156.549 142.627 155.899C142.303 155.25 141.851 154.674 141.298 154.207C140.746 153.74 140.104 153.392 139.413 153.182ZM130.126 187.842C111.84 182.942 102.142 165.975 106.333 150.334C110.524 134.693 127.392 124.899 145.679 129.799C163.965 134.699 173.663 151.666 169.465 167.333C165.267 183 148.387 192.735 130.126 187.842Z" fill="#3F9AC2"/>
<path opacity="0.36" d="M199.177 225.197C196.971 227.192 194.305 228.598 191.424 229.286C188.544 229.974 185.54 229.921 182.691 229.133C172.157 226.311 166.106 215.722 169.851 201.744L178.825 168.254L204.323 175.086L197.138 201.899C196.92 202.436 196.818 203.013 196.836 203.592C196.855 204.17 196.994 204.738 197.246 205.258C197.498 205.777 197.856 206.237 198.296 206.607C198.737 206.976 199.251 207.248 199.804 207.403C201.089 207.42 202.338 206.968 203.323 206.132C204.308 205.296 204.962 204.132 205.164 202.852L212.049 177.156L237.522 183.982L222.853 238.725L197.381 231.9L199.177 225.197Z" fill="#3F9AC2"/>
<path opacity="0.36" d="M265.775 226.584C267.981 224.589 270.647 223.182 273.528 222.494C276.408 221.806 279.412 221.859 282.261 222.647C292.795 225.47 298.872 236.065 295.127 250.043L286.146 283.559L260.648 276.727L267.839 249.888C268.057 249.351 268.16 248.774 268.142 248.195C268.123 247.617 267.983 247.049 267.732 246.529C267.48 246.01 267.122 245.55 266.681 245.18C266.24 244.811 265.727 244.539 265.174 244.384C263.885 244.361 262.631 244.808 261.641 245.644C260.651 246.479 259.993 247.645 259.788 248.928L252.903 274.624L227.43 267.798L242.099 213.055L267.571 219.88L265.775 226.584Z" fill="#3F9AC2"/>
<path opacity="0.36" d="M341.454 247.753C343.118 248.091 344.837 248.068 346.495 247.687C348.153 247.305 349.714 246.574 351.073 245.541L361.86 265.14C357.754 268.081 353.043 270.051 348.083 270.902C343.122 271.752 338.039 271.461 333.216 270.051C314.955 265.158 305.257 248.191 309.448 232.55C313.639 216.909 330.365 207.133 348.626 212.026C353.508 213.216 358.055 215.505 361.926 218.722C365.797 221.939 368.891 226 370.977 230.601L351.836 242.181C351.185 240.626 350.217 239.227 348.995 238.075C347.773 236.922 346.323 236.042 344.74 235.49C343.894 235.097 342.972 234.896 342.039 234.901C341.106 234.905 340.184 235.115 339.338 235.516C338.492 235.917 337.743 236.498 337.142 237.221C336.541 237.943 336.104 238.788 335.86 239.696C335.617 240.605 335.573 241.555 335.732 242.481C335.892 243.407 336.25 244.285 336.782 245.055C337.314 245.825 338.007 246.468 338.813 246.938C339.619 247.409 340.518 247.696 341.447 247.779L341.454 247.753Z" fill="#3F9AC2"/>
<path opacity="0.36" d="M404.327 223.581L415.402 226.549C415.799 225.067 415.597 223.49 414.839 222.164C414.081 220.838 412.83 219.872 411.362 219.479C409.893 219.085 408.327 219.297 407.008 220.066C405.688 220.835 404.724 222.1 404.327 223.581ZM403.549 235.347C403.549 235.347 404.146 239.712 411.358 241.644C414.71 242.397 418.198 242.298 421.51 241.357L425.859 260.567C417.901 262.876 409.471 262.903 401.518 260.645C383.232 255.745 373.534 238.777 377.725 223.136C382.069 206.924 398.239 197.472 415.984 202.227C433.73 206.982 442.972 223.382 438.962 238.347C438.467 240.465 437.529 242.455 436.212 244.182L403.549 235.347Z" fill="#3F9AC2"/>
</g>
<g opacity="0.49">
<path opacity="0.49" d="M60.1045 156.994C58.6358 156.601 57.0697 156.812 55.7505 157.581C54.4313 158.35 53.4672 159.615 53.0702 161.096C52.6733 162.578 52.8759 164.155 53.6337 165.481C54.3915 166.807 55.6423 167.773 57.1109 168.166C57.8381 168.361 58.5969 168.409 59.3439 168.309C60.091 168.208 60.8117 167.96 61.4649 167.579C62.1181 167.198 62.691 166.692 63.1508 166.089C63.6107 165.485 63.9486 164.797 64.1451 164.064C64.3417 163.33 64.3931 162.566 64.2964 161.813C64.1997 161.061 63.9569 160.336 63.5816 159.679C63.2064 159.023 62.7062 158.448 62.1096 157.987C61.513 157.526 60.8317 157.189 60.1045 156.994ZM90.7507 171.193C86.1072 188.523 72.0179 196.805 59.9127 193.561C57.0513 192.819 54.4243 191.363 52.2733 189.327C50.1224 187.291 48.5166 184.74 47.6038 181.909L45.8077 188.612L20.3354 181.787L41.3529 103.349L66.8252 110.174L58.7426 140.339C60.9485 138.344 63.6146 136.937 66.4954 136.249C69.3763 135.561 72.3795 135.614 75.2286 136.402C87.4437 139.647 95.5251 153.787 90.8816 171.116L90.7507 171.193Z" fill="#4887C3"/>
<path opacity="0.49" d="M137.534 149.894C136.447 149.473 135.258 149.395 134.123 149.67C132.989 149.944 131.962 150.559 131.179 151.432C130.395 152.305 129.892 153.396 129.735 154.561C129.579 155.725 129.776 156.909 130.302 157.955C130.827 159.001 131.656 159.861 132.678 160.421C133.701 160.98 134.869 161.214 136.029 161.09C137.188 160.966 138.285 160.491 139.174 159.727C140.063 158.963 140.702 157.947 141.008 156.812C141.248 156.127 141.348 155.4 141.302 154.676C141.255 153.952 141.064 153.246 140.74 152.599C140.415 151.953 139.964 151.38 139.413 150.915C138.862 150.45 138.223 150.103 137.534 149.894ZM128.254 184.528C109.967 179.628 100.269 162.66 104.46 147.019C108.651 131.378 125.541 121.507 143.827 126.407C162.114 131.306 171.804 148.3 167.613 163.941C163.422 179.582 146.542 189.317 128.282 184.424L128.254 184.528Z" fill="#4887C3"/>
<path opacity="0.49" d="M197.326 221.804C195.12 223.799 192.454 225.206 189.573 225.893C186.692 226.581 183.689 226.529 180.84 225.741C170.306 222.918 164.261 212.304 168.006 198.326L176.98 164.836L202.478 171.668L195.294 198.481C195.076 199.018 194.973 199.595 194.991 200.173C195.01 200.752 195.15 201.32 195.401 201.839C195.653 202.359 196.011 202.819 196.452 203.188C196.893 203.558 197.407 203.83 197.96 203.985C199.244 204.001 200.494 203.55 201.478 202.714C202.463 201.878 203.117 200.713 203.32 199.434L210.205 173.738L235.677 180.563L221.002 235.333L195.53 228.507L197.326 221.804Z" fill="#4887C3"/>
<path opacity="0.49" d="M263.93 223.165C266.136 221.17 268.802 219.764 271.683 219.076C274.564 218.388 277.567 218.441 280.416 219.229C290.95 222.051 297.021 232.673 293.282 246.625L284.301 280.141L258.803 273.309L265.995 246.47C266.213 245.933 266.316 245.356 266.297 244.777C266.278 244.198 266.139 243.631 265.887 243.111C265.635 242.592 265.277 242.132 264.837 241.762C264.396 241.392 263.882 241.121 263.329 240.966C262.041 240.943 260.786 241.39 259.796 242.225C258.806 243.061 258.148 244.227 257.943 245.51L251.051 271.231L225.579 264.406L240.254 209.637L265.726 216.462L263.93 223.165Z" fill="#4887C3"/>
<path opacity="0.49" d="M339.609 244.335C341.274 244.672 342.992 244.65 344.65 244.268C346.309 243.887 347.869 243.156 349.229 242.123L360.016 261.721C355.907 264.656 351.197 266.619 346.238 267.465C341.279 268.311 336.199 268.018 331.378 266.607C313.117 261.714 303.42 244.746 307.611 229.105C311.802 213.464 328.691 203.593 346.951 208.486C351.834 209.676 356.381 211.966 360.252 215.183C364.123 218.4 367.217 222.461 369.303 227.062L350.162 238.641C349.511 237.086 348.543 235.687 347.321 234.535C346.099 233.382 344.649 232.502 343.066 231.95C342.22 231.558 341.298 231.357 340.365 231.361C339.432 231.366 338.51 231.576 337.664 231.976C336.818 232.377 336.069 232.959 335.468 233.681C334.867 234.403 334.43 235.248 334.186 236.157C333.943 237.065 333.899 238.016 334.058 238.941C334.218 239.867 334.576 240.746 335.108 241.516C335.64 242.286 336.333 242.928 337.139 243.399C337.945 243.869 338.844 244.156 339.773 244.239L339.609 244.335Z" fill="#4887C3"/>
<path opacity="0.49" d="M402.483 220.163L413.558 223.13C413.955 221.649 413.752 220.072 412.994 218.746C412.236 217.42 410.986 216.454 409.517 216.061C408.048 215.667 406.482 215.878 405.163 216.648C403.844 217.417 402.88 218.681 402.483 220.163ZM401.68 231.811C401.68 231.811 402.278 236.176 409.489 238.108C412.841 238.861 416.33 238.762 419.642 237.821L424.004 256.979C416.045 259.271 407.62 259.289 399.671 257.031C381.384 252.131 371.687 235.163 375.878 219.522C380.222 203.31 396.391 193.858 414.137 198.613C431.882 203.368 441.16 219.638 437.115 234.734C436.619 236.852 435.681 238.841 434.364 240.568L401.68 231.811Z" fill="#4887C3"/>
</g>
<g opacity="0.61">
<path opacity="0.61" d="M58.2878 153.472C57.5606 153.277 56.8018 153.229 56.0547 153.329C55.3077 153.43 54.587 153.678 53.9338 154.059C53.2806 154.44 52.7077 154.946 52.2478 155.549C51.788 156.153 51.4501 156.841 51.2535 157.574C51.057 158.308 51.0056 159.073 51.1022 159.825C51.1989 160.577 51.4418 161.302 51.817 161.959C52.1922 162.615 52.6924 163.19 53.2891 163.651C53.8857 164.112 54.567 164.449 55.2942 164.644C56.7628 165.038 58.329 164.826 59.6482 164.057C60.9674 163.288 61.9315 162.023 62.3285 160.542C62.7254 159.06 62.5227 157.483 61.765 156.157C61.0072 154.831 59.7564 153.865 58.2878 153.472ZM88.934 167.671C84.2906 185 70.2012 193.283 58.096 190.039C55.2346 189.297 52.6076 187.841 50.4566 185.805C48.3057 183.769 46.6999 181.218 45.7872 178.387L44.0189 184.986L18.5465 178.161L39.5084 99.9305L64.9807 106.756L56.8981 136.92C59.104 134.925 61.77 133.519 64.6509 132.831C67.5318 132.143 70.535 132.196 73.384 132.984C85.5992 136.229 93.6806 150.369 89.0371 167.698L88.934 167.671Z" fill="#5174C4"/>
<path opacity="0.61" d="M135.717 146.372C134.63 145.951 133.441 145.873 132.307 146.148C131.172 146.422 130.145 147.037 129.362 147.91C128.579 148.783 128.075 149.874 127.919 151.039C127.762 152.203 127.96 153.387 128.485 154.433C129.01 155.479 129.839 156.339 130.861 156.899C131.884 157.458 133.052 157.692 134.212 157.568C135.372 157.444 136.468 156.969 137.357 156.205C138.246 155.441 138.886 154.425 139.191 153.29C139.431 152.605 139.531 151.878 139.485 151.154C139.439 150.43 139.248 149.724 138.923 149.077C138.598 148.431 138.147 147.858 137.596 147.393C137.045 146.928 136.406 146.581 135.717 146.372ZM126.437 181.006C108.15 176.106 98.4528 159.138 102.644 143.497C106.835 127.856 123.717 118.011 142.003 122.911C160.29 127.81 170.015 144.674 165.797 160.419C161.578 176.164 144.698 185.898 126.437 181.006Z" fill="#5174C4"/>
<path opacity="0.61" d="M195.495 218.334C193.289 220.329 190.623 221.736 187.742 222.423C184.861 223.111 181.858 223.059 179.009 222.271C168.475 219.448 162.43 208.834 166.169 194.882L175.136 161.418L200.634 168.25L193.442 195.089C193.224 195.626 193.121 196.202 193.14 196.781C193.159 197.36 193.298 197.928 193.55 198.447C193.802 198.967 194.16 199.427 194.6 199.796C195.041 200.166 195.555 200.438 196.108 200.593C197.393 200.609 198.642 200.158 199.627 199.322C200.612 198.486 201.265 197.321 201.468 196.042L208.36 170.32L233.833 177.145L219.157 231.915L193.685 225.089L195.495 218.334Z" fill="#5174C4"/>
<path opacity="0.61" d="M262.086 219.747C264.291 217.752 266.958 216.346 269.838 215.658C272.719 214.97 275.722 215.023 278.572 215.811C289.106 218.633 295.176 229.254 291.438 243.206L282.457 276.723L256.959 269.891L264.143 243.078C264.361 242.539 264.465 241.961 264.447 241.381C264.429 240.801 264.29 240.232 264.039 239.71C263.788 239.189 263.431 238.727 262.991 238.354C262.551 237.982 262.038 237.707 261.484 237.548C259.81 237.099 256.99 238.766 256.092 242.118L249.206 267.813L223.734 260.988L238.409 206.219L263.882 213.044L262.086 219.747Z" fill="#5174C4"/>
<path opacity="0.61" d="M337.758 240.943C339.422 241.28 341.14 241.257 342.799 240.876C344.457 240.495 346.018 239.763 347.377 238.73L358.164 258.329C354.055 261.263 349.345 263.227 344.386 264.073C339.427 264.919 334.347 264.626 329.526 263.214C311.266 258.321 301.568 241.354 305.759 225.713C309.95 210.072 326.832 200.227 345.093 205.12C349.973 206.308 354.519 208.594 358.391 211.806C362.263 215.018 365.36 219.074 367.451 223.669L348.31 235.249C347.663 233.69 346.697 232.286 345.476 231.129C344.255 229.972 342.806 229.087 341.221 228.532C340.376 228.153 339.459 227.964 338.533 227.977C337.607 227.991 336.694 228.206 335.856 228.609C335.019 229.013 334.278 229.594 333.684 230.312C333.09 231.031 332.657 231.87 332.416 232.772C332.174 233.674 332.129 234.617 332.284 235.537C332.439 236.456 332.791 237.33 333.314 238.097C333.838 238.865 334.521 239.509 335.316 239.983C336.111 240.458 337 240.753 337.921 240.847L337.758 240.943Z" fill="#5174C4"/>
<path opacity="0.61" d="M400.638 216.745L411.713 219.712C412.11 218.231 411.907 216.654 411.15 215.328C410.392 214.002 409.141 213.036 407.673 212.643C406.204 212.249 404.638 212.46 403.319 213.229C401.999 213.999 401.035 215.263 400.638 216.745ZM399.801 228.523C399.801 228.523 400.405 232.862 407.617 234.794C410.965 235.548 414.45 235.459 417.763 234.533L422.132 253.665C414.173 255.957 405.748 255.975 397.799 253.717C379.512 248.817 369.814 231.849 374.005 216.208C378.35 199.996 394.512 190.57 412.258 195.325C430.003 200.08 439.287 216.324 435.243 231.419C434.746 233.546 433.806 235.544 432.485 237.28L399.801 228.523Z" fill="#5174C4"/>
</g>
<g opacity="0.74">
<path opacity="0.74" d="M56.4432 150.054C54.9745 149.66 53.4084 149.871 52.0892 150.641C50.77 151.41 49.8059 152.674 49.4089 154.156C49.012 155.637 49.2146 157.215 49.9724 158.54C50.7302 159.866 51.981 160.832 53.4496 161.226C54.9182 161.619 56.4844 161.408 57.8036 160.639C59.1228 159.869 60.0869 158.605 60.4838 157.123C60.8808 155.642 60.6781 154.065 59.9203 152.739C59.1626 151.413 57.9118 150.447 56.4432 150.054ZM87.1994 164.254C82.5559 181.584 68.4666 189.866 56.3614 186.623C53.5 185.881 50.873 184.424 48.722 182.388C46.5711 180.352 44.9653 177.801 44.0525 174.97L42.2564 181.674L16.681 174.821L37.6638 96.5122L63.1361 103.337L55.0535 133.502C57.2594 131.507 59.9254 130.101 62.8063 129.413C65.6872 128.725 68.6903 128.777 71.5394 129.565C83.7824 132.707 91.8359 146.95 87.1994 164.254Z" fill="#5A61C5"/>
<path opacity="0.74" d="M133.872 142.954C132.785 142.533 131.594 142.455 130.459 142.73C129.323 143.006 128.296 143.622 127.513 144.497C126.73 145.372 126.228 146.464 126.073 147.63C125.918 148.796 126.118 149.981 126.646 151.027C127.175 152.073 128.006 152.931 129.032 153.488C130.057 154.045 131.227 154.275 132.387 154.147C133.548 154.019 134.644 153.539 135.531 152.771C136.417 152.003 137.053 150.983 137.353 149.846C137.589 149.162 137.686 148.437 137.637 147.716C137.589 146.994 137.396 146.291 137.071 145.647C136.746 145.004 136.295 144.434 135.746 143.971C135.196 143.508 134.559 143.162 133.872 142.954ZM124.585 177.613C106.299 172.713 96.6291 155.642 100.806 140.053C104.983 124.464 121.879 114.566 140.166 119.466C158.452 124.366 168.136 141.386 163.959 156.975C159.782 172.564 142.846 182.506 124.585 177.613Z" fill="#5A61C5"/>
<path opacity="0.74" d="M193.616 215.046C191.41 217.041 188.744 218.447 185.863 219.135C182.982 219.823 179.979 219.771 177.13 218.982C166.596 216.16 160.551 205.546 164.289 191.594L173.291 157.999L198.789 164.831L191.598 191.67C191.38 192.207 191.277 192.784 191.295 193.363C191.314 193.942 191.454 194.509 191.705 195.029C191.957 195.549 192.315 196.008 192.756 196.378C193.197 196.748 193.71 197.019 194.263 197.174C195.548 197.191 196.798 196.74 197.782 195.904C198.767 195.068 199.421 193.903 199.624 192.624L206.516 166.902L231.988 173.727L217.313 228.496L191.84 221.671L193.616 215.046Z" fill="#5A61C5"/>
<path opacity="0.74" d="M260.241 216.329C262.447 214.334 265.113 212.928 267.994 212.24C270.875 211.552 273.878 211.604 276.727 212.392C287.261 215.215 293.331 225.836 289.586 239.814L280.605 273.33L255.107 266.498L262.299 239.659C262.517 239.122 262.62 238.546 262.601 237.967C262.582 237.388 262.443 236.82 262.191 236.301C261.939 235.781 261.581 235.321 261.141 234.952C260.7 234.582 260.186 234.311 259.633 234.155C258.345 234.132 257.09 234.58 256.1 235.415C255.11 236.25 254.452 237.417 254.247 238.699L247.362 264.395L221.889 257.57L236.565 202.8L262.037 209.626L260.241 216.329Z" fill="#5A61C5"/>
<path opacity="0.74" d="M335.913 237.524C337.578 237.862 339.296 237.839 340.954 237.458C342.613 237.077 344.173 236.345 345.533 235.312L356.32 254.911C352.213 257.852 347.503 259.822 342.542 260.673C337.581 261.524 332.499 261.233 327.675 259.822C309.414 254.929 299.724 237.936 303.915 222.295C308.105 206.654 324.988 196.808 343.248 201.701C348.129 202.89 352.675 205.176 356.547 208.388C360.418 211.6 363.516 215.655 365.607 220.251L346.466 231.831C345.815 230.276 344.847 228.877 343.625 227.724C342.402 226.572 340.953 225.691 339.37 225.14C338.524 224.747 337.602 224.546 336.669 224.551C335.735 224.555 334.814 224.765 333.968 225.166C333.122 225.567 332.372 226.148 331.772 226.87C331.171 227.593 330.734 228.437 330.49 229.346C330.247 230.255 330.203 231.205 330.362 232.131C330.521 233.057 330.88 233.935 331.412 234.705C331.944 235.475 332.637 236.118 333.443 236.588C334.249 237.059 335.148 237.346 336.077 237.429L335.913 237.524Z" fill="#5A61C5"/>
<path opacity="0.74" d="M398.787 213.353L409.862 216.32C410.259 214.839 410.056 213.261 409.298 211.936C408.54 210.61 407.29 209.644 405.821 209.25C404.352 208.857 402.786 209.068 401.467 209.837C400.148 210.607 399.184 211.871 398.787 213.353ZM397.922 225.234C397.922 225.234 398.526 229.573 405.738 231.505C409.086 232.26 412.57 232.17 415.883 231.244L420.253 250.377C412.295 252.685 403.865 252.712 395.912 250.454C377.626 245.554 367.935 228.561 372.126 212.92C376.463 196.733 392.632 187.282 410.378 192.037C428.124 196.792 437.366 213.192 433.363 228.131C432.866 230.258 431.927 232.256 430.606 233.992L397.922 225.234Z" fill="#5A61C5"/>
</g>
<g opacity="0.87">
<path opacity="0.87" d="M54.5986 146.636C53.1659 146.355 51.6788 146.634 50.4378 147.416C49.1968 148.197 48.2945 149.423 47.9134 150.845C47.5323 152.268 47.7008 153.78 48.3848 155.078C49.0688 156.375 50.2173 157.36 51.598 157.834C53.0307 158.114 54.5178 157.835 55.7588 157.053C56.9998 156.272 57.9021 155.046 58.2832 153.624C58.6643 152.201 58.4959 150.689 57.8119 149.391C57.1279 148.094 55.9794 147.109 54.5986 146.636ZM85.32 160.966C80.6765 178.296 66.5872 186.578 54.482 183.334C51.6206 182.592 48.9936 181.136 46.8426 179.1C44.6917 177.064 43.0859 174.513 42.1731 171.682L40.4327 178.178L14.8573 171.325L35.8192 93.0941L61.2915 99.9194L53.2089 130.084C55.4148 128.089 58.0808 126.683 60.9617 125.995C63.8426 125.307 66.8457 125.359 69.6948 126.147C81.903 129.418 89.9844 143.558 85.32 160.966Z" fill="#644FC7"/>
<path opacity="0.87" d="M132.028 139.536C130.94 139.109 129.749 139.025 128.61 139.295C127.471 139.564 126.438 140.173 125.647 141.044C124.856 141.914 124.344 143.004 124.178 144.17C124.012 145.336 124.2 146.524 124.717 147.578C125.234 148.631 126.056 149.501 127.075 150.073C128.094 150.645 129.263 150.892 130.426 150.781C131.59 150.671 132.695 150.208 133.596 149.455C134.497 148.701 135.152 147.691 135.474 146.557C135.731 145.868 135.845 145.133 135.809 144.399C135.773 143.664 135.588 142.946 135.264 142.287C134.941 141.629 134.488 141.045 133.931 140.572C133.374 140.099 132.726 139.746 132.028 139.536ZM122.741 174.195C104.454 169.295 94.7497 152.354 98.9267 136.765C103.104 121.176 120 111.278 138.286 116.178C156.573 121.078 166.298 137.942 162.08 153.686C157.861 169.431 141.002 179.088 122.741 174.195Z" fill="#644FC7"/>
<path opacity="0.87" d="M191.792 211.55C189.586 213.545 186.92 214.951 184.039 215.639C181.158 216.327 178.155 216.274 175.306 215.486C164.772 212.664 158.72 202.076 162.466 188.097L171.439 154.607L196.937 161.439L189.753 188.252C189.535 188.789 189.432 189.366 189.451 189.945C189.469 190.524 189.609 191.091 189.861 191.611C190.112 192.131 190.47 192.59 190.911 192.96C191.352 193.33 191.866 193.601 192.419 193.756C193.704 193.773 194.953 193.322 195.938 192.486C196.922 191.649 197.576 190.485 197.779 189.206L204.664 163.51L230.137 170.335L215.468 225.078L189.996 218.253L191.792 211.55Z" fill="#644FC7"/>
<path opacity="0.87" d="M258.397 212.911C260.602 210.916 263.268 209.51 266.149 208.822C269.03 208.134 272.033 208.186 274.882 208.974C285.417 211.797 291.494 222.392 287.748 236.37L278.768 269.886L253.27 263.054L260.454 236.241C260.672 235.704 260.775 235.127 260.756 234.549C260.738 233.97 260.598 233.402 260.347 232.883C260.095 232.363 259.737 231.903 259.296 231.534C258.855 231.164 258.341 230.892 257.788 230.737C256.5 230.714 255.245 231.162 254.255 231.997C253.265 232.832 252.607 233.999 252.402 235.281L245.517 260.977L220.045 254.152L234.713 199.408L260.186 206.234L258.397 212.911Z" fill="#644FC7"/>
<path opacity="0.87" d="M334.069 234.106C335.733 234.444 337.451 234.421 339.11 234.04C340.768 233.658 342.328 232.927 343.688 231.894L354.475 251.493C350.368 254.434 345.658 256.404 340.697 257.255C335.736 258.105 330.654 257.815 325.83 256.404C307.569 251.511 297.872 234.544 302.07 218.877C306.268 203.21 323.143 193.39 341.404 198.283C346.286 199.474 350.833 201.763 354.704 204.98C358.575 208.197 361.669 212.258 363.755 216.859L344.614 228.438C343.963 226.884 342.995 225.485 341.773 224.332C340.551 223.18 339.101 222.299 337.518 221.747C336.672 221.355 335.75 221.154 334.817 221.159C333.884 221.163 332.962 221.373 332.116 221.774C331.27 222.174 330.521 222.756 329.92 223.478C329.319 224.2 328.882 225.045 328.638 225.954C328.395 226.863 328.351 227.813 328.511 228.739C328.67 229.665 329.028 230.543 329.56 231.313C330.092 232.083 330.786 232.726 331.591 233.196C332.397 233.667 333.296 233.954 334.225 234.037L334.069 234.106Z" fill="#644FC7"/>
<path opacity="0.87" d="M396.942 209.934L408.017 212.902C408.414 211.42 408.211 209.843 407.453 208.517C406.696 207.192 405.445 206.226 403.976 205.832C402.508 205.439 400.942 205.65 399.622 206.419C398.303 207.188 397.339 208.453 396.942 209.934ZM396.164 221.7C396.164 221.7 396.761 226.065 403.972 227.997C407.324 228.75 410.813 228.651 414.125 227.71L418.495 246.842C410.537 249.151 402.106 249.178 394.154 246.92C375.867 242.02 366.17 225.053 370.368 209.386C374.705 193.199 390.874 183.747 408.62 188.502C426.365 193.257 435.643 209.527 431.605 224.597C431.108 226.724 430.168 228.722 428.847 230.458L396.164 221.7Z" fill="#644FC7"/>
</g>
<path d="M52.747 143.243C51.2784 142.85 49.7122 143.061 48.393 143.83C47.0738 144.6 46.1097 145.864 45.7128 147.346C45.3158 148.827 45.5185 150.404 46.2763 151.73C47.034 153.056 48.2848 154.022 49.7534 154.415C51.2221 154.809 52.7882 154.598 54.1074 153.828C55.4266 153.059 56.3907 151.795 56.7877 150.313C57.1847 148.832 56.982 147.254 56.2242 145.929C55.4664 144.603 54.2156 143.637 52.747 143.243ZM83.3933 157.442C78.7567 174.746 64.6604 183.054 52.5553 179.811C49.6928 179.071 47.0646 177.616 44.9133 175.579C42.762 173.543 41.157 170.99 40.2464 168.159L38.4433 174.888L12.9709 168.062L33.9745 89.6759L59.4469 96.5012L51.3295 126.796C53.5354 124.801 56.2014 123.394 59.0823 122.706C61.9632 122.019 64.9663 122.071 67.8154 122.859C80.0236 126.13 88.1398 140.14 83.4963 157.47L83.3933 157.442Z" fill="#6D3CC8"/>
<path d="M130.176 136.143C129.09 135.723 127.901 135.644 126.766 135.919C125.631 136.194 124.605 136.808 123.821 137.681C123.038 138.555 122.535 139.645 122.378 140.81C122.221 141.975 122.419 143.158 122.944 144.204C123.47 145.251 124.298 146.11 125.321 146.67C126.343 147.23 127.511 147.463 128.671 147.339C129.831 147.215 130.928 146.74 131.817 145.976C132.706 145.213 133.345 144.196 133.65 143.061C133.89 142.376 133.99 141.65 133.944 140.925C133.898 140.201 133.707 139.495 133.382 138.849C133.058 138.202 132.606 137.629 132.055 137.164C131.504 136.699 130.865 136.352 130.176 136.143ZM120.896 170.777C102.61 165.877 92.912 148.91 97.103 133.269C101.294 117.628 118.183 107.756 136.47 112.656C154.756 117.556 164.454 134.523 160.256 150.19C156.058 165.857 139.157 175.67 120.896 170.777Z" fill="#6D3CC8"/>
<path d="M189.947 208.132C187.743 210.129 185.077 211.536 182.195 212.224C179.314 212.913 176.31 212.859 173.461 212.068C162.927 209.246 156.883 198.631 160.628 184.653L169.595 151.189L195.093 158.021L187.908 184.834C187.691 185.371 187.588 185.948 187.606 186.527C187.625 187.105 187.764 187.673 188.016 188.193C188.268 188.712 188.626 189.172 189.067 189.542C189.507 189.912 190.021 190.183 190.574 190.338C191.859 190.355 193.108 189.903 194.093 189.067C195.078 188.231 195.732 187.067 195.934 185.787L202.82 160.092L228.292 166.917L213.617 221.686L188.144 214.861L189.947 208.132Z" fill="#6D3CC8"/>
<path d="M256.517 209.623C258.723 207.628 261.389 206.221 264.27 205.533C267.151 204.845 270.154 204.898 273.003 205.686C283.537 208.509 289.614 219.104 285.869 233.082L276.916 266.494L251.418 259.662L258.61 232.823C258.827 232.286 258.93 231.709 258.912 231.131C258.893 230.552 258.753 229.984 258.502 229.464C258.25 228.945 257.892 228.485 257.451 228.115C257.01 227.746 256.497 227.474 255.944 227.319C254.656 227.296 253.401 227.743 252.411 228.579C251.421 229.414 250.763 230.58 250.558 231.863L243.666 257.585L218.193 250.759L232.869 195.99L258.341 202.816L256.517 209.623Z" fill="#6D3CC8"/>
<path d="M332.224 230.688C333.889 231.026 335.607 231.003 337.265 230.622C338.923 230.24 340.484 229.509 341.844 228.476L352.631 248.074C348.524 251.016 343.813 252.986 338.853 253.837C333.892 254.687 328.809 254.396 323.986 252.986C305.725 248.093 296.027 231.125 300.218 215.485C304.409 199.844 321.298 189.972 339.559 194.865C344.442 196.055 348.989 198.345 352.86 201.562C356.73 204.779 359.825 208.84 361.911 213.441L342.769 225.02C342.118 223.465 341.151 222.067 339.928 220.914C338.706 219.762 337.257 218.881 335.674 218.329C334.827 217.937 333.905 217.736 332.972 217.74C332.039 217.745 331.118 217.955 330.272 218.356C329.426 218.756 328.676 219.338 328.076 220.06C327.475 220.782 327.037 221.627 326.794 222.536C326.55 223.445 326.507 224.395 326.666 225.321C326.825 226.246 327.183 227.125 327.716 227.895C328.248 228.665 328.941 229.307 329.747 229.778C330.553 230.248 331.452 230.535 332.381 230.619L332.224 230.688Z" fill="#6D3CC8"/>
<path d="M395.097 206.516L406.172 209.484C406.569 208.002 406.367 206.425 405.609 205.099C404.851 203.773 403.6 202.807 402.132 202.414C400.663 202.02 399.097 202.232 397.778 203.001C396.459 203.77 395.494 205.035 395.097 206.516ZM394.319 218.282C394.319 218.282 394.916 222.647 402.128 224.579C405.48 225.332 408.968 225.233 412.28 224.292L416.65 243.424C408.692 245.733 400.262 245.76 392.309 243.502C374.023 238.602 364.325 221.634 368.516 205.993C372.86 189.781 389.03 180.329 406.775 185.084C424.521 189.839 433.763 206.239 429.753 221.205C429.258 223.323 428.32 225.312 427.003 227.039L394.319 218.282Z" fill="#6D3CC8"/>
</g>
<defs>
<clipPath id="clip0">
<rect width="435" height="220" fill="white" transform="translate(57.8812 0.455017) rotate(15)"/>
</clipPath>
</defs>
</svg>
