<svg width="293" height="102" viewBox="0 0 293 102" fill="none" xmlns="http://www.w3.org/2000/svg">
<path d="M22.7562 3.38264H0V12.357H22.7562V3.38264Z" fill="#C9C9C9"/>
<path d="M47.557 68.2742H58.9351L38.2476 4.76331H26.8695L47.557 68.2742Z" fill="#C9C9C9"/>
<path d="M85.8558 59.2998H60.3412V70H85.8558V59.2998Z" fill="#C9C9C9"/>
<path d="M101.344 36.5187C101.344 20.641 110.654 8.56016 110.654 8.56016L101.689 3.03748C101.689 3.03748 89.2767 16.499 89.2767 36.5187C89.2767 56.5385 101.689 70 101.689 70L110.654 64.4773C110.654 64.4773 101.344 52.3965 101.344 36.5187Z" fill="#C9C9C9"/>
<path d="M144.626 0L136.006 2.83038C138.075 7.11045 141.868 17.1203 143.178 21.5385L151.867 18.501C150.556 14.0138 146.35 3.38264 144.626 0ZM176.14 5.52268L165.796 2.55424C164.624 13.1164 160.349 24.9901 155.177 31.5483C148.143 40.4537 137.385 46.6667 127.938 49.359L135.661 57.0907C145.522 53.3629 155.521 46.3905 162.762 36.8639C168.486 29.3393 172.416 18.3629 174.347 10.8383C174.761 9.31953 175.381 7.24852 176.14 5.52268ZM125.456 4.28008L116.629 7.31755C118.629 11.0454 123.18 22.3669 124.559 26.854L133.455 23.6095C131.869 18.9152 127.524 8.62919 125.456 4.28008Z" fill="#C9C9C9"/>
<path d="M191.656 36.5187C191.656 52.3965 182.346 64.4773 182.346 64.4773L191.311 70C191.311 70 203.723 56.5385 203.723 36.5187C203.723 16.499 191.311 3.03748 191.311 3.03748L182.346 8.56016C182.346 8.56016 191.656 20.641 191.656 36.5187Z" fill="#C9C9C9"/>
<path d="M232.662 59.2998H207.147V70H232.662V59.2998Z" fill="#C9C9C9"/>
<path d="M266.079 4.76331H254.701L234.014 68.2742H245.392L266.079 4.76331Z" fill="#C9C9C9"/>
<path d="M293 3.38264H270.244V12.357H293V3.38264Z" fill="#C9C9C9"/>
<path d="M52.7801 92.6V97.94L48.6401 92.6H47.0801V101H48.8801V95.66L53.0201 101H54.5801V92.6H52.7801Z" fill="#AFAFAF"/>
<path d="M58.1163 96.8C58.1163 95.24 59.3163 94.04 60.8163 94.04C62.3163 94.04 63.5163 95.24 63.5163 96.8C63.5163 98.36 62.3163 99.56 60.8163 99.56C59.3163 99.56 58.1163 98.36 58.1163 96.8ZM56.2563 96.8C56.2563 99.2 58.2363 101.18 60.8163 101.18C63.3963 101.18 65.3763 99.2 65.3763 96.8C65.3763 94.4 63.3963 92.42 60.8163 92.42C58.2363 92.42 56.2563 94.4 56.2563 96.8Z" fill="#AFAFAF"/>
<path d="M73.6015 92.42C71.0215 92.42 69.0415 94.4 69.0415 96.8C69.0415 99.2 71.0215 101.18 73.6015 101.18C75.9415 101.18 77.1415 99.5 77.1415 99.5L76.0615 98.36C76.0615 98.36 75.2215 99.56 73.6015 99.56C72.0415 99.56 70.8415 98.36 70.8415 96.8C70.8415 95.24 72.0415 94.04 73.6015 94.04C75.1615 94.04 75.9415 95.24 75.9415 95.24L77.0815 94.1C77.0815 94.1 75.9415 92.42 73.6015 92.42Z" fill="#AFAFAF"/>
<path d="M79.7257 96.8C79.7257 95.24 80.9257 94.04 82.4257 94.04C83.9257 94.04 85.1257 95.24 85.1257 96.8C85.1257 98.36 83.9257 99.56 82.4257 99.56C80.9257 99.56 79.7257 98.36 79.7257 96.8ZM77.8657 96.8C77.8657 99.2 79.8457 101.18 82.4257 101.18C85.0057 101.18 86.9857 99.2 86.9857 96.8C86.9857 94.4 85.0057 92.42 82.4257 92.42C79.8457 92.42 77.8657 94.4 77.8657 96.8Z" fill="#AFAFAF"/>
<path d="M93.1699 96.26L90.2899 92.6H88.6699V101H90.4699V95.42L93.1699 98.84L95.8699 95.396V101H97.6699V92.6H96.0739L93.1699 96.26Z" fill="#AFAFAF"/>
<path d="M99.8262 92.6V101H101.626V98.24H103.366C105.106 98.24 106.366 97.016 106.366 95.42C106.366 93.836 105.106 92.6 103.366 92.6H99.8262ZM103.306 94.22C104.026 94.22 104.566 94.76 104.566 95.42C104.566 96.08 104.026 96.62 103.306 96.62H101.626V94.22H103.306Z" fill="#AFAFAF"/>
<path d="M109.362 96.8C109.362 95.24 110.562 94.04 112.062 94.04C113.562 94.04 114.762 95.24 114.762 96.8C114.762 98.36 113.562 99.56 112.062 99.56C110.562 99.56 109.362 98.36 109.362 96.8ZM107.502 96.8C107.502 99.2 109.482 101.18 112.062 101.18C114.642 101.18 116.622 99.2 116.622 96.8C116.622 94.4 114.642 92.42 112.062 92.42C109.482 92.42 107.502 94.4 107.502 96.8Z" fill="#AFAFAF"/>
<path d="M124.007 92.6V97.94L119.867 92.6H118.307V101H120.107V95.66L124.247 101H125.807V92.6H124.007Z" fill="#AFAFAF"/>
<path d="M129.763 99.38V97.52H133.183V95.9H129.763V94.22H134.143V92.6H127.963V101H134.263V99.38H129.763Z" fill="#AFAFAF"/>
<path d="M141.643 92.6V97.94L137.503 92.6H135.943V101H137.743V95.66L141.883 101H143.443V92.6H141.643Z" fill="#AFAFAF"/>
<path d="M144.76 92.6V94.22H147.16V101H148.96V94.22H151.36V92.6H144.76Z" fill="#AFAFAF"/>
<path d="M156.572 98.54C156.572 99.14 156.092 99.62 155.192 99.62C153.932 99.62 153.212 98.72 153.212 98.72L152.132 99.8C152.132 99.8 153.212 101.18 155.312 101.18C157.352 101.18 158.492 100.04 158.492 98.54C158.492 95.54 154.352 96.44 154.352 94.88C154.352 94.4 154.772 93.98 155.492 93.98C156.452 93.98 157.052 94.7 157.052 94.7L158.132 93.56C158.132 93.56 157.232 92.42 155.372 92.42C153.572 92.42 152.432 93.56 152.432 94.88C152.432 97.88 156.572 96.98 156.572 98.54Z" fill="#AFAFAF"/>
<path d="M163.948 96.8C163.948 95.24 165.148 94.04 166.648 94.04C168.148 94.04 169.348 95.24 169.348 96.8C169.348 98.36 168.148 99.56 166.648 99.56C165.148 99.56 163.948 98.36 163.948 96.8ZM162.088 96.8C162.088 99.2 164.068 101.18 166.648 101.18C169.228 101.18 171.208 99.2 171.208 96.8C171.208 94.4 169.228 92.42 166.648 92.42C164.068 92.42 162.088 94.4 162.088 96.8Z" fill="#AFAFAF"/>
<path d="M172.893 92.6V101H174.693V97.7H178.113V96.08H174.693V94.22H179.073V92.6H172.893Z" fill="#AFAFAF"/>
<path d="M182.248 92.6V94.22H184.648V101H186.448V94.22H188.848V92.6H182.248Z" fill="#AFAFAF"/>
<path d="M197.366 92.6H195.566V95.96H191.966V92.6H190.166V101H191.966V97.58H195.566V101H197.366V92.6Z" fill="#AFAFAF"/>
<path d="M203.849 97.46H201.809L202.829 94.7L203.849 97.46ZM204.449 99.02L205.169 101H207.089L203.789 92.6H201.869L198.569 101H200.489L201.209 99.02H204.449Z" fill="#AFAFAF"/>
<path d="M206.74 92.6V94.22H209.14V101H210.94V94.22H213.34V92.6H206.74Z" fill="#AFAFAF"/>
<path d="M216.279 92.6V94.22H218.679V101H220.479V94.22H222.879V92.6H216.279Z" fill="#AFAFAF"/>
<path d="M225.157 92.6H223.237L226.237 98V101H228.037V98L231.037 92.6H229.117L227.137 96.2L225.157 92.6Z" fill="#AFAFAF"/>
<path d="M232.236 92.6V101H234.036V98.24H235.776C237.516 98.24 238.776 97.016 238.776 95.42C238.776 93.836 237.516 92.6 235.776 92.6H232.236ZM235.716 94.22C236.436 94.22 236.976 94.76 236.976 95.42C236.976 96.08 236.436 96.62 235.716 96.62H234.036V94.22H235.716Z" fill="#AFAFAF"/>
<path d="M242.193 99.38V97.52H245.613V95.9H242.193V94.22H246.573V92.6H240.393V101H246.693V99.38H242.193Z" fill="#AFAFAF"/>
</svg>
