<svg width="170" height="96" viewBox="0 0 170 96" fill="none" xmlns="http://www.w3.org/2000/svg">
<path opacity="0.3" d="M45.198 52.1791V14.7232H26.6904L0.69165 50.8571V66.2801H28.453V76.4152H45.198V66.2801H51.8079V52.1791H45.198ZM28.453 52.1791H15.674L28.453 34.1121V52.1791Z" fill="#1C1F27"/>
<path opacity="0.3" d="M45.198 56.8966V19.4408H26.6904L0.69165 55.5746V70.9976H28.453V81.1328H45.198V70.9976H51.8079V56.8966H45.198ZM28.453 56.8966H15.674L28.453 38.8297V56.8966Z" fill="#1C1F27"/>
<path opacity="0.5" d="M45.198 61.6142V24.1583H26.6904L0.69165 60.2922V75.7152H28.453V85.8503H45.198V75.7152H51.8079V61.6142H45.198ZM28.453 61.6142H15.674L28.453 43.5472V61.6142Z" fill="#1C1F27"/>
<path opacity="0.7" d="M45.198 66.3317V28.8759H26.6904L0.69165 65.0098V80.4328H28.453V90.5679H45.198V80.4328H51.8079V66.3317H45.198ZM28.453 66.3317H15.674L28.453 48.2648V66.3317Z" fill="#1C1F27"/>
<path d="M45.198 71.0493V33.5934H26.6904L0.69165 69.7273V85.1503H28.453V95.2854H45.198V85.1503H51.8079V71.0493H45.198ZM28.453 71.0493H15.674L28.453 52.9824V71.0493Z" fill="#1C1F27"/>
<path opacity="0.3" d="M163.139 71.7237V34.2678H144.631L118.632 70.4017V85.8247H146.394V95.9598H163.139V85.8247H169.748V71.7237H163.139ZM146.394 71.7237H133.615L146.394 53.6567V71.7237Z" fill="#1C1F27"/>
<path opacity="0.3" d="M163.139 68.6649V31.2091H144.631L118.632 67.343V82.766H146.394V92.9011H163.139V82.766H169.748V68.6649H163.139ZM146.394 68.6649H133.615L146.394 50.598V68.6649Z" fill="#1C1F27"/>
<path opacity="0.5" d="M163.139 65.6062V28.1503H144.631L118.632 64.2842V79.7072H146.394V89.8423H163.139V79.7072H169.748V65.6062H163.139ZM146.394 65.6062H133.615L146.394 47.5392V65.6062Z" fill="#1C1F27"/>
<path opacity="0.7" d="M163.139 62.5474V25.0916H144.631L118.632 61.2255V76.6485H146.394V86.7836H163.139V76.6485H169.748V62.5474H163.139ZM146.394 62.5474H133.615L146.394 44.4805V62.5474Z" fill="#1C1F27"/>
<path d="M163.139 59.4887V22.0329H144.631L118.632 58.1667V73.5897H146.394V83.7249H163.139V73.5897H169.748V59.4887H163.139ZM146.394 59.4887H133.615L146.394 41.4218V59.4887Z" fill="#1C1F27"/>
<path opacity="0.3" d="M74.9297 37.7928C74.9297 25.4544 80.2176 20.1665 85.5054 20.1665C90.7933 20.1665 96.0812 25.4544 96.0812 37.7928C96.0812 50.1312 90.7933 55.4191 85.5054 55.4191C80.2176 55.4191 74.9297 50.1312 74.9297 37.7928ZM112.826 37.7928C112.826 17.9633 100.047 5.1842 85.5054 5.1842C70.9638 5.1842 58.1847 17.9633 58.1847 37.7928C58.1847 57.6224 70.9638 70.4015 85.5054 70.4015C100.047 70.4015 112.826 57.6224 112.826 37.7928Z" fill="#1C1F27"/>
<path opacity="0.3" d="M74.4629 35.2007C74.4629 22.8623 79.7508 17.5744 85.0386 17.5744C90.3265 17.5744 95.6144 22.8623 95.6144 35.2007C95.6144 47.5391 90.3265 52.827 85.0386 52.827C79.7508 52.827 74.4629 47.5391 74.4629 35.2007ZM112.359 35.2007C112.359 15.3712 99.5803 2.5921 85.0386 2.5921C70.497 2.5921 57.7179 15.3712 57.7179 35.2007C57.7179 55.0303 70.497 67.8094 85.0386 67.8094C99.5803 67.8094 112.359 55.0303 112.359 35.2007Z" fill="#1C1F27"/>
<path opacity="0.3" d="M74.4629 32.6086C74.4629 20.2702 79.7508 14.9823 85.0386 14.9823C90.3265 14.9823 95.6144 20.2702 95.6144 32.6086C95.6144 44.947 90.3265 50.2349 85.0386 50.2349C79.7508 50.2349 74.4629 44.947 74.4629 32.6086ZM112.359 32.6086C112.359 12.7791 99.5803 0 85.0386 0C70.497 0 57.7179 12.7791 57.7179 32.6086C57.7179 52.4382 70.497 65.2173 85.0386 65.2173C99.5803 65.2173 112.359 52.4382 112.359 32.6086Z" fill="#1C1F27"/>
<path opacity="0.5" d="M74.9297 40.3849C74.9297 28.0465 80.2176 22.7586 85.5054 22.7586C90.7933 22.7586 96.0812 28.0465 96.0812 40.3849C96.0812 52.7233 90.7933 58.0112 85.5054 58.0112C80.2176 58.0112 74.9297 52.7233 74.9297 40.3849ZM112.826 40.3849C112.826 20.5554 100.047 7.77631 85.5054 7.77631C70.9638 7.77631 58.1847 20.5554 58.1847 40.3849C58.1847 60.2145 70.9638 72.9936 85.5054 72.9936C100.047 72.9936 112.826 60.2145 112.826 40.3849Z" fill="#1C1F27"/>
<path opacity="0.7" d="M74.9297 42.977C74.9297 30.6386 80.2176 25.3508 85.5054 25.3508C90.7933 25.3508 96.0812 30.6386 96.0812 42.977C96.0812 55.3154 90.7933 60.6033 85.5054 60.6033C80.2176 60.6033 74.9297 55.3154 74.9297 42.977ZM112.826 42.977C112.826 23.1475 100.047 10.3684 85.5054 10.3684C70.9638 10.3684 58.1847 23.1475 58.1847 42.977C58.1847 62.8066 70.9638 75.5857 85.5054 75.5857C100.047 75.5857 112.826 62.8066 112.826 42.977Z" fill="#1C1F27"/>
<path d="M74.9297 45.5691C74.9297 33.2307 80.2176 27.9429 85.5054 27.9429C90.7933 27.9429 96.0812 33.2307 96.0812 45.5691C96.0812 57.9075 90.7933 63.1954 85.5054 63.1954C80.2176 63.1954 74.9297 57.9075 74.9297 45.5691ZM112.826 45.5691C112.826 25.7396 100.047 12.9605 85.5054 12.9605C70.9638 12.9605 58.1847 25.7396 58.1847 45.5691C58.1847 65.3987 70.9638 78.1778 85.5054 78.1778C100.047 78.1778 112.826 65.3987 112.826 45.5691Z" fill="#1C1F27"/>
</svg>
