<svg width="50" height="50" viewBox="0 0 50 50" fill="none" xmlns="http://www.w3.org/2000/svg">
<path fill-rule="evenodd" clip-rule="evenodd" d="M7 16.1739C7 15.0693 7.89543 14.1739 9 14.1739H38.0435C39.148 14.1739 40.0435 15.0693 40.0435 16.1739V17.3913C40.0435 18.4959 39.148 19.3913 38.0435 19.3913H9C7.89543 19.3913 7 18.4959 7 17.3913V16.1739ZM13.9565 24.8695C13.9565 23.765 14.852 22.8695 15.9565 22.8695H45C46.1046 22.8695 47 23.765 47 24.8695V26.0869C47 27.1915 46.1046 28.0869 45 28.0869H15.9565C14.852 28.0869 13.9565 27.1915 13.9565 26.0869V24.8695ZM9 31.5652C7.89543 31.5652 7 32.4606 7 33.5652V34.7826C7 35.8871 7.89543 36.7826 9 36.7826H38.0435C39.148 36.7826 40.0435 35.8871 40.0435 34.7826V33.5652C40.0435 32.4606 39.148 31.5652 38.0435 31.5652H9Z" fill="white"/>
</svg>
