<svg width="50" height="50" viewBox="0 0 50 50" fill="none" xmlns="http://www.w3.org/2000/svg">
<path opacity="0.4" fill-rule="evenodd" clip-rule="evenodd" d="M7 16.17C7 15.0655 7.89543 14.17 9 14.17H38.0435C39.148 14.17 40.0435 15.0655 40.0435 16.17V17.3874C40.0435 18.492 39.148 19.3874 38.0435 19.3874H9C7.89543 19.3874 7 18.492 7 17.3874V16.17ZM13.9565 24.8696C13.9565 23.765 14.852 22.8696 15.9565 22.8696H45C46.1046 22.8696 47 23.765 47 24.8696V26.087C47 27.1915 46.1046 28.087 45 28.087H15.9565C14.852 28.087 13.9565 27.1915 13.9565 26.087V24.8696ZM9 31.5652C7.89543 31.5652 7 32.4606 7 33.5652V34.7826C7 35.8872 7.89543 36.7826 9 36.7826H38.0435C39.148 36.7826 40.0435 35.8872 40.0435 34.7826V33.5652C40.0435 32.4606 39.148 31.5652 38.0435 31.5652H9Z" fill="white"/>
<rect x="7" y="14.17" width="24" height="5.22" rx="2" fill="white"/>
<rect x="13.9565" y="22.8695" width="27.04" height="5.21739" rx="2" fill="white"/>
<rect x="7" y="31.5652" width="12.04" height="5.21739" rx="2" fill="white"/>
</svg>
