<svg width="50" height="50" viewBox="0 0 50 50" fill="none" xmlns="http://www.w3.org/2000/svg">
<path fill-rule="evenodd" clip-rule="evenodd" d="M34.5 5C35.3284 5 36 5.67157 36 6.5L36 37.5C36 38.3284 35.3284 39 34.5 39C33.6716 39 33 38.3284 33 37.5L33 6.5C33 5.67157 33.6716 5 34.5 5ZM24.5 12C25.3284 12 26 12.6716 26 13.5L26 43.5C26 44.3284 25.3284 45 24.5 45C23.6716 45 23 44.3284 23 43.5L23 13.5C23 12.6716 23.6716 12 24.5 12ZM17 6.5C17 5.67157 16.3284 5 15.5 5C14.6716 5 14 5.67157 14 6.5L14 37.5C14 38.3284 14.6716 39 15.5 39C16.3284 39 17 38.3284 17 37.5L17 6.5Z" fill="white"/>
<circle cx="15.5" cy="30.5" r="3.5" fill="white"/>
<circle cx="24.5" cy="20.5" r="3.5" fill="white"/>
<circle cx="34.5" cy="31.5" r="3.5" fill="white"/>
</svg>
