<svg width="468" height="320" viewBox="0 0 468 320" fill="none" xmlns="http://www.w3.org/2000/svg">
<g clip-path="url(#clip0)">
<g opacity="0.1">
<path opacity="0.1" d="M66.2528 165.235C64.8146 165.621 63.5901 166.568 62.8487 167.869C62.1073 169.17 61.9097 170.718 62.2995 172.173C62.6892 173.627 63.6344 174.869 64.927 175.625C66.2195 176.381 67.7537 176.59 69.192 176.204C70.6302 175.819 71.8547 174.872 72.5961 173.57C73.3375 172.269 73.535 170.721 73.1453 169.267C72.7555 167.812 71.8104 166.57 70.5178 165.814C69.2252 165.058 67.6911 164.85 66.2528 165.235V165.235ZM99.2004 162.285C103.759 179.3 95.8733 193.252 84.0186 196.428C81.2285 197.2 78.287 197.249 75.4648 196.572C72.6426 195.895 70.0304 194.513 67.8685 192.553L69.632 199.135L44.6867 205.819L24.1128 129.036L49.0581 122.352L56.9596 151.841C57.8519 149.062 59.4231 146.559 61.5286 144.562C63.6341 142.564 66.2064 141.136 69.0086 140.41C80.9573 137.181 94.7422 145.244 99.3013 162.258L99.2004 162.285Z" fill="#1C1F27"/>
<path opacity="0.1" d="M128.427 121.235C127.749 121.437 127.12 121.776 126.577 122.231C126.035 122.686 125.59 123.249 125.27 123.884C124.949 124.519 124.761 125.215 124.715 125.927C124.669 126.64 124.767 127.356 125.003 128.031C125.105 128.754 125.357 129.447 125.743 130.066C126.129 130.685 126.641 131.214 127.244 131.619C127.848 132.024 128.528 132.295 129.242 132.415C129.955 132.535 130.685 132.5 131.382 132.313C132.079 132.126 132.728 131.792 133.286 131.331C133.844 130.871 134.298 130.296 134.618 129.643C134.938 128.991 135.116 128.277 135.142 127.548C135.167 126.819 135.038 126.092 134.765 125.415C134.632 124.715 134.361 124.048 133.967 123.455C133.573 122.862 133.064 122.354 132.472 121.964C131.88 121.573 131.216 121.307 130.521 121.182C129.826 121.057 129.114 121.075 128.427 121.235ZM137.538 155.239C119.63 160.037 103.088 150.362 98.9735 135.005C94.8587 119.649 104.34 102.973 122.248 98.1747C140.156 93.3763 156.705 103.077 160.82 118.434C164.935 133.79 155.421 150.447 137.538 155.239V155.239Z" fill="#1C1F27"/>
<path opacity="0.1" d="M214.411 153.178C213.518 155.956 211.947 158.459 209.842 160.457C207.736 162.454 205.164 163.882 202.362 164.609C192.046 167.373 181.716 161.31 178.039 147.586L169.242 114.755L194.213 108.065L201.253 134.339C201.336 134.886 201.529 135.41 201.82 135.88C202.112 136.349 202.495 136.754 202.947 137.069C203.399 137.383 203.91 137.601 204.447 137.709C204.985 137.817 205.538 137.812 206.072 137.696C207.191 137.103 208.056 136.12 208.507 134.928C208.959 133.736 208.965 132.416 208.526 131.215L201.779 106.037L226.725 99.3529L241.12 153.075L216.174 159.759L214.411 153.178Z" fill="#1C1F27"/>
<path opacity="0.1" d="M271.555 121.681C272.447 118.902 274.018 116.399 276.124 114.402C278.229 112.404 280.802 110.977 283.604 110.25C293.92 107.486 304.275 113.542 307.945 127.241L316.763 160.148L291.792 166.838L284.731 140.487C284.653 139.924 284.457 139.383 284.158 138.9C283.858 138.417 283.461 138.002 282.993 137.684C282.525 137.365 281.996 137.15 281.441 137.052C280.886 136.953 280.317 136.974 279.772 137.114C278.669 137.725 277.824 138.721 277.394 139.917C276.964 141.113 276.978 142.427 277.433 143.619L284.2 168.873L259.255 175.557L244.86 121.834L269.805 115.15L271.555 121.681Z" fill="#1C1F27"/>
<path opacity="0.1" d="M346.105 102.58C347.682 102.051 349.128 101.189 350.347 100.052C351.566 98.9145 352.531 97.5274 353.177 95.9823L371.933 107.361C369.887 111.871 366.856 115.851 363.066 119.001C359.276 122.152 354.825 124.393 350.045 125.557C332.162 130.348 315.62 120.673 311.505 105.316C307.391 89.9599 316.872 73.2843 334.755 68.4925C339.478 67.111 344.457 66.8287 349.316 67.6668C354.176 68.5049 358.79 70.4416 362.815 73.3319L352.261 92.5641C350.947 91.5608 349.441 90.8457 347.839 90.4649C346.238 90.084 344.577 90.0458 342.964 90.3527C342.054 90.4338 341.174 90.7149 340.385 91.1762C339.596 91.6376 338.917 92.268 338.397 93.0235C337.876 93.779 337.525 94.6412 337.37 95.5498C337.215 96.4584 337.258 97.3915 337.497 98.2836C337.736 99.1758 338.165 100.006 338.754 100.715C339.343 101.424 340.077 101.995 340.906 102.389C341.735 102.783 342.638 102.99 343.552 102.995C344.466 103 345.369 102.803 346.197 102.419L346.105 102.58Z" fill="#1C1F27"/>
<path opacity="0.1" d="M387.567 51.1972L398.413 48.2911C398.023 46.8365 397.078 45.5946 395.786 44.8386C394.493 44.0825 392.959 43.8743 391.521 44.2597C390.082 44.645 388.858 45.5925 388.117 46.8935C387.375 48.1946 387.178 49.7426 387.567 51.1972ZM392.676 61.585C392.676 61.585 395.322 65.0043 402.384 63.1119C405.596 62.1087 408.505 60.3144 410.852 57.8901L423.945 72.0442C418.319 77.8956 411.184 82.0417 403.336 84.0185C385.428 88.817 368.886 79.1416 364.772 63.7851C360.506 47.8673 369.583 31.9016 386.962 27.245C404.34 22.5885 420.184 31.8769 424.155 46.6977C424.773 48.742 424.953 50.8934 424.683 53.0085L392.676 61.585Z" fill="#1C1F27"/>
</g>
<g opacity="0.23">
<path opacity="0.23" d="M63.0128 163.233C61.5746 163.618 60.3501 164.566 59.6087 165.867C58.8673 167.168 58.6697 168.716 59.0595 170.17C59.4493 171.625 60.3944 172.867 61.687 173.623C62.9796 174.379 64.5137 174.587 65.952 174.202C67.3902 173.816 68.6147 172.869 69.3561 171.568C70.0975 170.267 70.295 168.719 69.9053 167.264C69.5155 165.81 68.5704 164.568 67.2778 163.812C65.9852 163.056 64.4511 162.847 63.0128 163.233ZM95.9604 160.283C100.519 177.297 92.6333 191.249 80.7786 194.425C77.9885 195.197 75.047 195.247 72.2248 194.57C69.4026 193.893 66.7904 192.511 64.6285 190.551L66.3578 197.004L41.4125 203.689L20.8386 126.906L45.7839 120.222L53.7196 149.838C54.6119 147.06 56.1831 144.557 58.2886 142.559C60.3941 140.562 62.9664 139.134 65.7686 138.407C77.7173 135.178 91.5022 143.241 96.0613 160.256L95.9604 160.283Z" fill="#1C1F27"/>
<path opacity="0.23" d="M125.187 119.232C124.51 119.434 123.88 119.773 123.338 120.228C122.795 120.684 122.35 121.246 122.03 121.881C121.71 122.517 121.521 123.212 121.475 123.925C121.43 124.638 121.528 125.353 121.764 126.028C121.865 126.751 122.117 127.445 122.503 128.063C122.89 128.682 123.401 129.212 124.005 129.616C124.608 130.021 125.289 130.293 126.002 130.412C126.715 130.532 127.445 130.497 128.142 130.31C128.839 130.124 129.489 129.789 130.047 129.329C130.604 128.868 131.058 128.293 131.378 127.641C131.698 126.988 131.877 126.274 131.902 125.545C131.927 124.816 131.799 124.089 131.525 123.413C131.392 122.712 131.121 122.045 130.727 121.452C130.333 120.859 129.824 120.352 129.232 119.961C128.64 119.571 127.976 119.305 127.281 119.179C126.586 119.054 125.874 119.072 125.187 119.232V119.232ZM134.299 153.236C116.39 158.035 99.8485 148.359 95.7338 133.003C91.619 117.646 101.107 100.996 119.015 96.1976C136.923 91.3991 153.465 101.075 157.58 116.431C161.695 131.788 152.182 148.445 134.299 153.236Z" fill="#1C1F27"/>
<path opacity="0.23" d="M211.171 151.175C210.278 153.954 208.707 156.457 206.602 158.454C204.496 160.452 201.924 161.879 199.122 162.606C188.806 165.37 178.476 159.307 174.806 145.609L165.988 112.702L190.959 106.011L198.02 132.362C198.09 132.921 198.275 133.459 198.562 133.943C198.85 134.426 199.235 134.844 199.691 135.17C200.147 135.496 200.666 135.722 201.212 135.834C201.759 135.946 202.323 135.941 202.866 135.821C204.003 135.221 204.879 134.219 205.327 133.004C205.775 131.79 205.762 130.449 205.292 129.237L198.526 103.983L223.471 97.2993L237.873 151.047L212.927 157.731L211.171 151.175Z" fill="#1C1F27"/>
<path opacity="0.23" d="M268.315 119.678C269.207 116.9 270.778 114.397 272.884 112.399C274.989 110.402 277.562 108.974 280.364 108.247C290.68 105.483 301.035 111.54 304.705 125.238L313.516 158.119L288.545 164.81L281.498 138.51C281.406 137.958 281.202 137.43 280.899 136.959C280.595 136.489 280.2 136.086 279.736 135.776C279.272 135.467 278.751 135.257 278.204 135.16C277.658 135.063 277.098 135.081 276.56 135.213C274.92 135.652 273.346 138.453 274.227 141.743L280.953 166.845L256.008 173.529L241.606 119.781L266.551 113.097L268.315 119.678Z" fill="#1C1F27"/>
<path opacity="0.23" d="M342.872 100.603C344.449 100.074 345.895 99.212 347.114 98.0747C348.333 96.9373 349.298 95.5502 349.944 94.0051L368.7 105.384C366.654 109.894 363.623 113.873 359.833 117.024C356.043 120.175 351.592 122.416 346.812 123.579C328.929 128.371 312.387 118.696 308.272 103.339C304.158 87.9827 313.646 71.3326 331.528 66.5408C336.25 65.1587 341.225 64.8738 346.083 65.7074C350.941 66.5409 355.555 68.4715 359.582 71.3547L349.028 90.5869C347.715 89.5783 346.208 88.8581 344.606 88.4728C343.003 88.0875 341.34 88.0456 339.724 88.35C338.822 88.4421 337.952 88.7308 337.173 89.1963C336.394 89.6618 335.725 90.293 335.213 91.0462C334.701 91.7995 334.357 92.6569 334.206 93.5593C334.055 94.4618 334.099 95.3877 334.336 96.2733C334.574 97.1589 334.998 97.9831 335.581 98.6889C336.163 99.3948 336.889 99.9655 337.709 100.362C338.53 100.758 339.424 100.97 340.331 100.984C341.238 100.998 342.137 100.813 342.964 100.441L342.872 100.603Z" fill="#1C1F27"/>
<path opacity="0.23" d="M384.327 49.1947L395.173 46.2885C394.783 44.834 393.838 43.5921 392.545 42.836C391.253 42.08 389.719 41.8717 388.28 42.2571C386.842 42.6425 385.618 43.5899 384.876 44.891C384.135 46.192 383.937 47.7401 384.327 49.1947V49.1947ZM389.442 59.6079C389.442 59.6079 392.082 63.0018 399.144 61.1094C402.353 60.1095 405.264 58.3247 407.619 55.9131L420.704 70.0416C415.079 75.8931 407.944 80.0391 400.096 82.016C382.188 86.8145 365.646 77.1391 361.531 61.7825C357.266 45.8647 366.35 29.9245 383.728 25.268C401.107 20.6114 416.943 29.8743 420.887 44.5931C421.509 46.6455 421.691 48.8055 421.423 50.9294L389.442 59.6079Z" fill="#1C1F27"/>
</g>
<g opacity="0.36">
<path opacity="0.36" d="M59.7731 161.23C58.3348 161.615 57.1103 162.563 56.3689 163.864C55.6276 165.165 55.43 166.713 55.8198 168.168C56.2095 169.622 57.1546 170.864 58.4472 171.62C59.7398 172.376 61.274 172.584 62.7122 172.199C64.1505 171.814 65.375 170.866 66.1164 169.565C66.8578 168.264 67.0553 166.716 66.6655 165.261C66.2758 163.807 65.3307 162.565 64.0381 161.809C62.7455 161.053 61.2113 160.845 59.7731 161.23ZM92.7207 158.28C97.2797 175.295 89.3936 189.246 77.5389 192.423C74.7487 193.195 71.8072 193.244 68.9851 192.567C66.1629 191.89 63.5506 190.508 61.3888 188.548L63.1523 195.129L38.2069 201.813L17.5989 124.903L42.5442 118.219L50.4798 147.835C51.3721 145.057 52.9433 142.554 55.0489 140.556C57.1544 138.559 59.7266 137.131 62.5288 136.404C74.4776 133.175 88.2693 141.264 92.8216 158.253L92.7207 158.28Z" fill="#1C1F27"/>
<path opacity="0.36" d="M121.947 117.23C121.27 117.431 120.64 117.77 120.098 118.226C119.555 118.681 119.11 119.243 118.79 119.879C118.47 120.514 118.281 121.209 118.235 121.922C118.19 122.635 118.288 123.35 118.524 124.025C118.625 124.748 118.877 125.442 119.263 126.061C119.65 126.679 120.161 127.209 120.765 127.614C121.368 128.019 122.049 128.29 122.762 128.41C123.475 128.529 124.205 128.495 124.902 128.308C125.599 128.121 126.249 127.786 126.807 127.326C127.365 126.866 127.818 126.29 128.138 125.638C128.458 124.986 128.637 124.271 128.662 123.542C128.687 122.813 128.559 122.087 128.285 121.41C128.152 120.709 127.881 120.043 127.487 119.449C127.093 118.856 126.584 118.349 125.992 117.959C125.4 117.568 124.736 117.302 124.041 117.177C123.346 117.052 122.634 117.07 121.947 117.23V117.23ZM131.065 151.259C113.157 156.058 96.6086 146.357 92.4938 131C88.379 115.644 97.867 98.9934 115.775 94.1949C133.683 89.3965 150.225 99.0719 154.34 114.428C158.455 129.785 148.948 146.467 131.065 151.259Z" fill="#1C1F27"/>
<path opacity="0.36" d="M207.931 149.173C207.039 151.951 205.468 154.454 203.362 156.452C201.256 158.449 198.684 159.877 195.882 160.603C185.566 163.368 175.243 157.33 171.566 143.606L162.749 110.699L187.719 104.008L194.78 130.359C194.858 130.923 195.054 131.464 195.353 131.947C195.653 132.43 196.05 132.844 196.518 133.163C196.986 133.481 197.515 133.697 198.07 133.795C198.625 133.893 199.194 133.872 199.739 133.733C200.836 133.117 201.675 132.121 202.1 130.927C202.525 129.733 202.508 128.422 202.053 127.235L195.286 101.981L220.231 95.2966L234.667 149.172L209.722 155.856L207.931 149.173Z" fill="#1C1F27"/>
<path opacity="0.36" d="M265.075 117.675C265.967 114.897 267.539 112.394 269.644 110.397C271.75 108.399 274.322 106.971 277.124 106.245C287.44 103.48 297.795 109.537 301.472 123.261L310.31 156.244L285.34 162.935L278.258 136.508C278.18 135.944 277.984 135.403 277.685 134.92C277.385 134.437 276.988 134.023 276.52 133.704C276.052 133.386 275.523 133.17 274.968 133.072C274.413 132.974 273.844 132.995 273.299 133.134C272.196 133.746 271.351 134.741 270.921 135.937C270.491 137.133 270.505 138.448 270.96 139.639L277.748 164.969L252.802 171.654L238.366 117.778L263.312 111.094L265.075 117.675Z" fill="#1C1F27"/>
<path opacity="0.36" d="M339.632 98.6C341.209 98.071 342.655 97.2093 343.874 96.072C345.093 94.9347 346.058 93.5476 346.705 92.0024L365.46 103.381C363.42 107.897 360.392 111.881 356.602 115.037C352.813 118.192 348.361 120.437 343.579 121.602C325.696 126.394 309.147 116.693 305.033 101.337C300.918 85.98 310.406 69.3299 328.289 64.5382C333.012 63.1566 337.991 62.8743 342.85 63.7124C347.709 64.5505 352.324 66.4872 356.349 69.3775L345.795 88.6097C344.481 87.6065 342.975 86.8914 341.373 86.5105C339.772 86.1296 338.111 86.0914 336.498 86.3983C335.588 86.4794 334.708 86.7605 333.919 87.2219C333.13 87.6832 332.451 88.3137 331.93 89.0692C331.41 89.8246 331.059 90.6869 330.904 91.5955C330.749 92.5041 330.792 93.4371 331.031 94.3293C331.27 95.2214 331.699 96.0512 332.288 96.7604C332.877 97.4696 333.611 98.0411 334.44 98.435C335.269 98.8289 336.172 99.0356 337.086 99.0406C338 99.0456 338.902 98.8489 339.731 98.4642L339.632 98.6Z" fill="#1C1F27"/>
<path opacity="0.36" d="M381.094 47.2175L391.94 44.3114C391.55 42.8568 390.605 41.6149 389.312 40.8589C388.02 40.1029 386.486 39.8946 385.047 40.28C383.609 40.6654 382.385 41.6128 381.643 42.9138C380.902 44.2149 380.704 45.763 381.094 47.2175V47.2175ZM386.202 57.6053C386.202 57.6053 388.842 60.9991 395.904 59.1068C399.113 58.1068 402.024 56.3221 404.379 53.9105L417.464 68.039C411.848 73.9042 404.714 78.0602 396.863 80.0389C378.955 84.8373 362.406 75.1364 358.291 59.7799C354.033 43.8876 363.11 27.9219 380.488 23.2653C397.867 18.6088 413.71 27.8972 417.681 42.718C418.303 44.7704 418.486 46.9304 418.217 49.0543L386.202 57.6053Z" fill="#1C1F27"/>
</g>
<g opacity="0.49">
<path opacity="0.49" d="M56.5333 159.228C55.1812 159.692 54.0569 160.658 53.3877 161.931C52.7186 163.204 52.5545 164.689 52.9287 166.085C53.3029 167.482 54.1874 168.686 55.4034 169.454C56.6194 170.222 58.0763 170.496 59.4793 170.222C60.8315 169.758 61.9558 168.792 62.6249 167.519C63.2941 166.246 63.4581 164.761 63.084 163.364C62.7098 161.968 61.8253 160.764 60.6092 159.996C59.3932 159.228 57.9364 158.953 56.5333 159.228V159.228ZM89.4809 156.278C94.04 173.292 86.1538 187.244 74.2991 190.42C71.509 191.192 68.5675 191.242 65.7453 190.565C62.9231 189.887 60.3109 188.505 58.149 186.545L59.9125 193.127L34.9672 199.811L14.3591 122.901L39.3045 116.216L47.2469 145.858C48.1392 143.08 49.7104 140.577 51.8159 138.579C53.9215 136.582 56.4937 135.154 59.2959 134.427C71.2447 131.198 85.0296 139.261 89.5818 156.25L89.4809 156.278Z" fill="#1C1F27"/>
<path opacity="0.49" d="M118.708 115.227C118.03 115.429 117.401 115.768 116.858 116.223C116.315 116.678 115.87 117.241 115.55 117.876C115.23 118.512 115.041 119.207 114.996 119.919C114.95 120.632 115.048 121.348 115.284 122.023C115.385 122.746 115.637 123.44 116.024 124.058C116.41 124.677 116.922 125.206 117.525 125.611C118.128 126.016 118.809 126.287 119.522 126.407C120.236 126.527 120.965 126.492 121.662 126.305C122.36 126.118 123.009 125.784 123.567 125.323C124.125 124.863 124.579 124.288 124.899 123.635C125.219 122.983 125.397 122.269 125.422 121.54C125.448 120.811 125.319 120.084 125.045 119.407C124.913 118.707 124.641 118.04 124.247 117.447C123.853 116.854 123.345 116.346 122.753 115.956C122.16 115.565 121.497 115.299 120.802 115.174C120.106 115.049 119.394 115.067 118.708 115.227ZM127.826 149.256C109.918 154.055 93.3756 144.38 89.254 128.997C85.1324 113.615 94.6273 96.9908 112.535 92.1923C130.444 87.3938 146.985 97.0693 151.1 112.426C155.215 127.782 145.709 144.465 127.826 149.256V149.256Z" fill="#1C1F27"/>
<path opacity="0.49" d="M204.691 147.17C203.799 149.948 202.228 152.451 200.122 154.449C198.016 156.446 195.444 157.874 192.642 158.601C182.326 161.365 172.003 155.327 168.326 141.603L159.515 108.722L184.486 102.031L191.54 128.357C191.618 128.92 191.814 129.461 192.113 129.944C192.413 130.427 192.81 130.842 193.278 131.16C193.746 131.479 194.275 131.694 194.83 131.792C195.385 131.891 195.954 131.87 196.499 131.73C197.596 131.115 198.435 130.118 198.86 128.924C199.285 127.731 199.268 126.42 198.813 125.232L192.053 100.004L216.998 93.3195L231.4 147.067L206.454 153.752L204.691 147.17Z" fill="#1C1F27"/>
<path opacity="0.49" d="M261.842 115.698C262.734 112.92 264.305 110.417 266.411 108.42C268.517 106.422 271.089 104.994 273.891 104.268C284.207 101.503 294.555 107.534 298.232 121.258L307.05 154.165L282.079 160.856L275.018 134.505C274.94 133.942 274.744 133.401 274.445 132.918C274.145 132.434 273.749 132.02 273.28 131.702C272.812 131.383 272.283 131.168 271.728 131.069C271.173 130.971 270.604 130.992 270.059 131.131C268.965 131.74 268.125 132.726 267.694 133.91C267.262 135.095 267.266 136.399 267.707 137.585L274.467 162.814L249.521 169.498L235.133 115.801L260.079 109.117L261.842 115.698Z" fill="#1C1F27"/>
<path opacity="0.49" d="M336.392 96.5975C337.972 96.0612 339.418 95.191 340.635 94.0447C341.852 92.8983 342.812 91.5021 343.451 89.9489L362.206 101.328C360.166 105.843 357.138 109.828 353.349 112.983C349.559 116.139 345.107 118.383 340.325 119.549C322.442 124.341 305.901 114.665 301.779 99.283C297.657 83.901 307.152 67.2764 325.035 62.4847C329.759 61.1031 334.737 60.8208 339.596 61.6589C344.456 62.497 349.071 64.4337 353.095 67.324L342.542 86.5562C341.204 85.5679 339.676 84.8746 338.058 84.5213C336.44 84.1681 334.769 84.1629 333.152 84.5061C332.243 84.5872 331.362 84.8683 330.573 85.3297C329.784 85.791 329.106 86.4215 328.585 87.177C328.064 87.9325 327.714 88.7947 327.558 89.7033C327.403 90.6119 327.446 91.5449 327.685 92.4371C327.925 93.3293 328.353 94.159 328.942 94.8682C329.531 95.5774 330.266 96.1489 331.094 96.5428C331.923 96.9367 332.826 97.1434 333.74 97.1484C334.654 97.1535 335.557 96.9567 336.386 96.572L336.392 96.5975Z" fill="#1C1F27"/>
<path opacity="0.49" d="M377.847 45.1895L388.693 42.2833C388.303 40.8288 387.358 39.5869 386.065 38.8308C384.773 38.0748 383.239 37.8665 381.8 38.2519C380.362 38.6373 379.138 39.5847 378.396 40.8858C377.655 42.1868 377.457 43.7349 377.847 45.1895V45.1895ZM382.955 55.5772C382.955 55.5772 385.602 58.9965 392.664 57.1042C395.875 56.1009 398.785 54.3066 401.132 51.8824L414.218 66.0109C408.602 71.8761 401.467 76.0321 393.616 78.0108C375.708 82.8093 359.166 73.1339 355.045 57.7518C350.786 41.8596 359.863 25.8938 377.241 21.2373C394.62 16.5807 410.498 25.9967 414.428 40.6645C415.049 42.7168 415.232 44.8768 414.963 47.0008L382.955 55.5772Z" fill="#1C1F27"/>
</g>
<g opacity="0.61">
<path opacity="0.61" d="M53.3002 157.25C52.5581 157.388 51.8553 157.686 51.2399 158.124C50.6246 158.563 50.1114 159.131 49.7356 159.79C49.3599 160.45 49.1306 161.184 49.0635 161.943C48.9964 162.703 49.0931 163.468 49.3469 164.188C49.4869 164.938 49.786 165.65 50.2237 166.273C50.6614 166.897 51.2273 167.419 51.8823 167.802C52.5374 168.185 53.266 168.421 54.0182 168.493C54.7703 168.565 55.5281 168.472 56.2393 168.219C56.9814 168.082 57.6842 167.784 58.2996 167.346C58.9149 166.907 59.4281 166.339 59.8039 165.679C60.1796 165.02 60.4089 164.285 60.476 163.526C60.5431 162.767 60.4464 162.001 60.1926 161.282C60.0526 160.532 59.7535 159.82 59.3158 159.196C58.8781 158.572 58.3122 158.051 57.6572 157.668C57.0021 157.285 56.2735 157.049 55.5213 156.977C54.7692 156.905 54.0114 156.998 53.3002 157.25V157.25ZM86.2478 154.3C90.8 171.289 82.9207 185.267 71.066 188.443C68.276 189.217 65.334 189.268 62.5113 188.591C59.6887 187.914 57.0765 186.53 54.9159 184.568L56.6862 191.175L31.7409 197.859L11.126 120.923L36.0713 114.239L44.0069 143.856C44.8992 141.077 46.4704 138.574 48.5759 136.577C50.6815 134.579 53.2537 133.151 56.0559 132.425C68.0047 129.196 81.7896 137.259 86.3487 154.273L86.2478 154.3Z" fill="#1C1F27"/>
<path opacity="0.61" d="M115.474 113.25C114.797 113.452 114.167 113.791 113.625 114.246C113.082 114.701 112.637 115.264 112.317 115.899C111.997 116.534 111.808 117.23 111.762 117.942C111.717 118.655 111.815 119.371 112.051 120.046C112.152 120.769 112.404 121.462 112.79 122.081C113.177 122.7 113.689 123.229 114.292 123.634C114.895 124.039 115.576 124.31 116.289 124.43C117.002 124.55 117.732 124.515 118.429 124.328C119.127 124.141 119.776 123.806 120.334 123.346C120.892 122.886 121.346 122.311 121.665 121.658C121.985 121.006 122.164 120.292 122.189 119.563C122.214 118.834 122.086 118.107 121.812 117.43C121.679 116.73 121.408 116.063 121.014 115.47C120.62 114.876 120.112 114.369 119.519 113.979C118.927 113.588 118.264 113.322 117.568 113.197C116.873 113.072 116.161 113.09 115.474 113.25ZM124.586 147.254C106.678 152.052 90.1357 142.377 86.0209 127.02C81.9061 111.664 91.3873 94.9882 109.295 90.1897C127.204 85.3912 143.746 95.0666 147.867 110.449C151.989 125.831 142.469 142.462 124.586 147.254V147.254Z" fill="#1C1F27"/>
<path opacity="0.61" d="M201.451 145.167C200.561 147.947 198.99 150.451 196.885 152.449C194.779 154.447 192.205 155.874 189.402 156.598C179.086 159.362 168.756 153.299 165.079 139.575L156.275 106.719L181.246 100.028L188.3 126.354C188.378 126.917 188.574 127.458 188.873 127.941C189.173 128.425 189.57 128.839 190.038 129.157C190.506 129.476 191.035 129.691 191.59 129.79C192.145 129.888 192.714 129.867 193.259 129.728C194.356 129.112 195.195 128.116 195.62 126.922C196.045 125.728 196.028 124.417 195.573 123.23L188.813 98.0009L213.758 91.3169L228.167 145.09L203.221 151.774L201.451 145.167Z" fill="#1C1F27"/>
<path opacity="0.61" d="M258.602 113.696C259.494 110.917 261.065 108.414 263.171 106.417C265.277 104.419 267.849 102.991 270.651 102.265C280.967 99.5006 291.315 105.532 294.992 119.256L303.81 152.163L278.839 158.853L271.778 132.502C271.7 131.939 271.504 131.398 271.205 130.915C270.905 130.432 270.508 130.017 270.04 129.699C269.572 129.38 269.043 129.165 268.488 129.067C267.933 128.968 267.364 128.989 266.819 129.128C265.702 129.746 264.849 130.756 264.422 131.968C263.995 133.181 264.023 134.512 264.501 135.71L271.268 160.964L246.322 167.648L231.893 113.798L256.839 107.114L258.602 113.696Z" fill="#1C1F27"/>
<path opacity="0.61" d="M333.152 94.5948C334.726 94.0767 336.171 93.2279 337.393 92.1041C338.616 90.9802 339.587 89.6068 340.245 88.0738L359 99.4527C356.96 103.968 353.932 107.953 350.143 111.108C346.353 114.264 341.901 116.508 337.119 117.674C319.236 122.465 302.694 112.79 298.58 97.4334C294.465 82.0769 303.946 65.4013 321.829 60.6095C326.553 59.228 331.531 58.9457 336.39 59.7838C341.25 60.6218 345.865 62.5586 349.889 65.4489L339.336 84.681C337.998 83.6928 336.47 82.9994 334.852 82.6462C333.234 82.293 331.563 82.2878 329.946 82.631C329.057 82.7595 328.205 83.0713 327.442 83.5471C326.679 84.0229 326.022 84.6525 325.512 85.3969C325.001 86.1413 324.648 86.9845 324.475 87.8742C324.302 88.764 324.312 89.6812 324.504 90.5691C324.795 91.4187 325.253 92.2007 325.851 92.8677C326.45 93.5347 327.175 94.0728 327.984 94.4493C328.793 94.8258 329.668 95.0328 330.556 95.0578C331.445 95.0828 332.328 94.9253 333.152 94.5948Z" fill="#1C1F27"/>
<path opacity="0.61" d="M374.642 43.3142L385.487 40.4081C385.098 38.9535 384.152 37.7116 382.86 36.9556C381.567 36.1995 380.033 35.9913 378.595 36.3767C377.157 36.7621 375.932 37.7095 375.191 39.0105C374.449 40.3116 374.252 41.8596 374.642 43.3142V43.3142ZM379.75 53.702C379.75 53.702 382.396 57.1213 389.459 55.2289C392.67 54.2257 395.58 52.4314 397.927 50.0071L411.012 64.1357C405.396 70.0009 398.261 74.1569 390.411 76.1355C372.503 80.934 355.961 71.2586 351.846 55.9021C347.581 39.9843 356.657 24.0186 374.036 19.362C391.414 14.7055 407.258 23.9939 411.229 38.8147C411.847 40.859 412.027 43.0104 411.758 45.1255L379.75 53.702Z" fill="#1C1F27"/>
</g>
<g opacity="0.74">
<path opacity="0.74" d="M50.0599 155.248C49.3179 155.385 48.615 155.683 47.9997 156.121C47.3843 156.56 46.8711 157.128 46.4954 157.788C46.1197 158.447 45.8904 159.182 45.8233 159.941C45.7562 160.7 45.8528 161.466 46.1066 162.185C46.2466 162.935 46.5458 163.647 46.9835 164.271C47.4212 164.895 47.987 165.416 48.6421 165.799C49.2971 166.182 50.0258 166.418 50.7779 166.49C51.5301 166.562 52.2879 166.469 52.9991 166.217C53.7411 166.079 54.444 165.781 55.0594 165.343C55.6747 164.904 56.1879 164.336 56.5636 163.677C56.9393 163.017 57.1686 162.283 57.2358 161.524C57.3029 160.764 57.2062 159.999 56.9524 159.279C56.8124 158.529 56.5132 157.817 56.0755 157.194C55.6378 156.57 55.072 156.048 54.4169 155.665C53.7619 155.282 53.0332 155.046 52.2811 154.974C51.5289 154.902 50.7712 154.995 50.0599 155.248ZM83.0075 152.298C87.5666 169.312 79.6804 183.264 67.8257 186.44C65.0356 187.212 62.0941 187.262 59.2719 186.585C56.4497 185.908 53.8375 184.525 51.6757 182.566L53.4391 189.147L28.4938 195.831L7.88574 118.921L32.8311 112.237L40.7667 141.853C41.659 139.075 43.2302 136.572 45.3357 134.574C47.4412 132.577 50.0135 131.149 52.8157 130.422C64.7644 127.193 78.5494 135.256 83.1084 152.271L83.0075 152.298Z" fill="#1C1F27"/>
<path opacity="0.74" d="M112.234 111.247C111.557 111.449 110.927 111.788 110.385 112.243C109.842 112.699 109.397 113.261 109.077 113.896C108.757 114.532 108.568 115.227 108.522 115.94C108.477 116.653 108.575 117.368 108.811 118.043C108.912 118.766 109.164 119.46 109.55 120.078C109.937 120.697 110.449 121.226 111.052 121.631C111.655 122.036 112.336 122.308 113.049 122.427C113.762 122.547 114.492 122.512 115.189 122.325C115.887 122.139 116.536 121.804 117.094 121.344C117.652 120.883 118.106 120.308 118.425 119.656C118.745 119.003 118.924 118.289 118.949 117.56C118.974 116.831 118.846 116.104 118.572 115.428C118.439 114.727 118.168 114.06 117.774 113.467C117.38 112.874 116.872 112.367 116.279 111.976C115.687 111.586 115.024 111.32 114.328 111.194C113.633 111.069 112.921 111.087 112.234 111.247ZM121.346 145.251C103.438 150.05 86.8957 140.374 82.7809 125.018C78.6661 109.661 88.1541 93.0111 106.062 88.2126C123.97 83.4141 140.512 93.0895 144.627 108.446C148.742 123.803 139.229 140.459 121.346 145.251Z" fill="#1C1F27"/>
<path opacity="0.74" d="M198.218 143.19C197.326 145.969 195.754 148.472 193.649 150.469C191.543 152.467 188.971 153.894 186.169 154.621C175.853 157.385 165.523 151.322 161.846 137.598L153.035 104.717L178.006 98.0258L185.06 124.351C185.138 124.915 185.334 125.456 185.633 125.939C185.933 126.422 186.33 126.836 186.798 127.155C187.266 127.473 187.795 127.689 188.35 127.787C188.905 127.885 189.474 127.864 190.019 127.725C191.116 127.109 191.955 126.113 192.38 124.919C192.805 123.725 192.788 122.414 192.333 121.227L185.573 95.9983L210.518 89.3142L224.927 143.088L199.981 149.772L198.218 143.19Z" fill="#1C1F27"/>
<path opacity="0.74" d="M255.362 111.693C256.254 108.915 257.825 106.412 259.931 104.414C262.037 102.417 264.609 100.989 267.411 100.262C277.727 97.498 288.082 103.555 291.752 117.253L300.57 150.16L275.599 156.851L268.538 130.5C268.46 129.936 268.264 129.395 267.965 128.912C267.665 128.429 267.269 128.015 266.8 127.696C266.332 127.378 265.803 127.162 265.248 127.064C264.693 126.966 264.124 126.987 263.579 127.126C262.476 127.738 261.631 128.734 261.201 129.929C260.771 131.125 260.785 132.44 261.24 133.631L268.007 158.885L243.062 165.569L228.653 111.796L253.599 105.112L255.362 111.693Z" fill="#1C1F27"/>
<path opacity="0.74" d="M329.912 92.5922C331.489 92.0631 332.935 91.2015 334.154 90.0641C335.373 88.9268 336.338 87.5397 336.985 85.9946L355.74 97.3735C353.695 101.884 350.664 105.863 346.873 109.014C343.083 112.164 338.632 114.405 333.852 115.569C315.969 120.361 299.427 110.685 295.313 95.3287C291.198 79.9722 300.686 63.322 318.569 58.5303C323.29 57.1482 328.265 56.8632 333.123 57.6968C337.981 58.5304 342.596 60.4609 346.622 63.3441L336.069 82.5763C334.754 81.5731 333.248 80.858 331.647 80.4771C330.045 80.0962 328.384 80.058 326.771 80.365C325.882 80.4934 325.03 80.8052 324.267 81.281C323.504 81.7568 322.847 82.3864 322.337 83.1308C321.826 83.8752 321.473 84.7184 321.3 85.6082C321.127 86.4979 321.137 87.4152 321.329 88.303C321.593 89.1681 322.03 89.9704 322.612 90.6605C323.194 91.3506 323.909 91.9139 324.713 92.3157C325.517 92.7175 326.393 92.9493 327.288 92.9969C328.182 93.0444 329.075 92.9067 329.912 92.5922V92.5922Z" fill="#1C1F27"/>
<path opacity="0.74" d="M371.374 41.2095L382.22 38.3034C381.83 36.8489 380.885 35.6069 379.593 34.8509C378.3 34.0949 376.766 33.8866 375.328 34.272C373.889 34.6574 372.665 35.6048 371.923 36.9058C371.182 38.2069 370.984 39.755 371.374 41.2095V41.2095ZM376.482 51.5973C376.482 51.5973 379.129 55.0166 386.191 53.1243C389.403 52.121 392.312 50.3267 394.659 47.9025L407.751 62.0565C402.126 67.9079 394.991 72.054 387.143 74.0309C369.235 78.8294 352.693 69.1539 348.578 53.7974C344.313 37.8796 353.397 21.9394 370.775 17.2829C388.154 12.6263 403.963 21.7872 407.962 36.7101C408.58 38.7544 408.76 40.9058 408.49 43.0209L376.482 51.5973Z" fill="#1C1F27"/>
</g>
<g opacity="0.87">
<path opacity="0.87" d="M46.82 153.245C46.0779 153.382 45.375 153.68 44.7597 154.119C44.1443 154.557 43.6311 155.126 43.2554 155.785C42.8797 156.444 42.6504 157.179 42.5833 157.938C42.5162 158.697 42.6128 159.463 42.8666 160.183C43.0067 160.933 43.3058 161.644 43.7435 162.268C44.1812 162.892 44.7471 163.413 45.4021 163.797C46.0571 164.18 46.7858 164.415 47.538 164.487C48.2901 164.56 49.0479 164.466 49.7591 164.214C50.5011 164.077 51.204 163.779 51.8194 163.34C52.4347 162.902 52.9479 162.333 53.3236 161.674C53.6993 161.015 53.9287 160.28 53.9958 159.521C54.0629 158.762 53.9662 157.996 53.7124 157.276C53.5724 156.526 53.2732 155.815 52.8355 155.191C52.3978 154.567 51.832 154.046 51.177 153.663C50.5219 153.279 49.7932 153.044 49.0411 152.972C48.2889 152.9 47.5312 152.993 46.82 153.245V153.245ZM79.7675 150.295C84.3266 167.31 76.4405 181.261 64.5857 184.438C61.7956 185.21 58.8541 185.259 56.0319 184.582C53.2097 183.905 50.5975 182.523 48.4357 180.563L50.1991 187.144L25.2538 193.828L4.64575 116.918L29.5911 110.234L37.5267 139.85C38.419 137.072 39.9902 134.569 42.0957 132.571C44.2013 130.574 46.7735 129.146 49.5757 128.42C61.5245 125.191 75.3094 133.253 79.8684 150.268L79.7675 150.295Z" fill="#1C1F27"/>
<path opacity="0.87" d="M108.994 109.245C108.317 109.446 107.687 109.785 107.144 110.241C106.602 110.696 106.157 111.258 105.837 111.894C105.517 112.529 105.328 113.224 105.282 113.937C105.236 114.65 105.335 115.365 105.571 116.04C105.672 116.763 105.924 117.457 106.31 118.076C106.697 118.694 107.208 119.224 107.812 119.629C108.415 120.034 109.096 120.305 109.809 120.425C110.522 120.544 111.252 120.51 111.949 120.323C112.646 120.136 113.296 119.801 113.853 119.341C114.411 118.881 114.865 118.305 115.185 117.653C115.505 117.001 115.684 116.286 115.709 115.557C115.734 114.828 115.606 114.102 115.332 113.425C115.199 112.724 114.928 112.058 114.534 111.464C114.14 110.871 113.631 110.364 113.039 109.974C112.447 109.583 111.783 109.317 111.088 109.192C110.393 109.067 109.681 109.085 108.994 109.245ZM118.106 143.249C100.197 148.047 83.6554 138.372 79.5407 123.015C75.4259 107.659 84.9139 91.0084 102.822 86.21C120.73 81.4115 137.272 91.0869 141.387 106.443C145.502 121.8 135.988 138.457 118.106 143.249Z" fill="#1C1F27"/>
<path opacity="0.87" d="M194.978 141.188C194.086 143.966 192.514 146.469 190.409 148.467C188.303 150.464 185.731 151.892 182.929 152.618C172.613 155.383 162.283 149.319 158.613 135.621L149.795 102.714L174.766 96.0232L181.813 122.323C181.892 122.887 182.087 123.428 182.387 123.911C182.686 124.394 183.083 124.808 183.551 125.127C184.019 125.445 184.548 125.661 185.103 125.759C185.658 125.857 186.227 125.836 186.772 125.697C187.86 125.085 188.693 124.098 189.12 122.915C189.547 121.733 189.54 120.432 189.1 119.25L182.333 93.9957L207.278 87.3116L221.687 141.085L196.741 147.769L194.978 141.188Z" fill="#1C1F27"/>
<path opacity="0.87" d="M252.122 109.69C253.015 106.912 254.586 104.409 256.691 102.412C258.797 100.414 261.369 98.9863 264.171 98.2596C274.487 95.4954 284.842 101.552 288.519 115.276L297.337 148.183L272.366 154.874L265.305 128.523C265.227 127.959 265.031 127.418 264.732 126.935C264.432 126.452 264.036 126.038 263.567 125.719C263.099 125.401 262.57 125.185 262.015 125.087C261.46 124.989 260.891 125.01 260.346 125.149C259.243 125.761 258.398 126.756 257.968 127.952C257.538 129.148 257.552 130.463 258.007 131.654L264.767 156.882L239.822 163.566L225.413 109.793L250.359 103.109L252.122 109.69Z" fill="#1C1F27"/>
<path opacity="0.87" d="M326.679 90.615C328.256 90.086 329.702 89.2243 330.921 88.087C332.14 86.9496 333.105 85.5625 333.751 84.0174L352.507 95.3963C350.461 99.9065 347.43 103.886 343.64 107.036C339.85 110.187 335.398 112.428 330.619 113.592C312.736 118.384 296.194 108.708 292.079 93.3515C287.964 77.995 297.452 61.3449 315.335 56.5532C320.056 55.171 325.032 54.8861 329.89 55.7197C334.748 56.5532 339.362 58.4838 343.389 61.367L332.835 80.5992C331.521 79.5959 330.014 78.8808 328.413 78.5C326.812 78.1191 325.151 78.0809 323.538 78.3878C322.651 78.5158 321.8 78.8263 321.038 79.3001C320.277 79.7739 319.62 80.401 319.11 81.1425C318.599 81.8841 318.245 82.7244 318.069 83.6116C317.894 84.4987 317.9 85.4138 318.089 86.3003C318.35 87.1685 318.785 87.9743 319.367 88.6678C319.948 89.3613 320.663 89.9278 321.468 90.3322C322.274 90.7366 323.152 90.9704 324.048 91.019C324.944 91.0677 325.84 90.9301 326.679 90.615V90.615Z" fill="#1C1F27"/>
<path opacity="0.87" d="M368.141 39.2325L378.987 36.3264C378.597 34.8718 377.652 33.6299 376.359 32.8739C375.067 32.1178 373.533 31.9096 372.094 32.295C370.656 32.6803 369.432 33.6278 368.69 34.9288C367.949 36.2298 367.751 37.7779 368.141 39.2325V39.2325ZM373.249 49.6202C373.249 49.6202 375.889 53.0141 382.951 51.1217C386.16 50.1218 389.071 48.337 391.426 45.9254L404.511 60.054C398.886 65.9054 391.751 70.0515 383.903 72.0283C365.995 76.8268 349.453 67.1514 345.339 51.7948C341.073 35.8771 350.157 19.9369 367.535 15.2803C384.914 10.6238 400.757 19.9122 404.722 34.7075C405.343 36.7598 405.526 38.9198 405.257 41.0438L373.249 49.6202Z" fill="#1C1F27"/>
</g>
<path d="M43.5595 151.166C42.8174 151.303 42.1145 151.601 41.4992 152.04C40.8838 152.478 40.3706 153.047 39.9949 153.706C39.6192 154.365 39.3899 155.1 39.3228 155.859C39.2557 156.618 39.3523 157.384 39.6061 158.103C39.7361 158.863 40.0289 159.585 40.4639 160.22C40.8989 160.855 41.4657 161.386 42.1244 161.778C42.783 162.169 43.5177 162.411 44.2769 162.486C45.0361 162.561 45.8014 162.467 46.5191 162.211C47.2611 162.074 47.964 161.776 48.5794 161.338C49.1947 160.899 49.7079 160.331 50.0836 159.671C50.4594 159.012 50.6887 158.278 50.7558 157.518C50.8229 156.759 50.7262 155.993 50.4724 155.274C50.3424 154.515 50.0497 153.792 49.6146 153.157C49.1796 152.523 48.6129 151.991 47.9542 151.6C47.2955 151.208 46.5608 150.966 45.8016 150.892C45.0425 150.817 44.2772 150.91 43.5595 151.166ZM76.5071 148.216C81.0661 165.231 73.18 179.182 61.3253 182.359C58.5351 183.13 55.5936 183.18 52.7714 182.503C49.9492 181.826 47.337 180.444 45.1752 178.484L46.9386 185.065L21.9933 191.749L1.40576 114.915L26.3511 108.231L34.2936 137.873C35.1837 135.094 36.7542 132.589 38.8601 130.592C40.9659 128.594 43.5393 127.167 46.3425 126.442C58.2845 123.188 72.0762 131.276 76.6285 148.265L76.5071 148.216Z" fill="#1C1F27"/>
<path d="M105.734 107.166C105.056 107.367 104.427 107.706 103.884 108.161C103.341 108.617 102.896 109.179 102.576 109.815C102.256 110.45 102.067 111.145 102.022 111.858C101.976 112.571 102.074 113.286 102.31 113.961C102.411 114.684 102.663 115.378 103.05 115.997C103.436 116.615 103.948 117.145 104.551 117.55C105.154 117.955 105.835 118.226 106.548 118.346C107.262 118.465 107.991 118.43 108.689 118.244C109.386 118.057 110.035 117.722 110.593 117.262C111.151 116.802 111.605 116.226 111.925 115.574C112.245 114.922 112.423 114.207 112.448 113.478C112.474 112.749 112.345 112.022 112.071 111.346C111.939 110.645 111.667 109.978 111.273 109.385C110.879 108.792 110.371 108.285 109.779 107.894C109.186 107.504 108.523 107.238 107.828 107.113C107.133 106.987 106.42 107.005 105.734 107.166ZM114.852 141.195C96.9437 145.993 80.4018 136.318 76.2802 120.936C72.1585 105.554 81.6739 89.0058 99.5821 84.2073C117.49 79.4088 134.032 89.0843 138.147 104.441C142.262 119.797 132.755 136.48 114.872 141.271L114.852 141.195Z" fill="#1C1F27"/>
<path d="M191.738 139.185C190.846 141.963 189.274 144.466 187.169 146.464C185.063 148.461 182.491 149.889 179.689 150.616C169.373 153.38 159.05 147.342 155.373 133.618L146.562 100.737L171.533 94.0461L178.607 120.448C178.686 121.012 178.881 121.553 179.181 122.036C179.48 122.519 179.877 122.933 180.345 123.252C180.813 123.57 181.342 123.786 181.897 123.884C182.452 123.982 183.021 123.961 183.566 123.822C184.678 123.201 185.524 122.19 185.946 120.979C186.368 119.769 186.338 118.442 185.86 117.247L179.1 92.0186L204.045 85.3345L218.447 139.082L193.501 145.767L191.738 139.185Z" fill="#1C1F27"/>
<path d="M248.889 107.713C249.779 104.934 251.35 102.43 253.455 100.432C255.561 98.434 258.135 97.007 260.938 96.2825C271.254 93.5183 281.609 99.5748 285.286 113.299L294.103 146.206L269.133 152.897L262.065 126.52C261.987 125.957 261.791 125.416 261.492 124.932C261.192 124.449 260.795 124.035 260.327 123.717C259.859 123.398 259.33 123.183 258.775 123.084C258.22 122.986 257.651 123.007 257.106 123.146C256.003 123.758 255.158 124.754 254.728 125.95C254.298 127.145 254.312 128.46 254.767 129.651L261.527 154.88L236.582 161.564L222.18 107.816L247.125 101.132L248.889 107.713Z" fill="#1C1F27"/>
<path d="M323.439 88.6124C325.016 88.0833 326.462 87.2217 327.681 86.0843C328.9 84.947 329.865 83.5599 330.511 82.0148L349.267 93.3937C347.227 97.9089 344.199 101.894 340.409 105.049C336.62 108.205 332.168 110.449 327.386 111.615C309.503 116.406 292.961 106.731 288.839 91.3489C284.718 75.9668 294.1 59.4271 311.983 54.6353C316.707 53.2538 321.685 52.9715 326.544 53.8096C331.404 54.6477 336.019 56.5844 340.043 59.4747L329.49 78.7069C328.175 77.7036 326.669 76.9885 325.068 76.6076C323.466 76.2268 321.806 76.1885 320.193 76.4955C319.305 76.6235 318.455 76.9339 317.693 77.4078C316.931 77.8816 316.275 78.5086 315.764 79.2502C315.253 79.9918 314.899 80.8321 314.724 81.7192C314.548 82.6064 314.555 83.5215 314.743 84.408C315.015 85.2793 315.462 86.0855 316.055 86.7762C316.649 87.4668 317.377 88.0271 318.193 88.4218C319.01 88.8165 319.897 89.0371 320.8 89.0699C321.702 89.1027 322.601 88.9469 323.439 88.6124V88.6124Z" fill="#1C1F27"/>
<path d="M364.901 37.2299L375.747 34.3238C375.357 32.8692 374.412 31.6273 373.119 30.8713C371.827 30.1152 370.292 29.907 368.854 30.2924C367.416 30.6778 366.191 31.6252 365.45 32.9262C364.709 34.2273 364.511 35.7753 364.901 37.2299ZM370.009 47.6177C370.009 47.6177 372.649 51.0115 379.711 49.1191C382.92 48.1192 385.831 46.3345 388.186 43.9228L401.271 58.0514C395.655 63.9166 388.52 68.0726 380.67 70.0512C362.762 74.8497 346.22 65.1743 342.098 49.7923C337.874 34.0276 346.917 17.9343 364.295 13.2777C381.674 8.62116 397.551 18.0371 401.482 32.7049C402.103 34.7572 402.286 36.9172 402.017 39.0412L370.009 47.6177Z" fill="#1C1F27"/>
<g opacity="0.1">
<path opacity="0.1" d="M88.6244 248.727C87.1862 249.112 85.9617 250.06 85.2203 251.361C84.4789 252.662 84.2813 254.21 84.6711 255.665C85.0608 257.119 86.006 258.361 87.2985 259.117C88.5911 259.873 90.1253 260.081 91.5635 259.696C93.0018 259.311 94.2263 258.363 94.9677 257.062C95.7091 255.761 95.9066 254.213 95.5169 252.758C95.1271 251.304 94.182 250.062 92.8894 249.306C91.5968 248.55 90.0626 248.342 88.6244 248.727V248.727ZM121.572 245.777C126.131 262.792 118.245 276.743 106.39 279.92C103.6 280.691 100.659 280.741 97.8364 280.064C95.0142 279.387 92.402 278.005 90.2401 276.045L92.0036 282.626L67.0583 289.31L46.4502 212.4L71.3955 205.716L79.3312 235.332C80.2234 232.554 81.7946 230.051 83.9002 228.053C86.0057 226.056 88.5779 224.628 91.3801 223.901C103.329 220.672 117.114 228.735 121.673 245.75L121.572 245.777Z" fill="#1C1F27"/>
<path opacity="0.1" d="M150.799 204.727C149.671 204.902 148.624 205.418 147.797 206.208C146.97 206.998 146.4 208.024 146.164 209.15C145.928 210.277 146.036 211.452 146.474 212.519C146.912 213.586 147.66 214.496 148.619 215.128C149.577 215.76 150.701 216.085 151.842 216.06C152.984 216.034 154.089 215.66 155.011 214.986C155.934 214.312 156.631 213.37 157.011 212.285C157.39 211.2 157.434 210.022 157.136 208.907C157.004 208.206 156.732 207.54 156.338 206.946C155.944 206.353 155.436 205.846 154.844 205.456C154.251 205.065 153.588 204.799 152.893 204.674C152.197 204.549 151.485 204.567 150.799 204.727V204.727ZM159.91 238.731C142.002 243.529 125.46 233.854 121.345 218.497C117.23 203.141 126.718 186.49 144.627 181.692C162.535 176.893 179.077 186.569 183.191 201.925C187.306 217.282 177.793 233.939 159.91 238.731Z" fill="#1C1F27"/>
<path opacity="0.1" d="M236.782 236.67C235.89 239.448 234.319 241.951 232.213 243.949C230.108 245.946 227.536 247.374 224.733 248.1C214.417 250.865 204.088 244.801 200.417 231.103L191.6 198.196L216.57 191.505L223.604 217.754C223.682 218.318 223.878 218.859 224.177 219.342C224.477 219.825 224.874 220.239 225.342 220.558C225.81 220.876 226.339 221.092 226.894 221.19C227.449 221.288 228.018 221.267 228.563 221.128C229.642 220.519 230.47 219.542 230.899 218.371C231.328 217.199 231.33 215.909 230.904 214.732L224.137 189.478L249.083 182.794L263.491 236.567L238.546 243.251L236.782 236.67Z" fill="#1C1F27"/>
<path opacity="0.1" d="M293.926 205.172C294.819 202.394 296.39 199.891 298.495 197.894C300.601 195.896 303.173 194.468 305.975 193.742C316.292 190.977 326.646 197.034 330.324 210.758L339.141 243.665L314.17 250.356L307.11 224.005C307.031 223.441 306.836 222.9 306.536 222.417C306.237 221.934 305.84 221.52 305.372 221.201C304.903 220.883 304.375 220.667 303.819 220.569C303.264 220.471 302.696 220.492 302.151 220.631C301.047 221.243 300.202 222.239 299.772 223.434C299.343 224.63 299.356 225.945 299.812 227.136L306.572 252.364L281.626 259.049L267.218 205.275L292.163 198.591L293.926 205.172Z" fill="#1C1F27"/>
<path opacity="0.1" d="M368.483 186.097C370.06 185.568 371.506 184.706 372.725 183.569C373.944 182.432 374.909 181.045 375.556 179.499L394.311 190.878C392.266 195.388 389.235 199.368 385.444 202.519C381.654 205.669 377.203 207.91 372.423 209.074C354.54 213.866 337.998 204.19 333.884 188.834C329.769 173.477 339.257 156.827 357.14 152.035C361.861 150.653 366.836 150.368 371.694 151.202C376.552 152.035 381.167 153.966 385.193 156.849L374.64 176.081C373.325 175.078 371.819 174.363 370.218 173.982C368.616 173.601 366.955 173.563 365.342 173.87C364.432 173.951 363.552 174.232 362.763 174.693C361.974 175.155 361.295 175.785 360.775 176.541C360.254 177.296 359.904 178.158 359.748 179.067C359.593 179.976 359.636 180.909 359.875 181.801C360.114 182.693 360.543 183.523 361.132 184.232C361.721 184.941 362.456 185.513 363.284 185.906C364.113 186.3 365.016 186.507 365.93 186.512C366.844 186.517 367.747 186.32 368.575 185.936L368.483 186.097Z" fill="#1C1F27"/>
<path opacity="0.1" d="M409.946 134.714L420.792 131.808C420.402 130.354 419.457 129.112 418.164 128.356C416.871 127.6 415.337 127.392 413.899 127.777C412.461 128.162 411.236 129.11 410.495 130.411C409.754 131.712 409.556 133.26 409.946 134.714ZM415.054 145.102C415.054 145.102 417.694 148.496 424.756 146.604C427.965 145.604 430.876 143.819 433.231 141.407L446.316 155.536C440.691 161.387 433.555 165.533 425.708 167.51C407.8 172.309 391.258 162.633 387.143 147.277C382.878 131.359 391.962 115.419 409.34 110.762C426.719 106.106 442.548 115.343 446.526 130.189C447.148 132.242 447.33 134.402 447.062 136.526L415.054 145.102Z" fill="#1C1F27"/>
</g>
<g opacity="0.23">
<path opacity="0.23" d="M85.3847 246.724C84.6725 246.915 84.0054 247.246 83.4213 247.698C82.8372 248.15 82.3476 248.714 81.9805 249.358C81.6134 250.002 81.376 250.714 81.2817 251.453C81.1875 252.191 81.2383 252.942 81.4313 253.662C81.6243 254.382 81.9557 255.058 82.4065 255.65C82.8573 256.243 83.4188 256.74 84.0588 257.115C84.6988 257.489 85.4049 257.733 86.1367 257.832C86.8685 257.931 87.6116 257.884 88.3238 257.693C89.762 257.308 90.9865 256.361 91.7279 255.06C92.4693 253.759 92.6669 252.21 92.2771 250.756C91.8874 249.301 90.9422 248.059 89.6497 247.303C88.3571 246.547 86.8229 246.339 85.3847 246.724V246.724ZM118.433 243.747C122.992 260.762 115.106 274.714 103.251 277.89C100.461 278.662 97.5197 278.712 94.6975 278.034C91.8753 277.357 89.2631 275.975 87.1013 274.015L88.8647 280.597L63.8185 287.308L43.2104 210.397L68.1558 203.713L76.0983 233.355C76.9884 230.576 78.5589 228.071 80.6647 226.074C82.7706 224.076 85.344 222.649 88.1472 221.924C100.089 218.67 113.881 226.758 118.433 243.747Z" fill="#1C1F27"/>
<path opacity="0.23" d="M147.559 202.724C146.431 202.899 145.385 203.416 144.557 204.205C143.73 204.995 143.16 206.021 142.924 207.148C142.688 208.275 142.796 209.449 143.234 210.516C143.673 211.583 144.42 212.493 145.379 213.125C146.337 213.757 147.461 214.082 148.603 214.057C149.744 214.032 150.849 213.657 151.772 212.983C152.694 212.31 153.391 211.368 153.771 210.282C154.15 209.197 154.194 208.019 153.896 206.904C153.764 206.204 153.492 205.537 153.098 204.944C152.704 204.351 152.196 203.843 151.604 203.453C151.012 203.062 150.348 202.796 149.653 202.671C148.958 202.546 148.245 202.564 147.559 202.724ZM156.677 236.753C138.769 241.552 122.227 231.877 118.105 216.494C113.984 201.112 123.465 184.437 141.373 179.638C159.281 174.84 175.837 184.566 179.952 199.923C184.066 215.279 174.56 231.962 156.677 236.753Z" fill="#1C1F27"/>
<path opacity="0.23" d="M233.542 234.667C232.65 237.445 231.079 239.948 228.973 241.946C226.868 243.943 224.296 245.371 221.493 246.098C211.177 248.862 200.855 242.824 197.177 229.1L188.36 196.193L213.33 189.503L220.398 215.879C220.477 216.442 220.672 216.983 220.972 217.467C221.271 217.95 221.668 218.364 222.136 218.683C222.604 219.001 223.133 219.216 223.688 219.315C224.243 219.413 224.812 219.392 225.357 219.253C226.459 218.635 227.3 217.634 227.724 216.435C228.148 215.235 228.127 213.919 227.664 212.729L220.897 187.475L245.843 180.791L260.251 234.564L235.306 241.248L233.542 234.667Z" fill="#1C1F27"/>
<path opacity="0.23" d="M290.693 203.195C291.583 200.416 293.154 197.912 295.26 195.914C297.366 193.916 299.939 192.489 302.742 191.764C313.058 189 323.413 195.057 327.09 208.781L335.908 241.688L310.937 248.378L303.87 222.002C303.791 221.439 303.596 220.898 303.296 220.414C302.997 219.931 302.6 219.517 302.132 219.198C301.664 218.88 301.135 218.665 300.58 218.566C300.024 218.468 299.456 218.489 298.911 218.628C297.807 219.24 296.962 220.236 296.533 221.431C296.103 222.627 296.116 223.942 296.572 225.133L303.332 250.362L278.386 257.046L263.978 203.272L288.923 196.588L290.693 203.195Z" fill="#1C1F27"/>
<path opacity="0.23" d="M365.244 184.094C366.821 183.565 368.266 182.704 369.485 181.566C370.705 180.429 371.669 179.042 372.316 177.497L391.071 188.876C389.031 193.391 386.003 197.376 382.214 200.531C378.424 203.687 373.972 205.931 369.19 207.097C351.307 211.889 334.765 202.213 330.644 186.831C326.522 171.449 335.891 154.858 353.774 150.066C358.498 148.685 363.476 148.403 368.335 149.241C373.195 150.079 377.809 152.016 381.834 154.906L371.281 174.138C369.966 173.135 368.46 172.42 366.858 172.039C365.257 171.658 363.596 171.62 361.983 171.927C361.073 172.008 360.193 172.289 359.404 172.75C358.615 173.211 357.936 173.842 357.416 174.597C356.895 175.353 356.545 176.215 356.389 177.124C356.234 178.032 356.277 178.965 356.516 179.858C356.755 180.75 357.184 181.579 357.773 182.289C358.362 182.998 359.096 183.569 359.925 183.963C360.754 184.357 361.657 184.564 362.571 184.569C363.485 184.574 364.388 184.377 365.216 183.992L365.244 184.094Z" fill="#1C1F27"/>
<path opacity="0.23" d="M406.706 132.712L417.551 129.806C417.162 128.351 416.216 127.109 414.924 126.353C413.631 125.597 412.097 125.389 410.659 125.774C409.221 126.16 407.996 127.107 407.255 128.408C406.513 129.709 406.316 131.257 406.706 132.712ZM411.814 143.1C411.814 143.1 414.453 146.493 421.516 144.601C424.725 143.601 427.635 141.816 429.991 139.405L443.062 153.482C437.446 159.348 430.311 163.503 422.461 165.482C404.553 170.281 388.011 160.605 383.889 145.223C379.665 129.458 388.708 113.365 406.086 108.709C423.465 104.052 439.342 113.468 443.286 128.187C443.908 130.239 444.09 132.399 443.821 134.523L411.814 143.1Z" fill="#1C1F27"/>
</g>
<g opacity="0.36">
<path opacity="0.36" d="M82.1447 244.722C80.7925 245.186 79.6682 246.152 78.9991 247.425C78.3299 248.698 78.1658 250.183 78.54 251.58C78.9142 252.976 79.7987 254.18 81.0148 254.948C82.2308 255.716 83.6876 255.99 85.0906 255.716C86.4428 255.252 87.5671 254.286 88.2363 253.013C88.9054 251.74 89.0695 250.255 88.6953 248.858C88.3211 247.462 87.4366 246.258 86.2206 245.49C85.0045 244.722 83.5477 244.448 82.1447 244.722ZM115.099 241.797C119.651 258.786 111.772 272.764 99.9173 275.94C97.1272 276.712 94.1857 276.761 91.3635 276.084C88.5413 275.407 85.9291 274.025 83.7672 272.065L85.5307 278.647L60.5854 285.331L39.9705 208.395L64.9158 201.711L72.8583 231.352C73.7505 228.574 75.3217 226.071 77.4273 224.074C79.5328 222.076 82.105 220.648 84.9072 219.922C96.856 216.693 110.641 224.756 115.2 241.77L115.099 241.797Z" fill="#1C1F27"/>
<path opacity="0.36" d="M144.319 200.721C143.185 200.893 142.13 201.408 141.295 202.199C140.461 202.99 139.884 204.019 139.643 205.151C139.402 206.283 139.508 207.464 139.945 208.539C140.383 209.613 141.132 210.529 142.095 211.167C143.057 211.805 144.186 212.134 145.334 212.111C146.481 212.087 147.593 211.713 148.522 211.036C149.45 210.36 150.152 209.414 150.535 208.323C150.917 207.232 150.962 206.048 150.663 204.927C150.534 204.224 150.264 203.553 149.871 202.957C149.478 202.36 148.969 201.85 148.376 201.456C147.783 201.063 147.117 200.795 146.42 200.669C145.722 200.543 145.008 200.56 144.319 200.721ZM153.437 234.751C135.529 239.549 118.987 229.874 114.872 214.517C110.757 199.161 120.259 182.562 138.167 177.763C156.075 172.965 172.617 182.64 176.739 198.022C180.861 213.404 171.32 229.959 153.437 234.751Z" fill="#1C1F27"/>
<path opacity="0.36" d="M230.303 232.664C229.41 235.443 227.839 237.946 225.734 239.943C223.628 241.941 221.056 243.368 218.254 244.095C207.937 246.859 197.615 240.822 193.937 227.098L185.127 194.216L210.098 187.525L217.151 213.851C217.23 214.414 217.425 214.955 217.725 215.438C218.024 215.922 218.421 216.336 218.889 216.654C219.358 216.973 219.886 217.188 220.442 217.287C220.997 217.385 221.565 217.364 222.11 217.225C223.208 216.609 224.046 215.612 224.471 214.419C224.896 213.225 224.88 211.914 224.424 210.727L217.664 185.498L242.61 178.814L257.011 232.562L232.066 239.246L230.303 232.664Z" fill="#1C1F27"/>
<path opacity="0.36" d="M287.454 201.192C288.346 198.414 289.917 195.911 292.023 193.914C294.128 191.916 296.7 190.488 299.503 189.762C309.819 186.998 320.167 193.029 323.844 206.753L332.661 239.659L307.691 246.35L300.63 219.999C300.551 219.436 300.356 218.895 300.056 218.412C299.757 217.929 299.36 217.514 298.892 217.196C298.424 216.877 297.895 216.662 297.34 216.564C296.785 216.465 296.216 216.486 295.671 216.625C294.567 217.237 293.723 218.233 293.293 219.429C292.863 220.624 292.877 221.939 293.332 223.13L300.092 248.359L275.146 255.043L260.745 201.295L285.69 194.611L287.454 201.192Z" fill="#1C1F27"/>
<path opacity="0.36" d="M362.004 182.092C363.581 181.563 365.027 180.701 366.246 179.564C367.465 178.426 368.43 177.039 369.076 175.494L387.832 186.873C385.792 191.388 382.763 195.373 378.974 198.529C375.185 201.684 370.732 203.929 365.951 205.094C348.068 209.886 331.526 200.21 327.411 184.854C323.296 169.497 332.685 152.983 350.568 148.191C355.292 146.81 360.27 146.527 365.13 147.366C369.989 148.204 374.604 150.14 378.628 153.031L368.075 172.263C366.761 171.26 365.254 170.545 363.653 170.164C362.052 169.783 360.391 169.745 358.778 170.051C357.868 170.133 356.987 170.414 356.198 170.875C355.41 171.336 354.731 171.967 354.21 172.722C353.689 173.478 353.339 174.34 353.184 175.249C353.028 176.157 353.072 177.09 353.311 177.982C353.55 178.875 353.979 179.704 354.568 180.413C355.156 181.123 355.891 181.694 356.72 182.088C357.548 182.482 358.451 182.689 359.365 182.694C360.279 182.699 361.182 182.502 362.011 182.117L362.004 182.092Z" fill="#1C1F27"/>
<path opacity="0.36" d="M403.466 130.709L414.311 127.803C413.922 126.349 412.976 125.107 411.684 124.351C410.391 123.595 408.857 123.386 407.419 123.772C405.981 124.157 404.756 125.104 404.015 126.406C403.273 127.707 403.076 129.255 403.466 130.709V130.709ZM408.574 141.097C408.574 141.097 411.22 144.516 418.283 142.624C421.494 141.621 424.404 139.826 426.751 137.402L439.857 151.607C434.241 157.472 427.106 161.628 419.255 163.607C401.347 168.406 384.805 158.73 380.69 143.374C376.425 127.456 385.502 111.49 402.88 106.834C420.259 102.177 436.136 111.593 440.074 126.286C440.692 128.331 440.872 130.482 440.602 132.597L408.574 141.097Z" fill="#1C1F27"/>
</g>
<g opacity="0.49">
<path opacity="0.49" d="M78.9389 242.847C77.5006 243.232 76.2761 244.179 75.5347 245.481C74.7933 246.782 74.5958 248.33 74.9855 249.784C75.3753 251.239 76.3204 252.481 77.613 253.237C78.9056 253.993 80.4397 254.201 81.878 253.816C82.5901 253.625 83.2573 253.294 83.8414 252.842C84.4255 252.39 84.915 251.826 85.2821 251.182C85.6492 250.538 85.8867 249.826 85.9809 249.088C86.0751 248.349 86.0243 247.598 85.8313 246.878C85.6383 246.158 85.307 245.482 84.8562 244.89C84.4053 244.297 83.8439 243.8 83.2038 243.426C82.5638 243.051 81.8578 242.807 81.126 242.708C80.3942 242.609 79.651 242.656 78.9389 242.847V242.847ZM111.886 239.897C116.446 256.911 108.559 270.863 96.7046 274.039C93.9145 274.811 90.973 274.861 88.1508 274.184C85.3286 273.507 82.7164 272.124 80.5546 270.165L82.318 276.746L57.3727 283.43L36.7373 206.418L61.6826 199.734L69.6183 229.35C70.5106 226.572 72.0818 224.069 74.1873 222.071C76.2928 220.074 78.865 218.646 81.6673 217.919C93.616 214.69 107.401 222.753 111.96 239.768L111.886 239.897Z" fill="#1C1F27"/>
<path opacity="0.49" d="M141.113 198.846C139.986 199.021 138.939 199.538 138.111 200.328C137.284 201.117 136.715 202.143 136.478 203.27C136.242 204.397 136.35 205.571 136.789 206.638C137.227 207.706 137.975 208.615 138.933 209.248C139.891 209.88 141.016 210.205 142.157 210.179C143.298 210.154 144.403 209.78 145.326 209.106C146.249 208.432 146.946 207.49 147.325 206.405C147.704 205.319 147.748 204.141 147.451 203.026C147.318 202.326 147.047 201.659 146.653 201.066C146.259 200.473 145.75 199.966 145.158 199.575C144.566 199.185 143.902 198.919 143.207 198.793C142.512 198.668 141.8 198.686 141.113 198.846ZM150.224 232.85C132.316 237.649 115.774 227.973 111.66 212.617C107.545 197.26 117.026 180.584 134.934 175.786C152.842 170.988 169.391 180.688 173.506 196.045C177.621 211.402 168.08 227.956 150.197 232.748L150.224 232.85Z" fill="#1C1F27"/>
<path opacity="0.49" d="M227.069 230.687C226.177 233.465 224.606 235.969 222.5 237.966C220.395 239.963 217.822 241.391 215.02 242.118C204.704 244.882 194.375 238.819 190.697 225.095L181.887 192.214L206.857 185.523L213.911 211.848C213.99 212.412 214.185 212.953 214.485 213.436C214.784 213.919 215.181 214.333 215.649 214.652C216.117 214.97 216.646 215.186 217.201 215.284C217.756 215.382 218.325 215.361 218.87 215.222C219.968 214.606 220.806 213.61 221.231 212.416C221.656 211.222 221.639 209.911 221.184 208.724L214.424 183.495L239.369 176.811L253.778 230.585L228.833 237.269L227.069 230.687Z" fill="#1C1F27"/>
<path opacity="0.49" d="M284.213 199.19C285.106 196.412 286.677 193.909 288.782 191.911C290.888 189.914 293.46 188.486 296.262 187.759C306.578 184.995 316.933 191.052 320.604 204.75L329.421 237.657L304.45 244.348L297.39 217.997C297.311 217.433 297.116 216.892 296.816 216.409C296.517 215.926 296.12 215.512 295.652 215.193C295.184 214.875 294.655 214.659 294.1 214.561C293.544 214.463 292.976 214.484 292.431 214.623C291.327 215.235 290.482 216.231 290.053 217.426C289.623 218.622 289.636 219.937 290.092 221.128L296.858 246.382L271.913 253.066L257.505 199.293L282.45 192.609L284.213 199.19Z" fill="#1C1F27"/>
<path opacity="0.49" d="M358.764 180.089C360.341 179.56 361.786 178.698 363.006 177.561C364.225 176.424 365.189 175.037 365.836 173.492L384.591 184.87C382.546 189.381 379.515 193.36 375.725 196.511C371.934 199.661 367.483 201.902 362.704 203.066C344.821 207.858 328.279 198.182 324.164 182.826C320.049 167.469 329.53 150.793 347.413 146.002C352.137 144.62 357.115 144.338 361.975 145.176C366.834 146.014 371.449 147.951 375.473 150.841L364.92 170.073C363.606 169.07 362.099 168.355 360.498 167.974C358.896 167.593 357.236 167.555 355.623 167.862C354.713 167.943 353.832 168.224 353.043 168.685C352.254 169.147 351.576 169.777 351.055 170.533C350.534 171.288 350.184 172.15 350.029 173.059C349.873 173.968 349.917 174.901 350.156 175.793C350.395 176.685 350.824 177.515 351.412 178.224C352.001 178.933 352.736 179.505 353.565 179.899C354.393 180.292 355.296 180.499 356.21 180.504C357.124 180.509 358.027 180.312 358.856 179.928L358.764 180.089Z" fill="#1C1F27"/>
<path opacity="0.49" d="M400.225 128.707L411.071 125.8C410.681 124.346 409.736 123.104 408.444 122.348C407.151 121.592 405.617 121.384 404.179 121.769C402.74 122.154 401.516 123.102 400.775 124.403C400.033 125.704 399.836 127.252 400.225 128.707ZM405.256 139.006C405.256 139.006 407.902 142.425 414.965 140.533C418.176 139.53 421.086 137.735 423.433 135.311L436.525 149.465C430.9 155.316 423.764 159.463 415.917 161.439C398.009 166.238 381.467 156.562 377.352 141.206C373.087 125.288 382.163 109.322 399.542 104.666C416.92 100.009 432.764 109.298 436.735 124.119C437.353 126.163 437.533 128.314 437.264 130.429L405.256 139.006Z" fill="#1C1F27"/>
</g>
<g opacity="0.61">
<path opacity="0.61" d="M75.6715 240.742C74.9594 240.933 74.2922 241.264 73.7081 241.715C73.124 242.167 72.6345 242.732 72.2674 243.376C71.9003 244.02 71.6628 244.732 71.5686 245.47C71.4744 246.208 71.5252 246.959 71.7182 247.679C71.9112 248.4 72.2425 249.075 72.6934 249.668C73.1442 250.26 73.7056 250.758 74.3457 251.132C74.9857 251.506 75.6917 251.75 76.4235 251.849C77.1553 251.949 77.8985 251.902 78.6106 251.711C80.0489 251.326 81.2734 250.378 82.0148 249.077C82.7562 247.776 82.9537 246.228 82.564 244.773C82.1742 243.319 81.2291 242.077 79.9365 241.321C78.6439 240.565 77.1098 240.357 75.6715 240.742V240.742ZM108.619 237.792C113.178 254.807 105.292 268.758 93.4373 271.935C90.6472 272.706 87.7057 272.756 84.8835 272.079C82.0613 271.402 79.4491 270.02 77.2872 268.06L79.0234 274.539L54.078 281.223L33.4973 204.415L58.4426 197.731L66.3783 227.347C67.2706 224.569 68.8418 222.066 70.9473 220.068C73.0528 218.071 75.625 216.643 78.4273 215.916C90.376 212.687 104.161 220.75 108.72 237.765L108.619 237.792Z" fill="#1C1F27"/>
<path opacity="0.61" d="M137.846 196.742C136.718 196.917 135.672 197.433 134.844 198.223C134.017 199.013 133.448 200.039 133.211 201.165C132.975 202.292 133.083 203.467 133.522 204.534C133.96 205.601 134.707 206.511 135.666 207.143C136.624 207.775 137.748 208.1 138.89 208.075C140.031 208.049 141.136 207.675 142.059 207.001C142.982 206.327 143.679 205.385 144.058 204.3C144.437 203.215 144.481 202.037 144.184 200.922C144.051 200.221 143.78 199.554 143.386 198.961C142.991 198.368 142.483 197.861 141.891 197.47C141.299 197.08 140.635 196.814 139.94 196.689C139.245 196.563 138.533 196.582 137.846 196.742ZM146.957 230.746C129.049 235.544 112.507 225.869 108.392 210.512C104.278 195.155 113.766 178.505 131.674 173.707C149.582 168.908 166.097 178.482 170.239 193.94C174.381 209.399 164.84 225.954 146.957 230.746V230.746Z" fill="#1C1F27"/>
<path opacity="0.61" d="M223.816 228.634C222.923 231.412 221.352 233.915 219.247 235.912C217.141 237.91 214.569 239.338 211.767 240.064C201.451 242.829 191.121 236.765 187.451 223.067L178.647 190.211L203.618 183.52L210.678 209.871C210.757 210.435 210.952 210.976 211.252 211.459C211.551 211.942 211.948 212.356 212.416 212.675C212.884 212.993 213.413 213.209 213.968 213.307C214.523 213.405 215.092 213.384 215.637 213.245C216.735 212.629 217.573 211.633 217.998 210.439C218.423 209.245 218.406 207.934 217.951 206.747L211.184 181.493L236.13 174.809L250.538 228.582L225.593 235.266L223.816 228.634Z" fill="#1C1F27"/>
<path opacity="0.61" d="M280.974 197.187C281.866 194.409 283.437 191.906 285.543 189.909C287.648 187.911 290.22 186.483 293.023 185.757C303.339 182.992 313.693 189.049 317.364 202.747L326.181 235.654L301.211 242.345L294.157 216.02C294.078 215.455 293.882 214.913 293.582 214.428C293.283 213.944 292.886 213.528 292.417 213.207C291.949 212.887 291.42 212.669 290.864 212.568C290.308 212.467 289.738 212.484 289.191 212.62C287.551 213.06 285.977 215.86 286.859 219.151L293.619 244.379L268.673 251.063L254.265 197.29L279.21 190.606L280.974 197.187Z" fill="#1C1F27"/>
<path opacity="0.61" d="M355.531 178.112C357.107 177.583 358.553 176.721 359.772 175.584C360.992 174.447 361.956 173.059 362.603 171.514L381.358 182.893C379.313 187.403 376.282 191.383 372.492 194.533C368.701 197.684 364.25 199.925 359.47 201.089C341.587 205.88 325.046 196.205 320.931 180.848C316.816 165.492 326.304 148.842 344.187 144.05C348.908 142.668 353.883 142.383 358.741 143.217C363.599 144.05 368.214 145.981 372.24 148.864L361.687 168.096C360.374 167.088 358.867 166.367 357.264 165.982C355.662 165.597 353.999 165.555 352.383 165.859C351.481 165.951 350.61 166.24 349.831 166.706C349.052 167.171 348.384 167.802 347.872 168.555C347.36 169.309 347.016 170.166 346.865 171.069C346.713 171.971 346.758 172.897 346.995 173.783C347.232 174.668 347.657 175.492 348.239 176.198C348.821 176.904 349.548 177.475 350.368 177.871C351.188 178.267 352.083 178.48 352.99 178.493C353.897 178.507 354.795 178.322 355.623 177.951L355.531 178.112Z" fill="#1C1F27"/>
<path opacity="0.61" d="M396.986 126.704L407.832 123.798C407.442 122.343 406.497 121.101 405.204 120.345C403.912 119.589 402.377 119.381 400.939 119.766C399.501 120.152 398.276 121.099 397.535 122.4C396.794 123.701 396.596 125.249 396.986 126.704ZM402.051 137.131C402.051 137.131 404.69 140.525 411.753 138.632C414.961 137.632 417.872 135.847 420.227 133.436L433.313 147.564C427.688 153.416 420.552 157.562 412.705 159.539C394.796 164.337 378.255 154.662 374.14 139.305C369.875 123.388 378.958 107.447 396.337 102.791C413.715 98.1342 429.552 107.397 433.523 122.218C434.145 124.27 434.327 126.43 434.058 128.554L402.051 137.131Z" fill="#1C1F27"/>
</g>
<g opacity="0.74">
<path opacity="0.74" d="M72.4315 238.739C70.9933 239.125 69.7688 240.072 69.0274 241.373C68.286 242.674 68.0884 244.222 68.4782 245.677C68.868 247.131 69.8131 248.373 71.1057 249.129C72.3983 249.885 73.9324 250.094 75.3707 249.708C76.8089 249.323 78.0334 248.375 78.7748 247.074C79.5162 245.773 79.7137 244.225 79.324 242.771C78.9342 241.316 77.9891 240.074 76.6965 239.318C75.4039 238.562 73.8698 238.354 72.4315 238.739V238.739ZM105.473 235.737C110.032 252.751 102.146 266.703 90.2914 269.879C87.5012 270.651 84.5597 270.701 81.7376 270.024C78.9154 269.347 76.3031 267.964 74.1413 266.005L75.9048 272.586L50.8585 279.297L30.2573 202.412L55.2027 195.728L63.1383 225.344C64.0306 222.566 65.6018 220.063 67.7073 218.066C69.8128 216.068 72.3851 214.64 75.1873 213.914C87.1087 210.583 100.921 218.748 105.473 235.737Z" fill="#1C1F27"/>
<path opacity="0.74" d="M134.606 194.739C133.477 194.914 132.43 195.431 131.602 196.223C130.774 197.014 130.205 198.041 129.97 199.169C129.735 200.297 129.845 201.473 130.285 202.54C130.726 203.608 131.476 204.517 132.437 205.147C133.398 205.778 134.524 206.1 135.666 206.071C136.809 206.043 137.913 205.665 138.835 204.987C139.756 204.309 140.45 203.363 140.825 202.275C141.201 201.188 141.24 200.008 140.937 198.894C140.801 198.196 140.528 197.533 140.133 196.943C139.738 196.353 139.23 195.849 138.639 195.462C138.048 195.074 137.386 194.81 136.693 194.686C136 194.561 135.29 194.58 134.606 194.739ZM143.724 228.768C125.816 233.567 109.247 223.789 105.146 208.484C101.045 193.178 110.519 176.477 128.427 171.679C146.335 166.88 162.891 176.607 166.992 191.912C171.093 207.218 161.607 223.977 143.724 228.768Z" fill="#1C1F27"/>
<path opacity="0.74" d="M220.61 226.759C219.718 229.537 218.146 232.04 216.041 234.037C213.935 236.035 211.363 237.463 208.561 238.189C198.245 240.953 187.915 234.89 184.245 221.192L175.407 188.208L200.378 181.517L207.438 207.868C207.517 208.432 207.712 208.973 208.012 209.456C208.311 209.939 208.708 210.353 209.176 210.672C209.644 210.99 210.173 211.206 210.728 211.304C211.284 211.402 211.852 211.381 212.397 211.242C213.495 210.626 214.333 209.63 214.758 208.436C215.183 207.242 215.166 205.931 214.711 204.744L207.944 179.49L232.89 172.806L247.298 226.579L222.353 233.263L220.61 226.759Z" fill="#1C1F27"/>
<path opacity="0.74" d="M277.734 195.185C278.626 192.406 280.197 189.903 282.303 187.906C284.408 185.908 286.98 184.481 289.783 183.754C300.099 180.99 310.453 187.046 314.131 200.77L322.948 233.677L297.978 240.368L290.917 214.017C290.838 213.453 290.643 212.912 290.343 212.429C290.044 211.946 289.647 211.532 289.179 211.213C288.711 210.895 288.182 210.679 287.627 210.581C287.072 210.483 286.503 210.504 285.958 210.643C284.854 211.255 284.01 212.251 283.58 213.446C283.15 214.642 283.164 215.957 283.619 217.148L290.379 242.377L265.433 249.061L251.025 195.287L275.97 188.603L277.734 195.185Z" fill="#1C1F27"/>
<path opacity="0.74" d="M352.291 176.109C353.868 175.58 355.314 174.719 356.533 173.581C357.752 172.444 358.717 171.057 359.363 169.512L378.119 180.891C376.078 185.406 373.05 189.391 369.261 192.546C365.471 195.702 361.019 197.946 356.238 199.112C338.355 203.903 321.806 194.202 317.691 178.846C313.576 163.489 323.064 146.839 340.947 142.047C345.668 140.665 350.644 140.38 355.502 141.214C360.359 142.048 364.974 143.978 369 146.861L358.447 166.093C357.133 165.09 355.626 164.375 354.025 163.994C352.424 163.613 350.763 163.575 349.15 163.882C348.24 163.963 347.36 164.244 346.571 164.706C345.782 165.167 345.103 165.797 344.582 166.553C344.061 167.308 343.711 168.171 343.556 169.079C343.4 169.988 343.444 170.921 343.683 171.813C343.922 172.705 344.351 173.535 344.94 174.244C345.528 174.953 346.263 175.525 347.092 175.919C347.92 176.313 348.823 176.519 349.737 176.524C350.651 176.529 351.554 176.333 352.383 175.948L352.291 176.109Z" fill="#1C1F27"/>
<path opacity="0.74" d="M393.753 124.727L404.599 121.821C404.209 120.366 403.264 119.124 401.971 118.368C400.678 117.612 399.144 117.404 397.706 117.789C396.268 118.175 395.043 119.122 394.302 120.423C393.561 121.724 393.363 123.272 393.753 124.727ZM398.845 135.256C398.845 135.256 401.484 138.649 408.547 136.757C411.756 135.757 414.666 133.972 417.022 131.561L430.107 145.689C424.491 151.554 417.356 155.71 409.506 157.689C391.597 162.488 375.049 152.787 370.934 137.43C366.676 121.538 375.752 105.572 393.131 100.916C410.509 96.2591 426.387 105.675 430.317 120.343C430.939 122.395 431.121 124.555 430.852 126.679L398.845 135.256Z" fill="#1C1F27"/>
</g>
<g opacity="0.87">
<path opacity="0.87" d="M69.1915 236.737C67.8394 237.201 66.7151 238.167 66.0459 239.44C65.3768 240.713 65.2127 242.198 65.5869 243.595C65.9611 244.991 66.8456 246.195 68.0616 246.963C69.2777 247.731 70.7345 248.005 72.1375 247.731C73.4897 247.267 74.614 246.301 75.2831 245.028C75.9523 243.755 76.1163 242.27 75.7422 240.873C75.368 239.477 74.4834 238.273 73.2674 237.505C72.0514 236.737 70.5946 236.463 69.1915 236.737V236.737ZM102.267 233.862C106.826 250.876 98.9403 264.828 87.0856 268.004C84.2954 268.776 81.3539 268.826 78.5317 268.149C75.7095 267.472 73.0973 266.09 70.9355 264.13L72.6443 270.507L47.598 277.218L27.0173 200.41L51.9627 193.726L59.8983 223.342C60.7906 220.564 62.3618 218.061 64.4673 216.063C66.5728 214.066 69.1451 212.638 71.9473 211.911C83.9029 208.708 97.6878 216.771 102.267 233.862Z" fill="#1C1F27"/>
<path opacity="0.87" d="M131.366 192.736C130.235 192.907 129.183 193.42 128.35 194.207C127.516 194.994 126.939 196.019 126.695 197.147C126.451 198.275 126.551 199.453 126.982 200.526C127.413 201.599 128.155 202.518 129.11 203.16C130.065 203.803 131.188 204.14 132.333 204.126C133.477 204.113 134.589 203.75 135.522 203.086C136.454 202.421 137.165 201.486 137.559 200.403C137.953 199.32 138.013 198.14 137.731 197.019C137.61 196.306 137.347 195.625 136.956 195.018C136.565 194.411 136.056 193.891 135.459 193.49C134.863 193.088 134.192 192.814 133.488 192.685C132.783 192.555 132.061 192.573 131.366 192.736V192.736ZM140.484 226.766C122.576 231.564 106.041 221.914 101.94 206.609C97.8385 191.303 107.313 174.602 125.221 169.804C143.129 165.005 159.644 174.579 163.786 190.037C167.928 205.496 158.367 221.974 140.484 226.766V226.766Z" fill="#1C1F27"/>
<path opacity="0.87" d="M217.349 224.679C216.457 227.458 214.886 229.961 212.78 231.958C210.675 233.956 208.103 235.383 205.3 236.11C194.984 238.874 184.662 232.837 180.984 219.113L172.174 186.231L197.144 179.54L204.198 205.866C204.277 206.429 204.472 206.97 204.772 207.453C205.071 207.937 205.468 208.351 205.936 208.669C206.404 208.988 206.933 209.203 207.488 209.302C208.044 209.4 208.612 209.379 209.157 209.24C210.255 208.624 211.093 207.627 211.518 206.434C211.943 205.24 211.927 203.929 211.471 202.742L204.711 177.513L229.657 170.829L244.058 224.577L219.113 231.261L217.349 224.679Z" fill="#1C1F27"/>
<path opacity="0.87" d="M274.494 193.182C275.386 190.404 276.957 187.901 279.063 185.903C281.168 183.906 283.741 182.478 286.543 181.751C296.859 178.987 307.207 185.018 310.884 198.742L319.701 231.649L294.731 238.34L287.677 212.014C287.598 211.451 287.403 210.91 287.103 210.427C286.804 209.944 286.407 209.529 285.939 209.211C285.471 208.892 284.942 208.677 284.387 208.579C283.832 208.48 283.263 208.501 282.718 208.64C281.614 209.252 280.77 210.248 280.34 211.444C279.91 212.639 279.924 213.954 280.379 215.145L287.139 240.374L262.194 247.058L247.792 193.31L272.737 186.626L274.494 193.182Z" fill="#1C1F27"/>
<path opacity="0.87" d="M349.051 174.107C350.627 173.578 352.073 172.716 353.292 171.579C354.512 170.441 355.476 169.054 356.123 167.509L374.878 178.888C372.838 183.403 369.81 187.388 366.021 190.544C362.231 193.699 357.779 195.944 352.997 197.109C335.114 201.901 318.572 192.225 314.451 176.843C310.329 161.461 319.824 144.837 337.707 140.045C342.431 138.663 347.409 138.381 352.268 139.219C357.128 140.057 361.743 141.994 365.767 144.884L355.214 164.116C353.899 163.113 352.393 162.398 350.791 162.017C349.19 161.636 347.529 161.598 345.916 161.905C345.006 161.986 344.126 162.267 343.337 162.729C342.548 163.19 341.869 163.82 341.349 164.576C340.828 165.331 340.478 166.194 340.322 167.102C340.167 168.011 340.21 168.944 340.449 169.836C340.688 170.728 341.117 171.558 341.706 172.267C342.295 172.976 343.029 173.548 343.858 173.942C344.687 174.336 345.59 174.542 346.504 174.547C347.418 174.552 348.321 174.356 349.149 173.971L349.051 174.107Z" fill="#1C1F27"/>
<path opacity="0.87" d="M390.513 122.724L401.358 119.818C400.969 118.363 400.024 117.122 398.731 116.366C397.438 115.61 395.904 115.401 394.466 115.787C393.028 116.172 391.803 117.119 391.062 118.42C390.32 119.722 390.123 121.27 390.513 122.724V122.724ZM395.621 133.112C395.621 133.112 398.267 136.531 405.33 134.639C408.541 133.636 411.451 131.841 413.798 129.417L426.883 143.546C421.267 149.411 414.132 153.567 406.282 155.546C388.374 160.344 371.832 150.669 367.71 135.287C363.452 119.394 372.528 103.429 389.907 98.772C407.285 94.1155 423.129 103.404 427.093 118.199C427.715 120.252 427.897 122.412 427.629 124.535L395.621 133.112Z" fill="#1C1F27"/>
</g>
<path d="M65.9584 234.76C64.5202 235.145 63.2956 236.092 62.5542 237.393C61.8129 238.695 61.6153 240.243 62.0051 241.697C62.3948 243.152 63.3399 244.394 64.6325 245.15C65.9251 245.906 67.4593 246.114 68.8975 245.729C70.3358 245.343 71.5603 244.396 72.3017 243.095C73.0431 241.794 73.2406 240.246 72.8508 238.791C72.4611 237.336 71.516 236.095 70.2234 235.339C68.9308 234.582 67.3966 234.374 65.9584 234.76V234.76ZM98.906 231.81C103.458 248.799 95.5789 262.776 83.7242 265.952C80.9343 266.727 77.9922 266.777 75.1695 266.1C72.3469 265.423 69.7347 264.04 67.5741 262.078L69.3444 268.684L44.3991 275.369L23.7773 198.407L48.7227 191.723L56.6925 221.467C57.5848 218.689 59.156 216.186 61.2615 214.188C63.367 212.191 65.9393 210.763 68.7415 210.036C80.6971 206.833 94.4478 214.768 99.0069 231.783L98.906 231.81Z" fill="#1C1F27"/>
<path d="M128.133 190.759C127.005 190.934 125.958 191.451 125.131 192.241C124.304 193.03 123.734 194.056 123.498 195.183C123.262 196.31 123.37 197.484 123.808 198.552C124.246 199.619 124.994 200.528 125.953 201.161C126.911 201.793 128.035 202.118 129.176 202.092C130.318 202.067 131.423 201.693 132.345 201.019C133.268 200.345 133.965 199.403 134.345 198.318C134.724 197.232 134.768 196.054 134.47 194.94C134.338 194.239 134.066 193.572 133.672 192.979C133.278 192.386 132.77 191.879 132.178 191.488C131.585 191.098 130.922 190.832 130.227 190.706C129.531 190.581 128.819 190.599 128.133 190.759V190.759ZM137.244 224.763C119.336 229.562 102.794 219.886 98.6791 204.53C94.5643 189.173 104.045 172.498 121.954 167.699C139.862 162.901 156.404 172.576 160.525 187.958C164.647 203.34 155.127 219.972 137.244 224.763Z" fill="#1C1F27"/>
<path d="M214.109 222.677C213.219 225.456 211.649 227.961 209.543 229.958C207.437 231.956 204.864 233.383 202.06 234.108C191.744 236.872 181.415 230.808 177.738 217.085L168.934 184.229L193.904 177.538L200.958 203.863C201.037 204.427 201.232 204.968 201.532 205.451C201.831 205.934 202.228 206.348 202.696 206.667C203.164 206.985 203.693 207.201 204.248 207.299C204.804 207.397 205.372 207.376 205.917 207.237C207.015 206.621 207.853 205.625 208.278 204.431C208.703 203.237 208.687 201.926 208.231 200.739L201.471 175.51L226.417 168.826L240.825 222.6L215.88 229.284L214.109 222.677Z" fill="#1C1F27"/>
<path d="M271.288 191.307C272.18 188.529 273.751 186.026 275.857 184.028C277.962 182.031 280.535 180.603 283.337 179.876C293.653 177.112 304.001 183.143 307.678 196.867L316.468 229.672L291.498 236.363L284.437 210.012C284.358 209.448 284.163 208.907 283.863 208.424C283.564 207.941 283.167 207.527 282.699 207.208C282.231 206.89 281.702 206.674 281.147 206.576C280.592 206.478 280.023 206.499 279.478 206.638C278.374 207.25 277.53 208.246 277.1 209.441C276.67 210.637 276.684 211.952 277.139 213.143L283.905 238.397L258.96 245.081L244.552 191.308L269.497 184.624L271.288 191.307Z" fill="#1C1F27"/>
<path d="M345.811 172.104C347.388 171.575 348.833 170.713 350.053 169.576C351.272 168.439 352.237 167.052 352.883 165.507L371.639 176.885C369.598 181.401 366.57 185.385 362.781 188.541C358.991 191.697 354.539 193.941 349.757 195.106C331.875 199.898 315.333 190.223 311.218 174.866C307.103 159.51 316.584 142.834 334.467 138.042C339.191 136.661 344.169 136.378 349.028 137.217C353.888 138.055 358.503 139.991 362.527 142.882L351.974 162.114C350.66 161.111 349.153 160.396 347.552 160.015C345.95 159.634 344.29 159.596 342.677 159.902C341.767 159.984 340.886 160.265 340.097 160.726C339.308 161.187 338.63 161.818 338.109 162.573C337.588 163.329 337.238 164.191 337.082 165.1C336.927 166.008 336.97 166.941 337.21 167.833C337.449 168.726 337.878 169.555 338.466 170.265C339.055 170.974 339.79 171.545 340.618 171.939C341.447 172.333 342.35 172.54 343.264 172.545C344.178 172.55 345.081 172.353 345.91 171.968L345.811 172.104Z" fill="#1C1F27"/>
<path d="M387.272 120.722L398.118 117.815C397.728 116.361 396.783 115.119 395.491 114.363C394.198 113.607 392.664 113.399 391.226 113.784C389.788 114.169 388.563 115.117 387.822 116.418C387.08 117.719 386.883 119.267 387.272 120.722ZM392.381 131.109C392.381 131.109 395.027 134.529 402.089 132.636C405.301 131.633 408.211 129.839 410.558 127.415L423.643 141.543C418.027 147.408 410.892 151.564 403.042 153.543C385.133 158.341 368.591 148.666 364.477 133.309C360.212 117.392 369.288 101.426 386.667 96.7694C404.045 92.1129 419.923 101.529 423.86 116.222C424.478 118.266 424.658 120.418 424.388 122.533L392.381 131.109Z" fill="#1C1F27"/>
</g>
<defs>
<clipPath id="clip0">
<rect width="426" height="216" fill="white" transform="translate(0.30542 110.808) rotate(-15)"/>
</clipPath>
</defs>
</svg>
